<svg width="270" height="273" viewBox="0 0 270 273" fill="none" xmlns="http://www.w3.org/2000/svg">
<rect width="270" height="273" rx="135" fill="#D2C5A1"/>
<path d="M143.865 134.122C144.209 134.307 144.495 134.579 144.695 134.909C144.895 135.239 145 135.616 145 136C145 136.383 144.895 136.76 144.695 137.09C144.495 137.421 144.209 137.693 143.865 137.878L129.248 145.735C128.914 145.915 128.538 146.006 128.157 146C127.776 145.994 127.404 145.891 127.076 145.701C126.748 145.511 126.476 145.242 126.288 144.918C126.099 144.594 126 144.228 126 143.856V128.143C126 127.771 126.099 127.405 126.288 127.081C126.477 126.758 126.749 126.488 127.077 126.298C127.405 126.109 127.778 126.006 128.159 126C128.54 125.994 128.916 126.086 129.249 126.265L143.866 134.122H143.865Z" fill="#404040"/>
</svg>
