<svg width="9" height="11" viewBox="0 0 9 11" fill="none" xmlns="http://www.w3.org/2000/svg">
<path d="M7.24567 2.92368C7.66091 2.69355 8.00428 2.62451 8.27578 2.71656C8.54729 2.79327 8.74692 2.93135 8.87469 3.1308C9.00246 3.3149 9.02641 3.53736 8.94656 3.79818C8.88268 4.05899 8.64311 4.30447 8.22787 4.5346C7.8286 4.74939 7.33351 4.91815 6.74259 5.04089C6.15167 5.14828 5.40104 5.32471 4.4907 5.57019L4.46675 5.50115C5.08961 4.90281 5.60866 4.38118 6.0239 3.93626C6.45511 3.47599 6.86237 3.13847 7.24567 2.92368ZM4.51466 5.50115C5.37708 5.73128 6.11174 5.90771 6.71863 6.03045C7.34149 6.15319 7.85256 6.32195 8.25183 6.53674C8.66707 6.76687 8.90663 7.02002 8.97052 7.29617C9.0344 7.55699 8.99447 7.78712 8.85073 7.98657C8.75491 8.17067 8.57125 8.30108 8.29974 8.37779C8.02824 8.4545 7.68486 8.37779 7.26962 8.14766C6.87035 7.93287 6.47108 7.61069 6.07181 7.18111C5.67254 6.73619 5.13752 6.19921 4.46675 5.57019L4.51466 5.50115ZM4.53861 5.54718C4.77818 6.36031 4.99378 7.05837 5.18543 7.64137C5.37708 8.22437 5.48089 8.73066 5.49686 9.16024C5.48089 9.6205 5.3691 9.94268 5.16148 10.1268C4.95386 10.3109 4.73026 10.4029 4.4907 10.4029C4.25114 10.4029 4.02755 10.3186 3.81993 10.1498C3.62828 9.9657 3.53245 9.63584 3.53245 9.16024C3.53245 8.71531 3.62828 8.2167 3.81993 7.66438C4.01158 7.11207 4.22718 6.40633 4.46675 5.54718H4.53861ZM4.46675 5.52416L4.51466 5.5932C3.8918 6.1762 3.36476 6.69783 2.93355 7.15809C2.51831 7.61836 2.11904 7.95588 1.73574 8.17067C1.3205 8.4008 0.977123 8.47751 0.70562 8.4008C0.434116 8.30875 0.234481 8.163 0.106714 7.96355C-0.00508161 7.77945 -0.0290379 7.55699 0.0348454 7.29617C0.0987287 7.03536 0.338291 6.78988 0.753532 6.55975C1.1528 6.34496 1.6479 6.1762 2.23882 6.05346C2.82974 5.93073 3.57238 5.75429 4.46675 5.52416ZM1.71178 2.94669C2.11105 3.16148 2.51032 3.49134 2.90959 3.93626C3.32483 4.36584 3.85187 4.89514 4.4907 5.52416L4.46675 5.5932C3.62029 5.36307 2.88564 5.18664 2.26277 5.0639C1.63991 4.94116 1.12885 4.7724 0.729576 4.55761C0.330305 4.32748 0.0987287 4.08201 0.0348454 3.82119C-0.0290379 3.54503 0.00290378 3.30723 0.13067 3.10778C0.242466 2.92368 0.42613 2.79327 0.681663 2.71656C0.953167 2.63985 1.29654 2.71656 1.71178 2.94669ZM4.4907 0.691406C4.74624 0.691406 4.96983 0.783459 5.16148 0.967564C5.35313 1.15167 5.44895 1.47385 5.44895 1.93412C5.44895 2.36369 5.35313 2.86231 5.16148 3.42997C4.9858 3.98228 4.77019 4.68802 4.51466 5.54718H4.44279C4.2192 4.73405 4.00359 4.03598 3.79597 3.45298C3.60432 2.86998 3.5085 2.36369 3.5085 1.93412C3.5085 1.47385 3.61231 1.15167 3.81993 0.967564C4.04352 0.783459 4.26711 0.691406 4.4907 0.691406Z" fill="#D2C5A1"/>
</svg>
