<svg width="63" height="63" fill="none" xmlns="http://www.w3.org/2000/svg"><path d="M57.094 32.484H5.906c-1.8 0-3.208 1.17-2.953 2.953l2.953 21.657c.254 1.587 2.33 2.953 3.938 2.953h43.312c1.608 0 3.684-1.366 3.938-2.953l2.953-21.657c.255-1.782-1.153-2.953-2.953-2.953zm-22.64 9.844h-5.907a2.953 2.953 0 010-5.906h5.906a2.953 2.953 0 110 5.906z" fill="#195399"/><path d="M50.203 22.64H12.797a4.922 4.922 0 100 9.844h37.406a4.922 4.922 0 100-9.843z" fill="#298AFF"/><path d="M42.328 12.797H16.734a4.922 4.922 0 100 9.844h25.594a4.922 4.922 0 100-9.844zm3.938-9.844H26.578a4.922 4.922 0 100 9.844h19.688a4.922 4.922 0 100-9.844z" fill="#298AFF"/><path d="M57.094 31.5h-2.5a5.896 5.896 0 00-4.391-9.844h-3.485a5.87 5.87 0 00-.02-7.896 5.906 5.906 0 00-.432-11.791H26.578a5.897 5.897 0 00-4.39 9.844h-5.454a5.896 5.896 0 00-4.37 9.865A5.892 5.892 0 008.407 31.5h-2.5a4.136 4.136 0 00-3.158 1.322 3.398 3.398 0 00-.77 2.748L4.93 57.25c.343 2.129 2.922 3.781 4.913 3.781h43.312c1.99 0 4.57-1.652 4.913-3.804l2.953-21.65a3.402 3.402 0 00-.77-2.756 4.136 4.136 0 00-3.158-1.321zM26.578 3.938h19.688a3.938 3.938 0 010 7.874H26.578a3.937 3.937 0 110-7.874zm-9.844 9.843h25.594a3.938 3.938 0 110 7.875H16.734a3.938 3.938 0 010-7.875zm-3.937 9.844h37.406a3.938 3.938 0 010 7.875H12.797a3.937 3.937 0 110-7.875zm46.274 11.68l-2.953 21.633a3.307 3.307 0 01-2.962 2.124H9.844c-1.252 0-2.804-1.11-2.962-2.101L3.929 35.298a1.422 1.422 0 01.308-1.181 2.184 2.184 0 011.67-.648h51.187a2.185 2.185 0 011.673.643 1.427 1.427 0 01.304 1.193z" fill="#fff"/><path d="M28.547 43.313h5.906a3.937 3.937 0 100-7.876h-5.906a3.937 3.937 0 100 7.876zm0-5.907h5.906a1.969 1.969 0 010 3.938h-5.906a1.969 1.969 0 010-3.938zM8.86 55.125h3.937v1.969H8.859v-1.969zm5.906 0h3.937v1.969h-3.937v-1.969zm5.906 0h3.937v1.969h-3.937v-1.969zm5.906 0h3.938v1.969h-3.938v-1.969zm5.906 0h3.938v1.969h-3.938v-1.969zm5.906 0h3.938v1.969h-3.937v-1.969zm5.907 0h3.937v1.969h-3.937v-1.969zm5.906 0h3.938v1.969h-3.938v-1.969zm-38.39-3.937h3.937v1.968h-3.938v-1.968zm5.906 0h3.937v1.968H17.72v-1.968zm5.906 0h3.938v1.968h-3.938v-1.968zm5.906 0h3.938v1.968H29.53v-1.968zm5.907 0h3.937v1.968h-3.938v-1.968zm5.906 0h3.937v1.968h-3.937v-1.968zm5.906 0h3.938v1.968H47.25v-1.968zM25.594 8.86H47.25a.984.984 0 100-1.97H25.594a.984.984 0 000 1.97zm9.844 9.843h7.874a.984.984 0 100-1.969h-7.874a.984.984 0 100 1.97zm-23.625 9.844h14.765a.984.984 0 100-1.969H11.813a.984.984 0 100 1.969zm34.453 0h4.922a.984.984 0 100-1.969h-4.922a.984.984 0 000 1.969zM15.75 18.703h6.89a.984.984 0 100-1.969h-6.89a.984.984 0 100 1.97z" fill="#fff"/></svg>