<svg width="37" height="37" fill="none" xmlns="http://www.w3.org/2000/svg"><circle cx="18.5" cy="18.5" r="14.5" fill="#298AFF"/><circle opacity=".3" cx="18.5" cy="18.5" r="18" stroke="#C4C4C4"/><path d="M18.5 9C13.254 9 9 13.254 9 18.5s4.254 9.5 9.5 9.5 9.5-4.254 9.5-9.5S23.746 9 18.5 9zm1.977 14.723c-.489.193-.878.34-1.17.44a3.07 3.07 0 01-1.015.153c-.592 0-1.053-.145-1.38-.434a1.399 1.399 0 01-.492-1.1c0-.172.012-.349.036-.529.025-.18.064-.383.118-.61l.612-2.162c.054-.208.1-.405.138-.588.037-.185.054-.355.054-.51 0-.274-.057-.467-.17-.576-.115-.108-.331-.162-.654-.162-.157 0-.32.024-.486.073a6.66 6.66 0 00-.426.141l.162-.666c.4-.163.784-.303 1.15-.419a3.398 3.398 0 011.037-.175c.588 0 1.042.143 1.361.426.318.284.478.654.478 1.107 0 .094-.011.26-.033.496a3.32 3.32 0 01-.122.652l-.61 2.156a6.08 6.08 0 00-.134.592 3.13 3.13 0 00-.058.503c0 .287.063.482.192.586.127.103.35.156.665.156.149 0 .315-.027.503-.078a2.87 2.87 0 00.407-.137l-.163.665zm-.108-8.748a1.453 1.453 0 01-1.025.395c-.399 0-.743-.132-1.03-.395a1.263 1.263 0 01-.428-.96c0-.374.145-.696.429-.962.286-.267.63-.4 1.029-.4.4 0 .742.133 1.025.4.284.266.427.588.427.962 0 .376-.143.696-.427.96z" fill="#fff"/></svg>