<svg width="392" height="94" fill="none" xmlns="http://www.w3.org/2000/svg"><path d="M47 0C21.015 0 0 21.015 0 47s21.015 47 47 47 47-21.075 47-47S72.925 0 47 0zm0 86.576c-21.854 0-39.636-17.722-39.636-39.636C7.364 25.027 25.146 7.364 47 7.364c21.853 0 39.636 17.723 39.636 39.636 0 21.913-17.782 39.576-39.636 39.576z" fill="#298AFF"/><path d="M84.18 43.827c-3.292 0-6.346-.898-8.98-2.515-1.078 4.31-4.97 7.544-9.64 7.544-3.412 0-6.406-1.736-8.202-4.31a25.514 25.514 0 01-7.783 1.197c-4.97 0-9.64-1.437-13.592-3.832a20.285 20.285 0 01-18.56 12.034c-2.874 0-5.628-.599-8.143-1.676 2.575 18.5 18.381 32.69 37.6 32.69 20.956 0 37.96-17.004 37.96-37.959 0-1.078-.06-2.155-.12-3.233-.12 0-.36.06-.54.06z" fill="#2780EB"/><path d="M80.23 51.85c-1.917 17.542-16.466 31.193-34.368 31.792H47c18.38 0 33.528-13.89 35.504-31.792H80.23z" fill="#9FD2FF"/><path d="M18.141 49.395a5.09 5.09 0 100-10.178 5.09 5.09 0 000 10.178z" fill="#2780EB"/><path d="M18.142 39.875h-.3c2.275.18 4.072 2.096 4.072 4.43 0 2.336-1.797 4.252-4.072 4.431h.3a4.42 4.42 0 004.43-4.43 4.42 4.42 0 00-4.43-4.43z" fill="#9FD2FF"/><path d="M27.482 41.312a2.634 2.634 0 100-5.269 2.634 2.634 0 000 5.27z" fill="#2780EB"/><path d="M27.481 36.343h-.18c1.198.06 2.156 1.077 2.156 2.275 0 1.197-.958 2.215-2.155 2.275h.18a2.338 2.338 0 002.334-2.335c0-1.197-1.017-2.215-2.335-2.215z" fill="#9FD2FF"/><path d="M21.015 34.547a3.413 3.413 0 100-6.826 3.413 3.413 0 000 6.826z" fill="#2780EB"/><path d="M21.015 28.08h-.24c1.558.12 2.755 1.437 2.755 2.994 0 1.557-1.197 2.874-2.754 2.994h.24a2.965 2.965 0 002.993-2.994c0-1.617-1.377-2.994-2.994-2.994z" fill="#9FD2FF"/><path d="M65.74 45.503a3.413 3.413 0 100-6.825 3.413 3.413 0 000 6.825z" fill="#2780EB"/><path d="M65.74 39.097h-.24c1.557.12 2.755 1.437 2.755 2.993 0 1.557-1.198 2.874-2.754 2.994h.239a2.965 2.965 0 002.994-2.994c0-1.676-1.377-2.993-2.994-2.993zM29.817 62.208a3.411 3.411 0 00-3.413 3.412c0 1.856 1.556 3.413 3.413 3.413 1.856 0 3.412-1.557 3.412-3.413a3.411 3.411 0 00-3.412-3.412zm0 6.466h-.24c1.557-.12 2.754-1.437 2.754-2.994 0-1.556-1.197-2.874-2.754-2.993h.24a2.965 2.965 0 012.993 2.993 3.002 3.002 0 01-2.994 2.994zM56.1 58.196c-2.993 0-5.448 2.455-5.448 5.449 0 2.993 2.455 5.448 5.449 5.448 2.993 0 5.448-2.455 5.448-5.448a5.43 5.43 0 00-5.448-5.449zm0 10.178h-.358c2.454-.18 4.43-2.215 4.43-4.73 0-2.514-1.916-4.55-4.43-4.73h.359c2.634 0 4.73 2.156 4.73 4.73.06 2.635-2.096 4.73-4.73 4.73z" fill="#9FD2FF"/><path d="M151.85 16.06V40h-4.56V20.43h-10.26V40h-4.56V16.06h19.38zm13.477 6.27c1.089 0 2.128.228 3.116.684a7.497 7.497 0 012.584 1.862c.76.785 1.355 1.723 1.786 2.812.456 1.09.684 2.28.684 3.572 0 1.292-.228 2.483-.684 3.572a8.915 8.915 0 01-1.786 2.85 8.224 8.224 0 01-2.584 1.862 7.716 7.716 0 01-3.116.646c-.735 0-1.381-.089-1.938-.266a10.75 10.75 0 01-1.406-.57 6.186 6.186 0 01-1.216-.874v7.6h-4.37V22.52h3.23l.76 1.71c.38-.355.823-.671 1.33-.95.43-.228.95-.443 1.558-.646.608-.203 1.292-.304 2.052-.304zm-4.94 8.93c0 1.444.418 2.597 1.254 3.458.836.861 1.874 1.292 3.116 1.292 1.241 0 2.28-.43 3.116-1.292.836-.861 1.254-2.014 1.254-3.458 0-1.444-.418-2.597-1.254-3.458-.836-.861-1.875-1.292-3.116-1.292-1.242 0-2.28.43-3.116 1.292-.836.861-1.254 2.014-1.254 3.458zm19.766 0c0 1.444.418 2.597 1.254 3.458.836.861 1.874 1.292 3.116 1.292 1.241 0 2.28-.43 3.116-1.292.836-.861 1.254-2.014 1.254-3.458 0-1.444-.418-2.597-1.254-3.458-.836-.861-1.875-1.292-3.116-1.292-1.242 0-2.28.43-3.116 1.292-.836.861-1.254 2.014-1.254 3.458zm13.11 0a8.558 8.558 0 01-.722 3.496 8.904 8.904 0 01-1.9 2.812 8.972 8.972 0 01-2.774 1.938 8.23 8.23 0 01-3.344.684 8.494 8.494 0 01-3.382-.684 9.59 9.59 0 01-2.774-1.938 9.804 9.804 0 01-1.9-2.812 8.961 8.961 0 01-.684-3.496c0-1.241.228-2.394.684-3.458a9.653 9.653 0 011.9-2.85 9.008 9.008 0 012.774-1.9 8.11 8.11 0 013.382-.722c1.19 0 2.305.24 3.344.722a8.463 8.463 0 012.774 1.9c.81.81 1.444 1.76 1.9 2.85.481 1.064.722 2.217.722 3.458zM205.025 40l-4.18-8.93V40h-4.37V22.52h4.18l5.51 11.78 5.51-11.78h4.18V40h-4.37v-8.93l-4.18 8.93h-2.28zm34.964-17.48V40h-4.37V22.52h4.37zm-12.16 5.7c.862 0 1.66.165 2.394.494a5.774 5.774 0 011.9 1.254 5.585 5.585 0 011.292 1.862c.33.71.494 1.47.494 2.28 0 .81-.164 1.57-.494 2.28a5.585 5.585 0 01-1.292 1.862 6.296 6.296 0 01-1.9 1.292 6.195 6.195 0 01-2.394.456h-7.79V22.52h4.37v5.7h3.42zm-.57 7.98c.659 0 1.204-.203 1.634-.608.431-.405.646-.9.646-1.482 0-.583-.215-1.077-.646-1.482-.43-.405-.975-.608-1.634-.608h-2.85v4.18h2.85zM266.77 40h-22.61V22.52h4.37v13.3h4.75v-13.3h4.37v13.3h4.75v-13.3h4.37V40zm19.003-17.48V40h-4.37V26.7h-4.75l-.57 7.6c-.152 1.9-.734 3.357-1.748 4.37-1.013 1.013-2.394 1.52-4.142 1.52-.202 0-.38-.013-.532-.038a2.14 2.14 0 01-.418-.038 2.186 2.186 0 01-.38-.114v-3.61h.57c.76 0 1.33-.203 1.71-.608.406-.405.659-1.09.76-2.052l.95-11.21h12.92zm19.76 12.16c-.228.659-.582 1.317-1.064 1.976a8.121 8.121 0 01-1.71 1.786 8.936 8.936 0 01-2.28 1.254c-.836.33-1.748.494-2.736.494a8.497 8.497 0 01-3.382-.684 9.617 9.617 0 01-2.774-1.938 9.845 9.845 0 01-1.9-2.812 8.961 8.961 0 01-.684-3.496c0-1.241.228-2.394.684-3.458a9.692 9.692 0 011.9-2.85 9.032 9.032 0 012.774-1.9 8.114 8.114 0 013.382-.722 8.17 8.17 0 013.23.646 8.033 8.033 0 012.66 1.824c.76.785 1.356 1.735 1.786 2.85.456 1.09.684 2.293.684 3.61 0 .203-.012.405-.038.608l-.076.532c-.025.203-.05.393-.076.57h-12.16a4.074 4.074 0 001.292 2.166c.659.583 1.558.874 2.698.874.583 0 1.064-.063 1.444-.19a4.279 4.279 0 001.026-.456 3.31 3.31 0 00.76-.684h4.56zm-7.79-8.17c-1.14 0-2.077.33-2.812.988a4.509 4.509 0 00-1.368 2.432h8.36a4.402 4.402 0 00-1.406-2.432c-.709-.659-1.634-.988-2.774-.988zm27.351-3.99V40h-4.37v-6.84h-7.03V40h-4.37V22.52h4.37v6.46h7.03v-6.46h4.37zm19.965 0V40h-4.37v-6.84h-7.03V40h-4.37V22.52h4.37v6.46h7.03v-6.46h4.37zm11.415-.19c.988 0 1.9.177 2.736.532.836.33 1.558.798 2.166 1.406a6.273 6.273 0 011.406 2.166c.355.836.532 1.748.532 2.736V40h-3.23l-.76-1.71a8.419 8.419 0 01-1.33.95c-.431.253-.95.481-1.558.684-.608.177-1.292.266-2.052.266-1.9 0-3.357-.456-4.37-1.368-1.013-.937-1.52-2.128-1.52-3.572 0-.861.165-1.647.494-2.356.355-.735.937-1.355 1.748-1.862.811-.532 1.875-.937 3.192-1.216 1.343-.304 3.015-.456 5.016-.456 0-.963-.266-1.71-.798-2.242-.507-.532-1.191-.798-2.052-.798-.583 0-1.051.101-1.406.304a3.557 3.557 0 00-.798.646 2.21 2.21 0 00-.456.95h-4.37c.101-.81.329-1.57.684-2.28.38-.71.887-1.33 1.52-1.862a7.143 7.143 0 012.242-1.254c.887-.33 1.875-.494 2.964-.494zm-1.33 14.44c1.14 0 2.052-.33 2.736-.988.709-.684 1.064-1.558 1.064-2.622v-.76c-1.292 0-2.331.063-3.116.19-.785.101-1.406.266-1.862.494-.431.203-.722.456-.874.76a2.262 2.262 0 00-.228 1.026c0 .481.215.925.646 1.33.431.38.975.57 1.634.57zm26.015-14.25V40h-4.37v-5.7h-2.47l-3.61 5.7h-4.75l3.99-6.27a5.205 5.205 0 01-1.634-1.216c-.405-.43-.772-.975-1.102-1.634-.329-.684-.494-1.507-.494-2.47 0-.81.152-1.57.456-2.28a6.11 6.11 0 011.33-1.862 6.126 6.126 0 011.976-1.254c.76-.33 1.596-.494 2.508-.494h8.17zm-7.79 3.8c-.658 0-1.203.203-1.634.608-.43.405-.646.9-.646 1.482 0 .583.216 1.077.646 1.482.431.405.976.608 1.634.608h3.61v-4.18h-3.61zM147.86 60.52V78h-4.37V64.7h-7.03V78h-4.37V60.52h15.77zm13.125-.19c1.089 0 2.128.228 3.116.684a7.497 7.497 0 012.584 1.862c.76.785 1.355 1.723 1.786 2.812.456 1.09.684 2.28.684 3.572 0 1.292-.228 2.483-.684 3.572a8.915 8.915 0 01-1.786 2.85 8.224 8.224 0 01-2.584 1.862 7.716 7.716 0 01-3.116.646c-.735 0-1.381-.089-1.938-.266a10.75 10.75 0 01-1.406-.57 6.216 6.216 0 01-1.216-.874v7.6h-4.37V60.52h3.23l.76 1.71c.38-.355.823-.671 1.33-.95.431-.228.95-.443 1.558-.646.608-.203 1.292-.304 2.052-.304zm-4.94 8.93c0 1.444.418 2.597 1.254 3.458.836.861 1.875 1.292 3.116 1.292s2.28-.43 3.116-1.292c.836-.861 1.254-2.014 1.254-3.458 0-1.444-.418-2.597-1.254-3.458-.836-.861-1.875-1.292-3.116-1.292s-2.28.43-3.116 1.292c-.836.861-1.254 2.014-1.254 3.458zm23.566-8.93c.988 0 1.9.177 2.736.532.836.33 1.558.798 2.166 1.406a6.287 6.287 0 011.406 2.166c.354.836.532 1.748.532 2.736V78h-3.23l-.76-1.71a8.465 8.465 0 01-1.33.95c-.431.253-.95.481-1.558.684-.608.177-1.292.266-2.052.266-1.9 0-3.357-.456-4.37-1.368-1.014-.937-1.52-2.128-1.52-3.572 0-.861.164-1.647.494-2.356.354-.735.937-1.355 1.748-1.862.81-.532 1.874-.937 3.192-1.216 1.342-.304 3.014-.456 5.016-.456 0-.963-.266-1.71-.798-2.242-.507-.532-1.191-.798-2.052-.798-.583 0-1.052.101-1.406.304a3.52 3.52 0 00-.798.646 2.21 2.21 0 00-.456.95h-4.37c.101-.81.329-1.57.684-2.28.38-.71.886-1.33 1.52-1.862a7.132 7.132 0 012.242-1.254c.886-.33 1.874-.494 2.964-.494zm-1.33 14.44c1.14 0 2.052-.33 2.736-.988.709-.684 1.064-1.558 1.064-2.622v-.76c-1.292 0-2.331.063-3.116.19-.786.101-1.406.266-1.862.494-.431.203-.722.456-.874.76a2.262 2.262 0 00-.228 1.026c0 .481.215.925.646 1.33.43.38.975.57 1.634.57zm26.594-14.25V78h-4.37v-5.7a8.207 8.207 0 01-1.368.57c-.431.152-.925.291-1.482.418a9.14 9.14 0 01-1.71.152c-.912 0-1.748-.152-2.508-.456a6.005 6.005 0 01-1.976-1.368 6.555 6.555 0 01-1.33-2.09c-.304-.836-.456-1.748-.456-2.736v-6.27h4.37v5.7c0 .963.266 1.71.798 2.242s1.279.798 2.242.798c.481 0 .925-.05 1.33-.152a6.72 6.72 0 001.102-.418c.355-.152.684-.342.988-.57v-7.6h4.37zm19.76 12.16c-.228.659-.583 1.317-1.064 1.976a8.121 8.121 0 01-1.71 1.786 8.97 8.97 0 01-2.28 1.254c-.836.33-1.748.494-2.736.494a8.494 8.494 0 01-3.382-.684 9.603 9.603 0 01-2.774-1.938 9.824 9.824 0 01-1.9-2.812 8.961 8.961 0 01-.684-3.496c0-1.241.228-2.394.684-3.458a9.672 9.672 0 011.9-2.85 9.02 9.02 0 012.774-1.9 8.11 8.11 0 013.382-.722 8.17 8.17 0 013.23.646 8.043 8.043 0 012.66 1.824c.76.785 1.355 1.735 1.786 2.85.456 1.09.684 2.293.684 3.61 0 .203-.013.405-.038.608l-.076.532a32.8 32.8 0 01-.076.57h-12.16a4.068 4.068 0 001.292 2.166c.659.583 1.558.874 2.698.874.583 0 1.064-.063 1.444-.19a4.315 4.315 0 001.026-.456 3.33 3.33 0 00.76-.684h4.56zm-7.79-8.17c-1.14 0-2.077.33-2.812.988a4.509 4.509 0 00-1.368 2.432h8.36a4.408 4.408 0 00-1.406-2.432c-.709-.659-1.634-.988-2.774-.988zm26.401-3.99V78h-4.37v-5.7a8.207 8.207 0 01-1.368.57c-.431.152-.925.291-1.482.418a9.14 9.14 0 01-1.71.152c-.912 0-1.748-.152-2.508-.456a6.005 6.005 0 01-1.976-1.368 6.555 6.555 0 01-1.33-2.09c-.304-.836-.456-1.748-.456-2.736v-6.27h4.37v5.7c0 .963.266 1.71.798 2.242s1.279.798 2.242.798c.481 0 .925-.05 1.33-.152a6.72 6.72 0 001.102-.418c.355-.152.684-.342.988-.57v-7.6h4.37zm19.95 0V78h-4.37v-6.84h-7.03V78h-4.37V60.52h4.37v6.46h7.03v-6.46h4.37zm11.415-.19c.988 0 1.9.177 2.736.532.836.33 1.558.798 2.166 1.406a6.287 6.287 0 011.406 2.166c.354.836.532 1.748.532 2.736V78h-3.23l-.76-1.71a8.465 8.465 0 01-1.33.95c-.431.253-.95.481-1.558.684-.608.177-1.292.266-2.052.266-1.9 0-3.357-.456-4.37-1.368-1.014-.937-1.52-2.128-1.52-3.572 0-.861.164-1.647.494-2.356.354-.735.937-1.355 1.748-1.862.81-.532 1.874-.937 3.192-1.216 1.342-.304 3.014-.456 5.016-.456 0-.963-.266-1.71-.798-2.242-.507-.532-1.191-.798-2.052-.798-.583 0-1.052.101-1.406.304a3.52 3.52 0 00-.798.646 2.21 2.21 0 00-.456.95h-4.37c.101-.81.329-1.57.684-2.28.38-.71.886-1.33 1.52-1.862a7.132 7.132 0 012.242-1.254c.886-.33 1.874-.494 2.964-.494zm-1.33 14.44c1.14 0 2.052-.33 2.736-.988.709-.684 1.064-1.558 1.064-2.622v-.76c-1.292 0-2.331.063-3.116.19-.786.101-1.406.266-1.862.494-.431.203-.722.456-.874.76a2.262 2.262 0 00-.228 1.026c0 .481.215.925.646 1.33.43.38.975.57 1.634.57zm26.015-14.25V78h-4.37v-5.7h-2.47l-3.61 5.7h-4.75l3.99-6.27a5.205 5.205 0 01-1.634-1.216c-.405-.43-.773-.975-1.102-1.634-.329-.684-.494-1.507-.494-2.47 0-.81.152-1.57.456-2.28.329-.71.773-1.33 1.33-1.862a6.115 6.115 0 011.976-1.254c.76-.33 1.596-.494 2.508-.494h8.17zm-7.79 3.8c-.659 0-1.203.203-1.634.608-.431.405-.646.9-.646 1.482 0 .583.215 1.077.646 1.482.431.405.975.608 1.634.608h3.61v-4.18h-3.61z" fill="#000"/></svg>