<svg xmlns="http://www.w3.org/2000/svg" version="1.1" id="svg2" xml:space="preserve" width="682.667" height="401.221"><defs id="defs6"><clipPath clipPathUnits="userSpaceOnUse" id="clipPath36"><path d="M0 300.916h512V0H0z" id="path34"/></clipPath></defs><g id="g10" transform="matrix(1.33333 0 0 -1.33333 0 401.221)"><g id="g12" transform="translate(245.337 181.534)"><path d="M0 0l-6.434-17.132h-2.893L-15.723 0v-17.132h-6.548V8.261h9.099l5.291-14.39 5.33 14.39h9.099v-25.393H0z" id="path14" fill="#000" fill-opacity="1" fill-rule="nonzero" stroke="none"/></g><g id="g16" transform="translate(263.759 173.768)"><path d="M0 0h7.119L3.541 10.317zm8.833-5.52H-1.713l-1.295-3.845h-7.119l9.556 25.393h8.223l9.594-25.393h-7.119z" id="path18" fill="#000" fill-opacity="1" fill-rule="nonzero" stroke="none"/></g><g id="g20" transform="translate(291.813 172.93)"><path d="M0 0l-5.52-8.528h-7.766l8.87 13.02-8.299 12.373h7.729L0 8.909l4.911 7.956h7.767L4.417 4.53l8.832-13.058H5.521z" id="path22" fill="#000" fill-opacity="1" fill-rule="nonzero" stroke="none"/></g><path d="M306.847 189.795h6.548v-25.393h-6.548z" id="path24" fill="#000" fill-opacity="1" fill-rule="nonzero" stroke="none"/><g id="g26" transform="translate(339.356 181.534)"><path d="M0 0l-6.434-17.132h-2.893L-15.723 0v-17.132h-6.548V8.261h9.099l5.292-14.39 5.329 14.39h9.1v-25.393H0z" id="path28" fill="#000" fill-opacity="1" fill-rule="nonzero" stroke="none"/></g><g id="g30"><g id="g32" clip-path="url(#clipPath36)"><g id="g38" transform="translate(349.593 189.796)"><path d="M0 0h6.662v-14.886c0-3.007 1.6-5.177 5.14-5.177 3.503 0 5.101 2.17 5.101 5.177V0h6.662v-15.076c0-6.32-3.616-10.774-11.763-10.774S0-21.357 0-15.114z" id="path40" fill="#000" fill-opacity="1" fill-rule="nonzero" stroke="none"/></g><g id="g42" transform="translate(378.483 172.892)"><path d="M0 0a11.476 11.476 0 018.109-3.35c2.246 0 3.618.952 3.618 2.17 0 1.447-1.638 2.017-4.341 2.589-4.188.837-10.051 1.903-10.051 7.918 0 4.264 3.617 7.957 10.127 7.957 4.074 0 7.614-1.218 10.317-3.54l-3.578-4.683c-2.133 1.751-4.911 2.627-7.158 2.627-2.17 0-3.007-.876-3.007-1.98 0-1.333 1.561-1.789 4.378-2.322 4.188-.876 9.975-2.094 9.975-7.843 0-5.101-3.77-8.49-10.584-8.49-5.14 0-8.718 1.599-11.269 4.036z" id="path44" fill="#000" fill-opacity="1" fill-rule="nonzero" stroke="none"/></g><g id="g46" transform="translate(245.337 150.534)"><path d="M0 0l-6.434-17.132h-2.893L-15.723 0v-17.132h-6.548V8.261h9.099L-7.881-6.13l5.33 14.391h9.099v-25.393H0z" id="path48" fill="#000" fill-opacity="1" fill-rule="nonzero" stroke="none"/></g><g id="g50" transform="translate(255.574 158.796)"><path d="M0 0h18.617v-5.52H6.548v-4.226H18.35v-5.558H6.548v-4.569h12.069v-5.52H0z" id="path52" fill="#000" fill-opacity="1" fill-rule="nonzero" stroke="none"/></g><g id="g54" transform="translate(288.54 139.113)"><path d="M0 0c4.454 0 7.043 3.235 7.043 7.005 0 3.921-2.36 6.967-7.005 6.967h-4.149V0zm-10.66 19.682H0c7.995 0 13.743-4.796 13.743-12.677C13.743-.876 7.995-5.711.038-5.711H-10.66z" id="path56" fill="#000" fill-opacity="1" fill-rule="nonzero" stroke="none"/></g><path d="M304.677 158.795h6.548v-25.393h-6.548z" id="path58" fill="#000" fill-opacity="1" fill-rule="nonzero" stroke="none"/><g id="g60" transform="translate(323.1 142.768)"><path d="M0 0h7.119L3.541 10.317zm8.832-5.521H-1.713l-1.295-3.844h-7.119l9.556 25.393h8.223l9.594-25.393h-7.119z" id="path62" fill="#000" fill-opacity="1" fill-rule="nonzero" stroke="none"/></g><g id="g64" transform="translate(159.532 159.206)"><path d="M0 0l37.403 21.595V-21.37L0-43.118-37.404-21.37v42.965z" id="path66" fill="#3c3c3b" fill-opacity="1" fill-rule="nonzero" stroke="none"/></g><g id="g68" transform="translate(122.128 180.801)"><path d="M0 0l37.404-21.595L74.807 0v-42.965L56.193-53.764l.039 21.299L37.404-43.19 18.588-32.458v-21.306L0-42.965z" id="path70" fill="#ffed00" fill-opacity="1" fill-rule="nonzero" stroke="none"/></g><g id="g72" transform="translate(159.532 159.206)"><path d="M0 0v-21.595l-18.815 10.732v-21.306L-37.404-21.37v42.965z" id="path74" fill="#ffbc00" fill-opacity="1" fill-rule="nonzero" stroke="none"/></g><g id="g76" transform="translate(203.935 192.925)"><path d="M0 0l-10.5-6.062-33.903-19.574-33.904 19.574L-88.807 0v-59.117l3.481-2.024 37.404-21.748 3.519-2.046 3.518 2.046 37.404 21.748L0-59.117v46.993zm-7-12.124v-42.965l-37.403-21.748-37.404 21.748v42.965l37.404-21.595z" id="path78" fill="#000" fill-opacity="1" fill-rule="nonzero" stroke="none"/></g><g id="g80" transform="translate(159.532 137.578)"><path d="M0 0v-21.595l-18.815 11.054v21.306z" id="path82" fill="#000" fill-opacity="1" fill-rule="nonzero" stroke="none"/></g></g></g></g></svg>