<svg width="94" height="94" fill="none" xmlns="http://www.w3.org/2000/svg"><path d="M47 0C21.015 0 0 21.015 0 47s21.015 47 47 47 47-21.075 47-47S72.925 0 47 0zm0 86.576c-21.854 0-39.636-17.722-39.636-39.636C7.364 25.027 25.146 7.364 47 7.364c21.853 0 39.636 17.723 39.636 39.636 0 21.913-17.782 39.576-39.636 39.576z" fill="#298AFF"/><path d="M84.18 43.827c-3.292 0-6.346-.898-8.98-2.515-1.078 4.31-4.97 7.544-9.64 7.544-3.412 0-6.406-1.736-8.202-4.31a25.514 25.514 0 01-7.783 1.197c-4.97 0-9.64-1.437-13.592-3.832a20.285 20.285 0 01-18.56 12.034c-2.874 0-5.628-.599-8.143-1.676 2.575 18.5 18.381 32.69 37.6 32.69 20.956 0 37.96-17.004 37.96-37.959 0-1.078-.06-2.155-.12-3.233-.12 0-.36.06-.54.06z" fill="#2780EB"/><path d="M80.23 51.85c-1.917 17.542-16.466 31.193-34.368 31.792H47c18.38 0 33.528-13.89 35.504-31.792H80.23z" fill="#9FD2FF"/><path d="M18.141 49.395a5.09 5.09 0 100-10.178 5.09 5.09 0 000 10.178z" fill="#2780EB"/><path d="M18.142 39.875h-.3c2.275.18 4.072 2.096 4.072 4.43 0 2.336-1.797 4.252-4.072 4.431h.3a4.42 4.42 0 004.43-4.43 4.42 4.42 0 00-4.43-4.43z" fill="#9FD2FF"/><path d="M27.482 41.312a2.634 2.634 0 100-5.269 2.634 2.634 0 000 5.27z" fill="#2780EB"/><path d="M27.481 36.343h-.18c1.198.06 2.156 1.077 2.156 2.275 0 1.197-.958 2.215-2.155 2.275h.18a2.338 2.338 0 002.334-2.335c0-1.197-1.017-2.215-2.335-2.215z" fill="#9FD2FF"/><path d="M21.015 34.547a3.413 3.413 0 100-6.826 3.413 3.413 0 000 6.826z" fill="#2780EB"/><path d="M21.015 28.08h-.24c1.558.12 2.755 1.437 2.755 2.994 0 1.557-1.197 2.874-2.754 2.994h.24a2.965 2.965 0 002.993-2.994c0-1.617-1.377-2.994-2.994-2.994z" fill="#9FD2FF"/><path d="M65.74 45.503a3.413 3.413 0 100-6.825 3.413 3.413 0 000 6.825z" fill="#2780EB"/><path d="M65.74 39.097h-.24c1.557.12 2.755 1.437 2.755 2.993 0 1.557-1.198 2.874-2.754 2.994h.239a2.965 2.965 0 002.994-2.994c0-1.676-1.377-2.993-2.994-2.993zM29.817 62.208a3.411 3.411 0 00-3.413 3.412c0 1.856 1.556 3.413 3.413 3.413 1.856 0 3.412-1.557 3.412-3.413a3.411 3.411 0 00-3.412-3.412zm0 6.466h-.24c1.557-.12 2.754-1.437 2.754-2.994 0-1.556-1.197-2.874-2.754-2.993h.24a2.965 2.965 0 012.993 2.993 3.002 3.002 0 01-2.994 2.994zM56.1 58.196c-2.993 0-5.448 2.455-5.448 5.449 0 2.993 2.455 5.448 5.449 5.448 2.993 0 5.448-2.455 5.448-5.448a5.43 5.43 0 00-5.448-5.449zm0 10.178h-.358c2.454-.18 4.43-2.215 4.43-4.73 0-2.514-1.916-4.55-4.43-4.73h.359c2.634 0 4.73 2.156 4.73 4.73.06 2.635-2.096 4.73-4.73 4.73z" fill="#9FD2FF"/></svg>