<svg width="63" height="63" fill="none" xmlns="http://www.w3.org/2000/svg"><g clip-path="url(#clip0)"><path d="M31.5 16.775a.86.86 0 01-.861-.861v-2.098a3.056 3.056 0 011.974-2.849l1.764-.661a1.319 1.319 0 00-.465-2.554H30.74a3.242 3.242 0 00-2.97 1.944.86.86 0 11-1.579-.689 4.963 4.963 0 014.55-2.978h3.17a3.042 3.042 0 011.069 5.89l-1.764.662a1.325 1.325 0 00-.855 1.235v2.098a.86.86 0 01-.86.861z" fill="#298AFF"/><path d="M44.236 17.085a7.875 7.875 0 00-4.13-1.171H22.895a7.876 7.876 0 00-4.131 1.17l-1.158.714a4.4 4.4 0 001.619.624l2.253.37-2.253.372a4.43 4.43 0 00-3.65 3.65l-.372 2.254-.371-2.253a4.416 4.416 0 00-1.33-2.49L3.365 26.578l7.833 9.849 4.54-3.382V62.14h31.526V33.044l4.54 3.382 7.834-9.852-15.4-9.49z" fill="#298AFF"/><path d="M14.832 14.77l.37-2.252.372 2.253a4.43 4.43 0 003.65 3.65l2.254.372-2.253.371a4.43 4.43 0 00-3.65 3.65l-.372 2.255-.371-2.254a4.43 4.43 0 00-3.651-3.65l-2.254-.372 2.254-.371a4.43 4.43 0 003.65-3.651z" fill="#195399"/><path d="M48.926 3.115l.37-2.254.372 2.254a4.43 4.43 0 003.651 3.65l2.253.372-2.253.37a4.43 4.43 0 00-3.651 3.652l-.371 2.253-.371-2.253a4.43 4.43 0 00-3.651-3.651l-2.253-.371 2.253-.371a4.43 4.43 0 003.65-3.651z" fill="#298AFF"/><path d="M42.882 7.987l2.253.37a3.568 3.568 0 012.941 2.942l.371 2.253a.861.861 0 001.7 0l.371-2.253a3.568 3.568 0 012.94-2.942l2.254-.37a.861.861 0 000-1.7l-2.253-.37a3.568 3.568 0 01-2.94-2.942L50.146.722a.86.86 0 00-1.7 0l-.37 2.253a3.568 3.568 0 01-2.943 2.941l-2.254.37a.861.861 0 000 1.7h.002zm6.415-3.243a5.298 5.298 0 002.393 2.393 5.298 5.298 0 00-2.393 2.393 5.299 5.299 0 00-2.391-2.393 5.299 5.299 0 002.391-2.393zM15.738 47.427a.862.862 0 00-.861.861v2.957a.861.861 0 101.722 0v-2.957a.862.862 0 00-.861-.861zm-.861-3.266a.861.861 0 101.722 0V33.044a.861.861 0 00-1.378-.689L11.35 35.24 4.643 26.8l8.7-5.361c.328.449.547.969.64 1.517l.37 2.253a.861.861 0 001.7 0l.371-2.253a3.567 3.567 0 012.941-2.941l2.254-.371a.86.86 0 000-1.7l-2.038-.335a7.01 7.01 0 013.314-.833h1.863a6.607 6.607 0 006.538 5.743h.41a6.608 6.608 0 006.54-5.743h1.86c1.3 0 2.574.36 3.68 1.042a.862.862 0 00.906-1.465 8.728 8.728 0 00-4.583-1.3h-7.746v-1.236a1.324 1.324 0 01.855-1.235l1.764-.662a3.042 3.042 0 00-1.069-5.89H30.74a4.962 4.962 0 00-4.549 2.978.863.863 0 001.39.972.86.86 0 00.188-.283 3.243 3.243 0 012.971-1.944h3.172a1.32 1.32 0 01.464 2.554l-1.764.661a3.056 3.056 0 00-1.973 2.849v1.237h-7.744a8.73 8.73 0 00-4.583 1.299l-.67.412a3.558 3.558 0 01-1.218-2.133l-.371-2.254a.861.861 0 00-1.7 0l-.37 2.254a3.57 3.57 0 01-2.942 2.94l-2.253.371a.86.86 0 000 1.7l2.253.37c.304.054.6.147.88.276l-9.01 5.552a.863.863 0 00-.222 1.27l7.834 9.853a.86.86 0 001.188.155l3.166-2.357v9.4zM36.51 16.775a4.888 4.888 0 01-4.804 4.02h-.411a4.888 4.888 0 01-4.805-4.02h10.02zM15.203 16.4a5.29 5.29 0 002.393 2.394 5.337 5.337 0 00-2.393 2.394 5.29 5.29 0 00-2.393-2.394 5.295 5.295 0 002.393-2.394zm45.283 10.026a.86.86 0 00-.397-.585l-10.9-6.717a.861.861 0 10-.905 1.467l10.073 6.207-6.708 8.439-3.872-2.884a.86.86 0 00-1.376.69v28.234H16.6v-5.906a.861.861 0 10-1.723 0v6.768a.86.86 0 00.862.861h31.524a.861.861 0 00.862-.861v-27.38l3.165 2.357a.86.86 0 001.189-.154l7.833-9.852a.858.858 0 00.175-.684z" fill="#fff"/></g><defs><clipPath id="clip0"><path fill="#fff" d="M0 0h63v63H0z"/></clipPath></defs></svg>