<svg width="82" height="75" fill="none" xmlns="http://www.w3.org/2000/svg"><circle cx="49.5" cy="37.5" r="32.5" fill="#fff"/><g clip-path="url(#clip0)"><path fill-rule="evenodd" clip-rule="evenodd" d="M4.726 2.33h47.777a3.636 3.636 0 013.625 3.624v63.52a3.636 3.636 0 01-3.625 3.624H4.726A3.636 3.636 0 011.1 69.473V5.954A3.637 3.637 0 014.726 2.33z" fill="#F9F6F6"/><path fill-rule="evenodd" clip-rule="evenodd" d="M51.863 15.38h4.265v26.368h-4.265V15.38z" fill="#E1EFFF"/><path fill-rule="evenodd" clip-rule="evenodd" d="M27.962 63.436c10.572 0 19.196-8.625 19.196-19.197s-8.624-19.196-19.196-19.196c-10.576 0-19.196 8.624-19.196 19.196 0 10.572 8.62 19.197 19.196 19.197z" fill="#B6D7FF"/><path fill-rule="evenodd" clip-rule="evenodd" d="M27.962 25.043c10.601 0 19.197 8.595 19.197 19.196s-8.596 19.197-19.197 19.197c-.73 0-1.449-.042-2.159-.12 9.588-1.072 17.041-9.207 17.041-19.077 0-9.874-7.453-18.004-17.04-19.076.71-.079 1.428-.12 2.158-.12z" fill="#C6B4DA"/><path fill-rule="evenodd" clip-rule="evenodd" d="M27.962 56.46c6.731 0 12.22-5.49 12.22-12.22 0-6.732-5.489-12.221-12.22-12.221-6.73 0-12.22 5.49-12.22 12.22 0 6.731 5.49 12.22 12.22 12.22z" fill="#9DC6FB"/><path fill-rule="evenodd" clip-rule="evenodd" d="M27.962 32.019c6.748 0 12.22 5.473 12.22 12.22 0 6.748-5.472 12.22-12.22 12.22-.73 0-1.44-.066-2.134-.186 5.73-1.01 10.086-6.013 10.086-12.034 0-6.02-4.356-11.024-10.086-12.033a12.035 12.035 0 012.134-.187z" fill="#80B4FB"/><path fill-rule="evenodd" clip-rule="evenodd" d="M1.1 15.38h55.028V5.954a3.636 3.636 0 00-3.625-3.625H4.726A3.637 3.637 0 001.1 5.954v9.426z" fill="#E1EFFF"/><path fill-rule="evenodd" clip-rule="evenodd" d="M51.863 15.38h4.265V5.954a3.636 3.636 0 00-3.625-3.625h-4.265a3.637 3.637 0 013.625 3.625v9.426z" fill="#B6D7FF"/><path fill-rule="evenodd" clip-rule="evenodd" d="M34.27 33.771a12.168 12.168 0 00-6.308-1.752c-2.308 0-4.468.64-6.307 1.752v3.92a4.002 4.002 0 003.986 3.99h4.638a4.002 4.002 0 003.99-3.99v-3.92z" fill="#F9F6F6"/><path fill-rule="evenodd" clip-rule="evenodd" d="M34.27 33.771a12.168 12.168 0 00-6.308-1.752c-.73 0-1.44.062-2.134.187.98.17 1.923.46 2.807.851 1.528.677 1.366.502 1.366 2.051v2.583a4.002 4.002 0 01-3.986 3.99h4.264a4.003 4.003 0 003.99-3.99v-3.92z" fill="#E1EFFF"/><path fill-rule="evenodd" clip-rule="evenodd" d="M45.315 73.098h25.749c1.445 0 2.612-1.316 2.612-2.612 0-1.295-.74-2.117-1.765-2.475-.204-.07-.25-.186 0-.278 1.017-.373 1.765-1.179 1.765-2.475 0-1.29-1.167-2.611-2.612-2.611l-13.25-1.362-12.499 1.362c-2.873 0-5.228 2.354-5.228 5.227 0 2.874 2.355 5.224 5.228 5.224z" fill="#6BAEFF"/><path fill-rule="evenodd" clip-rule="evenodd" d="M45.315 62.647h25.749c1.445 0 2.611-1.317 2.611-2.612 0-1.296-.739-2.114-1.764-2.47-.204-.072-.25-.192 0-.283 1.017-.374 1.764-1.175 1.764-2.47 0-1.296-1.166-2.613-2.611-2.613l-12.74-1.366-13.01 1.366c-2.86.3-5.227 2.35-5.227 5.224 0 2.873 2.354 5.224 5.228 5.224z" fill="#298AFF"/><path fill-rule="evenodd" clip-rule="evenodd" d="M45.54 52.2h25.752c1.441 0 2.612-1.321 2.612-2.612 0-1.296-.743-2.118-1.769-2.475-.2-.07-.249-.187 0-.278 1.022-.378 1.769-1.18 1.769-2.475 0-1.296-1.171-2.612-2.612-2.612H45.54c-2.873 0-5.224 2.35-5.224 5.224 0 2.873 2.35 5.227 5.224 5.227z" fill="#56A3FF"/><path fill-rule="evenodd" clip-rule="evenodd" d="M71.292 52.2c1.441 0 2.612-1.321 2.612-2.612 0-1.296-.743-2.118-1.769-2.475-.2-.07-.249-.187 0-.278 1.022-.378 1.77-1.18 1.77-2.475 0-1.296-1.172-2.612-2.613-2.612h-4.26c1.437.004 2.603 1.32 2.603 2.612 0 1.295-.747 2.097-1.764 2.475-.25.091-.204.207 0 .278 1.025.357 1.764 1.179 1.764 2.475 0 1.29-1.166 2.611-2.612 2.611h4.27z" fill="#3A89E9"/><path fill-rule="evenodd" clip-rule="evenodd" d="M71.064 62.647c1.445 0 2.612-1.317 2.612-2.612 0-1.296-.74-2.114-1.765-2.47-.204-.072-.25-.192 0-.283 1.017-.374 1.765-1.175 1.765-2.47 0-1.296-1.167-2.613-2.612-2.613h-4.26c1.44.004 2.607 1.317 2.607 2.612 0 1.296-.747 2.097-1.769 2.47-.249.092-.199.212 0 .283 1.03.357 1.77 1.175 1.77 2.47 0 1.296-1.172 2.613-2.613 2.613h4.265z" fill="#1971DB"/><path fill-rule="evenodd" clip-rule="evenodd" d="M71.064 73.098c1.445 0 2.612-1.316 2.612-2.612 0-1.295-.74-2.117-1.765-2.475-.204-.07-.25-.186 0-.278 1.017-.373 1.765-1.179 1.765-2.475 0-1.29-1.167-2.611-2.612-2.611h-4.26c1.44.004 2.607 1.32 2.607 2.611 0 1.296-.747 2.102-1.769 2.475-.249.092-.199.208 0 .278 1.03.358 1.77 1.18 1.77 2.475 0 1.296-1.172 2.612-2.613 2.612h4.265z" fill="#298AFF"/><path fill-rule="evenodd" clip-rule="evenodd" d="M9.28 27.476a3.914 3.914 0 003.912-3.915 3.914 3.914 0 10-7.827 0 3.915 3.915 0 003.916 3.915zm38.667 0a3.914 3.914 0 01-3.915-3.915 3.915 3.915 0 117.831 0 3.917 3.917 0 01-3.916 3.915z" fill="#B6D7FF"/><path fill-rule="evenodd" clip-rule="evenodd" d="M9.28 27.476a3.914 3.914 0 003.912-3.915 3.914 3.914 0 00-6.046-3.285 3.922 3.922 0 011.782 3.285 3.91 3.91 0 01-1.782 3.28 3.874 3.874 0 002.135.635zm38.667 0c-.789 0-1.52-.232-2.134-.635a3.909 3.909 0 001.782-3.28c0-1.375-.71-2.583-1.782-3.285a3.917 3.917 0 016.05 3.284 3.917 3.917 0 01-3.916 3.916z" fill="#C6B4DA"/><path d="M45.315 73.983H4.725c-1.3 0-2.483-.532-3.338-1.387A4.706 4.706 0 010 69.26V5.743c0-1.3.532-2.483 1.387-3.339a4.715 4.715 0 013.339-1.387h47.777c1.3 0 2.479.532 3.338 1.387a4.71 4.71 0 011.383 3.339v34.693h14.068A3.704 3.704 0 0175 44.148a3.69 3.69 0 01-1.08 2.612A3.692 3.692 0 0175 49.372a3.695 3.695 0 01-1.192 2.728c.602.66.968 1.536.968 2.5a3.688 3.688 0 01-1.08 2.611 3.705 3.705 0 01.004 5.224 3.697 3.697 0 011.076 2.612 3.685 3.685 0 01-1.08 2.612 3.691 3.691 0 011.08 2.612 3.688 3.688 0 01-1.088 2.624c-.714.714-1.62 1.075-2.624 1.088h-25.75zm2.632-45.622a4.992 4.992 0 01-3.546-1.47 4.995 4.995 0 01-1.466-3.542c0-1.387.56-2.641 1.466-3.546.91-.91 2.16-1.47 3.546-1.47a5 5 0 013.546 1.47 4.999 4.999 0 011.466 3.546c0 1.383-.56 2.637-1.466 3.542a5 5 0 01-3.546 1.47zm-1.993-3.023a2.812 2.812 0 003.982 0 2.808 2.808 0 000-3.982 2.812 2.812 0 00-4.804 1.993c0 .776.316 1.478.822 1.989zm-36.673.826a2.8 2.8 0 001.989-.826c.51-.511.826-1.213.826-1.99 0-.78-.316-1.482-.826-1.992a2.795 2.795 0 00-1.99-.827c-.78 0-1.482.316-1.993.826a2.82 2.82 0 001.994 4.809zm3.541.727a4.982 4.982 0 01-3.541 1.47 4.992 4.992 0 01-3.547-1.47 5 5 0 01-1.47-3.542c0-1.387.565-2.641 1.47-3.546.91-.91 2.16-1.47 3.547-1.47 1.382 0 2.636.56 3.541 1.47.91.905 1.47 2.16 1.47 3.546a4.98 4.98 0 01-1.47 3.542zm58.47 18.768c.41 0 .78-.145 1.071-.44a1.517 1.517 0 00-.004-2.142 1.507 1.507 0 00-1.067-.445H45.539a4.126 4.126 0 00-2.915 1.213 4.127 4.127 0 00-1.212 2.915 4.13 4.13 0 001.212 2.915 4.126 4.126 0 002.915 1.212h25.753c.415 0 .793-.17 1.067-.444a1.516 1.516 0 00.004-2.142c-.29-.295-.66-.44-1.071-.44h-23.37c-.606 0-1.1-.495-1.1-1.101s.494-1.1 1.1-1.1h23.37zm-.224 10.452c.025 0 .05 0 .075.004a1.517 1.517 0 001.436-1.516c0-.42-.17-.797-.444-1.071a1.497 1.497 0 00-1.063-.444H45.315a4.119 4.119 0 00-2.915 1.212 4.119 4.119 0 00-1.213 2.915 4.11 4.11 0 001.213 2.911 4.102 4.102 0 002.915 1.212h25.748c.42 0 .798-.166 1.072-.44a1.516 1.516 0 000-2.146 1.494 1.494 0 00-.993-.44H47.698a1.099 1.099 0 110-2.197h23.37zm0 10.451c.41 0 .776-.15 1.067-.44a1.52 1.52 0 000-2.147 1.506 1.506 0 00-1.072-.44H45.316a4.099 4.099 0 00-2.915 1.213 4.11 4.11 0 00-1.212 2.91c0 1.134.465 2.168 1.212 2.915a4.119 4.119 0 002.915 1.213h25.749c.419 0 .797-.17 1.07-.444a1.51 1.51 0 00.445-1.072c0-.419-.17-.797-.444-1.07a1.47 1.47 0 00-1.067-.441h-23.37a1.098 1.098 0 110-2.197h23.37zM55.027 40.436V16.265H2.197V69.26a2.536 2.536 0 002.529 2.525H40.53a6.294 6.294 0 01.316-8.591c.278-.282.585-.536.913-.76a6.148 6.148 0 01-.913-.76 6.39 6.39 0 01-1.071-1.416 20.156 20.156 0 01-4.996 2.658 20.137 20.137 0 01-6.818 1.191 20.022 20.022 0 01-14.201-5.884 20.019 20.019 0 01-5.884-14.196c0-5.548 2.25-10.568 5.884-14.202a20.021 20.021 0 0114.201-5.883c5.054 0 9.675 1.872 13.209 4.962a20.078 20.078 0 016.548 11.53h7.308zm-9.538 0a17.873 17.873 0 00-5.76-9.883 17.807 17.807 0 00-11.767-4.41 17.84 17.84 0 00-12.648 5.236 17.83 17.83 0 00-5.236 12.649c0 4.937 2.001 9.409 5.236 12.643a17.824 17.824 0 0012.648 5.24 17.9 17.9 0 006.08-1.054 17.986 17.986 0 005.007-2.79 6.307 6.307 0 011.798-5.323 6.25 6.25 0 011.03-.835 6.307 6.307 0 01-.806-.681 6.59 6.59 0 01-1.092-1.458 13.35 13.35 0 01-2.6 3.675 13.292 13.292 0 01-9.417 3.9 13.274 13.274 0 01-9.417-3.9 13.278 13.278 0 01-3.904-9.417c0-3.68 1.491-7.01 3.904-9.418a13.158 13.158 0 012.528-1.985c2.01-1.258 4.526-1.918 6.89-1.918 2.503 0 4.85.693 6.85 1.898.893.51 1.836 1.274 2.567 2.005a13.289 13.289 0 013.778 7.6 6.3 6.3 0 014.331-1.774zM41.42 9.742a1.099 1.099 0 110-2.197h9.543a1.099 1.099 0 010 2.197H41.42zm-35.1 0c-.605 0-1.1-.495-1.1-1.1a1.1 1.1 0 011.1-1.097h1.143a1.099 1.099 0 010 2.197H6.32zm13.16 0a1.099 1.099 0 110-2.197h1.142a1.099 1.099 0 010 2.197H19.48zm-6.582 0a1.099 1.099 0 010-2.197h1.142a1.099 1.099 0 110 2.197h-1.142zm9.854 24.457v3.28c0 .793.328 1.516.851 2.04a2.882 2.882 0 002.039.85h4.638a2.9 2.9 0 002.89-2.89V34.2a11.053 11.053 0 00-5.207-1.296c-1.885 0-3.658.47-5.211 1.296zm12.615 1.528v1.752c0 1.4-.57 2.67-1.491 3.592a5.072 5.072 0 01-3.596 1.495h-4.638a5.07 5.07 0 01-3.592-1.495 5.069 5.069 0 01-1.495-3.592v-1.752a11.76 11.76 0 00-.457.436 11.076 11.076 0 00-3.26 7.865c0 3.068 1.247 5.85 3.26 7.86a11.076 11.076 0 007.865 3.26c3.069 0 5.85-1.246 7.865-3.26a11.088 11.088 0 003.255-7.86 11.09 11.09 0 00-3.716-8.301zm19.661-21.659V5.743c0-.694-.282-1.325-.743-1.786a2.518 2.518 0 00-1.782-.743H4.725a2.536 2.536 0 00-2.528 2.529v8.325h52.83z" fill="#000"/></g><defs><clipPath id="clip0"><path fill="#fff" d="M0 0h75v75H0z"/></clipPath></defs></svg>