<svg width="94" height="75" fill="none" xmlns="http://www.w3.org/2000/svg"><circle cx="61.5" cy="39.5" r="32.5" fill="#fff"/><g clip-path="url(#clip0)"><path fill-rule="evenodd" clip-rule="evenodd" d="M3.764 24.262c-.78 0-1.138.345-1.138 1.138v14.994a7.027 7.027 0 007.026 7.03l11.365-.236V24.262H3.764z" fill="#9DC6FB"/><path fill-rule="evenodd" clip-rule="evenodd" d="M8.012 47.23c.44.103.892.17 1.362.186h.573l11.07-.228V24.262h-7.595v16.124a7.032 7.032 0 01-5.41 6.843z" fill="#E1EFFF"/><path fill-rule="evenodd" clip-rule="evenodd" d="M32.872 47.424H9.652a7.03 7.03 0 007.03-7.03V8.126a7.026 7.026 0 017.03-7.026l7.03.096 2.13 46.228z" fill="#B6D7FF"/><path fill-rule="evenodd" clip-rule="evenodd" d="M32.871 47.424h-5.688V8.126a7.032 7.032 0 00-5.253-6.801 7.196 7.196 0 011.782-.225l7.03.096 2.13 46.228z" fill="#9DC6FB"/><path fill-rule="evenodd" clip-rule="evenodd" d="M72.378 72.766V8.126a7.026 7.026 0 00-7.03-7.026H23.712a7.026 7.026 0 017.026 7.026v64.64c0 .776.382.963 1.034.664l3.135-1.432a2.43 2.43 0 012.072 0l3.135 1.432c.714.328 1.403.303 2.068 0l3.135-1.432a2.428 2.428 0 012.072 0l3.135 1.432a2.404 2.404 0 002.068 0l3.135-1.432c.73-.337 1.395-.308 2.072 0l3.13 1.432c.744.34 1.425.295 2.073 0l3.135-1.432a2.42 2.42 0 012.068 0l3.135 1.432c.76.345 1.038.133 1.038-.664z" fill="#F5FAFF"/><path fill-rule="evenodd" clip-rule="evenodd" d="M72.377 72.766V8.126a7.026 7.026 0 00-7.03-7.026h-3.554a7.023 7.023 0 017.026 7.026V72.28l2.52 1.15c.76.345 1.038.133 1.038-.664z" fill="#E1EFFF"/><path fill-rule="evenodd" clip-rule="evenodd" d="M38.033 57.029h4.123c.627 0 1.138.51 1.138 1.137v4.124a1.14 1.14 0 01-1.137 1.137h-4.124a1.14 1.14 0 01-1.138-1.137v-4.124a1.14 1.14 0 011.138-1.137zm0-22.751h4.123c.627 0 1.138.51 1.138 1.138v4.123a1.14 1.14 0 01-1.137 1.137h-4.124a1.142 1.142 0 01-1.138-1.137v-4.123a1.14 1.14 0 011.138-1.138zm0 11.373h4.123c.627 0 1.138.515 1.138 1.138v4.123a1.14 1.14 0 01-1.137 1.138h-4.124a1.14 1.14 0 01-1.138-1.138V46.79c0-.623.511-1.138 1.138-1.138z" fill="#298AFF"/><path d="M29.642 62.68a1.099 1.099 0 112.196 0v9.517l3.65-1.669c.299-.137.631-.125.91 0l4.75 2.172 4.75-2.172c.299-.137.631-.125.91 0l4.75 2.172 4.75-2.172c.299-.137.631-.125.91 0l4.75 2.172 4.75-2.172c.299-.137.631-.125.91 0l3.65 1.67V8.125a5.91 5.91 0 00-1.737-4.19 5.913 5.913 0 00-4.194-1.74h-36.08a8.109 8.109 0 012.571 5.93V57.7a1.099 1.099 0 11-2.197 0v-9.18H9.652a8.114 8.114 0 01-5.747-2.38 8.107 8.107 0 01-2.38-5.747v-5.576a1.1 1.1 0 012.198 0v5.576a5.91 5.91 0 001.74 4.194 5.91 5.91 0 004.19 1.736 5.927 5.927 0 005.93-5.93V25.36H3.722v4.48a1.099 1.099 0 11-2.197 0v-5.577c0-.61.494-1.1 1.1-1.1h12.956V16.95a1.099 1.099 0 112.197 0v23.444c0 2.242-.91 4.277-2.38 5.747-.062.062-.125.12-.187.183h14.43V8.126a5.897 5.897 0 00-1.74-4.19 5.896 5.896 0 00-4.19-1.74 5.9 5.9 0 00-4.194 1.74 5.896 5.896 0 00-1.74 4.19v3.845c0 .61-.49 1.1-1.096 1.1a1.1 1.1 0 01-1.1-1.1V8.126a8.1 8.1 0 012.383-5.747A8.098 8.098 0 0123.712 0h41.636c2.242 0 4.276.91 5.746 2.38a8.113 8.113 0 012.38 5.746v65.778c0 .78-.827 1.324-1.553.996l-4.75-2.171-4.75 2.167a1.085 1.085 0 01-.91.004l-4.75-2.171-4.747 2.167c-.282.129-.61.141-.913.004l-4.75-2.171-4.747 2.167c-.278.129-.61.141-.913.004l-4.746-2.171-4.663 2.13a1.094 1.094 0 01-.544.141c-.607 0-1.096-.49-1.096-1.096V62.68zm7.254-6.752h6.398c.607 0 1.097.494 1.097 1.1v6.4c0 .606-.49 1.096-1.097 1.096h-6.398c-.607 0-1.1-.49-1.1-1.097V57.03a1.1 1.1 0 011.1-1.1zm5.298 2.197h-4.202v4.202h4.202v-4.202zm-5.298-13.57h6.398c.607 0 1.097.49 1.097 1.096v6.399c0 .606-.49 1.1-1.097 1.1h-6.398c-.607 0-1.1-.494-1.1-1.1v-6.4c0-.606.493-1.096 1.1-1.096zm5.298 2.197h-4.202v4.202h4.202V46.75zm-5.298-13.575h6.398a1.1 1.1 0 011.097 1.1v6.4c0 .606-.49 1.096-1.097 1.096h-6.398c-.607 0-1.1-.49-1.1-1.096v-6.4c0-.605.493-1.1 1.1-1.1zm5.298 2.197h-4.202v4.202h4.202v-4.202zm5.311 27.941a1.099 1.099 0 010-2.197h16.036a1.099 1.099 0 110 2.197H47.505zm0-3.978a1.099 1.099 0 01-1.096-1.1c0-.606.49-1.1 1.096-1.1h19.59c.607 0 1.101.494 1.101 1.1 0 .606-.494 1.1-1.1 1.1H47.505zm0-7.395a1.099 1.099 0 010-2.197h16.036a1.099 1.099 0 110 2.197H47.505zm0-3.982c-.606 0-1.096-.49-1.096-1.1 0-.607.49-1.097 1.096-1.097h19.59a1.099 1.099 0 110 2.197h-19.59zm0-7.395a1.099 1.099 0 010-2.197h16.036a1.099 1.099 0 110 2.197H47.505zm0-3.983a1.099 1.099 0 010-2.197h19.59a1.099 1.099 0 110 2.197h-19.59z" fill="#000"/><path d="M45.598 18.324h1.804v-7.441h5.04c.687 0 1.32.12 1.898.363a4.666 4.666 0 011.523.973c.438.406.774.89 1.008 1.453.242.555.363 1.144.363 1.77 0 .624-.12 1.218-.363 1.78a4.267 4.267 0 01-1.008 1.454c-.43.406-.937.73-1.523.972a5.006 5.006 0 01-1.9.352h-3.117v1.922h4.559v1.676h-4.559V26h-1.922v-2.402h-1.804v-1.676h1.804V20h-1.804v-1.676zm6.843 0c.852 0 1.543-.27 2.075-.808.539-.54.808-1.23.808-2.075 0-.851-.265-1.543-.797-2.074-.53-.539-1.226-.808-2.086-.808h-3.117v5.765h3.117z" fill="#000"/></g><defs><clipPath id="clip0"><path fill="#fff" d="M0 0h75v75H0z"/></clipPath></defs></svg>