<svg width="63" height="63" fill="none" xmlns="http://www.w3.org/2000/svg"><path d="M38.2 62.077h4.9a2.65 2.65 0 100-5.3h-4.9a2.65 2.65 0 100 5.3zm21.239-15.942h-4.1V28.872c0-13.149-10.69-23.847-23.83-23.847-13.14 0-23.83 10.698-23.83 23.847v17.263h-4.1V28.872C3.58 13.461 16.11.922 31.51.922s27.93 12.539 27.93 27.95v17.263z" fill="#195399"/><path d="M10.308 28.415H6.14a5.218 5.218 0 00-5.217 5.217v8.918a5.218 5.218 0 005.217 5.218h4.168V28.414z" fill="#195399"/><path d="M10.308 25.69a2.564 2.564 0 012.564 2.564v19.357a2.564 2.564 0 01-5.128 0V28.254a2.564 2.564 0 012.564-2.564zm42.384 21.76h4.168a5.217 5.217 0 005.217-5.217v-8.917a5.218 5.218 0 00-5.217-5.218h-4.168v19.353z" fill="#195399"/><path d="M52.692 50.175a2.564 2.564 0 01-2.564-2.564V28.254a2.564 2.564 0 115.128 0v19.357a2.564 2.564 0 01-2.564 2.564z" fill="#195399"/><path d="M31.5 25.255c7.144 0 12.935 5.79 12.935 12.932 0 3.766-1.61 7.156-4.18 9.52v3.41l-3.085-1.304a12.883 12.883 0 01-5.67 1.307c-7.144 0-12.935-5.79-12.935-12.933 0-7.142 5.791-12.932 12.935-12.932z" fill="#298AFF"/><path d="M31.5 25.255c-.842 0-1.664.08-2.461.234 5.967 1.149 10.474 6.397 10.474 12.698 0 6.171-4.627 11.515-10.51 12.692.808.158 1.643.24 2.497.24 2.034 0 3.958-.47 5.67-1.306l3.085 1.303v-3.41a12.896 12.896 0 004.18-9.519c0-7.142-5.791-12.932-12.935-12.932zM44.733.923c-6.078 0-11.005 4.926-11.005 11.003 0 3.204 1.37 6.088 3.556 8.099v2.9l2.624-1.108a10.961 10.961 0 004.825 1.112c6.078 0 11.005-4.926 11.005-11.003S50.81.923 44.733.923z" fill="#298AFF"/><path d="M44.733.923c-.846 0-1.67.095-2.461.276 4.893 1.118 8.544 5.496 8.544 10.727 0 5.23-3.65 9.609-8.543 10.726.79.181 1.614.277 2.46.277 6.078 0 11.005-4.926 11.005-11.003S50.81.923 44.733.923z" fill="#298AFF"/><path d="M60.356 28.27a28.822 28.822 0 00-3.936-13.954c.158-.772.24-1.572.24-2.39C56.66 5.35 51.31 0 44.734 0c-1.888 0-3.675.441-5.264 1.225 0 0-4.578-1.224-7.704-1.224-3.278 0-6.5.49-9.576 1.544a28.766 28.766 0 00-8.197 4.399c-.963.738.2 2.172 1.123 1.465a26.921 26.921 0 017.672-4.117 26.883 26.883 0 018.962-1.445c1.918.016 3.825.236 5.683.654a12.035 12.035 0 00-1.961 1.918 24.906 24.906 0 00-3.962-.317c-13.186 0-23.997 10.371-24.715 23.39-.757-.037-1.537.016-2.268.215.254-6.117 2.586-12.046 6.49-16.419.794-.89-.583-2.119-1.377-1.229-4.386 4.914-6.922 11.648-6.981 18.519A6.139 6.139 0 000 33.632v8.918c0 3.941 3.356 6.232 6.992 6.14a3.493 3.493 0 003.316 2.408 3.49 3.49 0 003.486-3.487V28.254a3.49 3.49 0 00-4.875-3.198C10.74 14.226 20.177 5.948 31.51 5.948c.938 0 1.879.058 2.808.172a11.85 11.85 0 00-1.512 5.806c0 3.188 1.292 6.26 3.557 8.494v2.506c.123.742.55 1.025 1.282.85l2.246-.949a11.814 11.814 0 004.843 1.025c3.149 0 6.017-1.227 8.15-3.227a22.63 22.63 0 011.219 4.44 3.49 3.49 0 00-4.896 3.189v19.358a3.49 3.49 0 003.486 3.486 3.47 3.47 0 001.686-.435 71.89 71.89 0 01-.051 2.438c-.22 2.644-2.259 4.864-4.859 5.292-.826.082-1.768.113-2.92.097a3.579 3.579 0 00-3.448-2.635h-4.9a3.577 3.577 0 00-3.572 3.573A3.576 3.576 0 0038.2 63h4.9a3.579 3.579 0 003.456-2.665c1.041.014 2.144.05 3.178-.115 3.448-.552 6.203-3.492 6.482-6.99v-.037c.065-1.606.016-3.228 0-4.82 3.567.174 6.784-2.426 6.784-6.14v-8.917a6.138 6.138 0 00-2.644-5.046zM1.846 42.55v-8.918c0-2.69 2.367-4.44 4.91-4.294v17.507c-2.544.14-4.91-1.596-4.91-4.295zm8.462-15.937c.905 0 1.64.736 1.64 1.641v19.357c0 .905-.735 1.641-1.64 1.641a1.643 1.643 0 01-1.641-1.64V28.253c0-.905.736-1.64 1.64-1.64zM43.1 61.154h-4.9a1.729 1.729 0 01-1.727-1.727c0-.952.775-1.726 1.727-1.726h4.9c.952 0 1.727.774 1.727 1.727 0 .952-.775 1.726-1.727 1.726zm15.376-33.763c-.733-.2-1.514-.253-2.271-.216a24.526 24.526 0 00-1.95-8.074 11.937 11.937 0 001.387-2.353 26.99 26.99 0 012.834 10.643zm-13.743-5.385a9.986 9.986 0 01-4.42-1.018.923.923 0 00-.764-.02l-1.342.566v-1.51a.923.923 0 00-.298-.679 10.108 10.108 0 01-3.258-7.42c0-5.557 4.523-10.08 10.082-10.08 5.56 0 10.082 4.523 10.082 10.08 0 5.559-4.523 10.08-10.082 10.08zm16.421 20.227c0 2.72-2.4 4.45-4.959 4.295a220.23 220.23 0 01-.016-2.975c0-1.194-1.846-1.194-1.846 0v4.058c0 .905-.736 1.641-1.64 1.641a1.643 1.643 0 01-1.642-1.64V28.253a1.642 1.642 0 013.282 0V38.64c0 1.193 1.846 1.193 1.846 0v-9.62c2.564-.145 4.975 1.552 4.975 4.295v8.917z" fill="#fff"/><path d="M39.896 51.966c.731.176 1.159-.108 1.282-.85v-3.013a13.896 13.896 0 004.18-9.916c0-7.64-6.216-13.855-13.858-13.855-7.641 0-13.857 6.215-13.857 13.855 0 7.64 6.216 13.856 13.857 13.856 1.987 0 3.899-.41 5.69-1.22l2.706 1.143zm-3.13-2.982a11.897 11.897 0 01-5.266 1.213c-6.623 0-12.012-5.388-12.012-12.01s5.389-12.01 12.012-12.01c6.624 0 12.012 5.388 12.012 12.01 0 3.349-1.415 6.57-3.882 8.84a.923.923 0 00-.298.68v2.017l-1.802-.76a.922.922 0 00-.764.02z" fill="#fff"/><path d="M29.032 33.934h4.936c1.194 0 1.194-1.846 0-1.846h-4.936c-1.194 0-1.194 1.846 0 1.846zm4.936 8.506h-4.936c-1.194 0-1.194 1.846 0 1.846h4.936c1.194 0 1.194-1.845 0-1.845zm2.642-5.176H26.39c-1.193 0-1.193 1.846 0 1.846h10.22c1.193 0 1.193-1.846 0-1.846zm8.204-32.381c-2.18-.042-4.023 1.761-4.023 3.941 0 1.193 1.846 1.193 1.846 0 0-1.136 1-2.12 2.14-2.096a2.101 2.101 0 012.05 1.984c.06 1.184-.906 2.209-2.094 2.209a.923.923 0 00-.923.922V15a.923.923 0 101.846 0v-2.345c1.823-.442 3.11-2.165 3.013-4.04a3.953 3.953 0 00-3.855-3.732zm-.081 12.362c-1.188 0-1.19 1.846 0 1.846 1.187 0 1.19-1.846 0-1.846z" fill="#fff"/></svg>