<svg width="63" height="63" fill="none" xmlns="http://www.w3.org/2000/svg"><path d="M62.077 4.483v14.572a3.56 3.56 0 01-3.56 3.56H46.743l-3.732 3.292v-3.293h-3.059a3.56 3.56 0 01-3.56-3.56V4.484a3.56 3.56 0 013.56-3.56h18.565a3.56 3.56 0 013.56 3.56z" fill="#195399"/><path d="M58.518.923h-4.922a3.56 3.56 0 013.56 3.56v14.571a3.56 3.56 0 01-3.56 3.56h4.922a3.56 3.56 0 003.56-3.56V4.483a3.56 3.56 0 00-3.56-3.56z" fill="#195399"/><path d="M10.273 8.99l9.464 4.675 4.652 9.391-1.876 1.87a4.902 4.902 0 000 6.95l8.612 8.58a4.944 4.944 0 006.975 0l1.876-1.869 9.259 4.76 4.857 9.305c-5.86 5.84-15.362 5.84-21.222 0L10.273 30.137c-5.86-5.84-5.86-15.307 0-21.146z" fill="#298AFF"/><path d="M24.389 23.056L10.273 8.991l1.791-1.785a4.252 4.252 0 015.998 0l8.113 8.084a4.223 4.223 0 010 5.986l-1.786 1.78zm29.703 29.597L39.976 38.587l1.791-1.784a4.252 4.252 0 015.999 0l8.113 8.084a4.223 4.223 0 010 5.986l-1.787 1.78z" fill="#298AFF"/><path d="M54.092 52.653L39.976 38.587l1.791-1.784a4.252 4.252 0 015.999 0l8.113 8.084a4.223 4.223 0 010 5.986l-1.787 1.78z" fill="#298AFF"/><path d="M.923 58.517V43.945a3.56 3.56 0 013.56-3.56h11.774l3.732-3.292v3.293h3.06a3.56 3.56 0 013.559 3.56v14.571a3.56 3.56 0 01-3.56 3.56H4.483a3.56 3.56 0 01-3.56-3.56z" fill="#195399"/><path d="M23.048 40.386h-3.06v-3.293l-3.73 3.293h1.868a3.56 3.56 0 013.56 3.56v14.571a3.56 3.56 0 01-3.56 3.56h4.922a3.56 3.56 0 003.56-3.56V43.945a3.56 3.56 0 00-3.56-3.56z" fill="#195399"/><path d="M58.517 0H39.952a4.488 4.488 0 00-4.483 4.483v14.572a4.488 4.488 0 004.483 4.482h2.137v2.37c0 .773.938 1.217 1.533.692l3.47-3.062h11.425A4.488 4.488 0 0063 19.055V4.483A4.488 4.488 0 0058.517 0zm2.637 19.054a2.64 2.64 0 01-2.637 2.637H46.743a.922.922 0 00-.61.231l-2.199 1.94v-1.248a.923.923 0 00-.922-.923h-3.06a2.64 2.64 0 01-2.637-2.637V4.483a2.64 2.64 0 012.637-2.637h18.566a2.64 2.64 0 012.636 2.637v14.571zM25.54 8.474a.92.92 0 00.652-.27l2.633-2.624c.845-.842-.458-2.15-1.303-1.307l-2.633 2.624c-.549.548-.124 1.577.652 1.577zm-3.028-1.27c.462.04.96-.38 1.002-.838l.33-3.702c.105-1.189-1.733-1.353-1.84-.164l-.329 3.703a.923.923 0 00.837 1zm3.552 3.29c.04.458.537.88.998.84l3.704-.317c1.19-.103 1.03-1.938-.158-1.84l-3.704.319a.923.923 0 00-.84.998zM55.61 37.622l2.632-2.625c.845-.842-.458-2.149-1.303-1.307l-2.633 2.625c-.845.842.458 2.149 1.303 1.307zm-3.598-.998a.923.923 0 00.919-.84l.33-3.703c.105-1.189-1.733-1.352-1.84-.164l-.329 3.703c-.043.487.43 1.004.92 1.004zm8.013 1.971l-3.703.318c-1.166.1-.978 1.936.157 1.839l3.704-.318c1.19-.102 1.03-1.94-.158-1.84zm-11.608-2.446a5.182 5.182 0 00-7.301 0l-3.667 3.654a4.026 4.026 0 01-5.673 0l-8.612-8.581c-1.543-1.538-1.543-4.105 0-5.643l3.663-3.65c1.987-1.98 1.987-5.312 0-7.293l-8.113-8.084a5.182 5.182 0 00-7.301 0L9.62 8.337a15.744 15.744 0 00-4.667 11.227c0 4.241 1.658 8.228 4.667 11.227l7.569 7.541-1.282 1.13H4.483A4.488 4.488 0 000 43.947v14.572A4.488 4.488 0 004.483 63h18.565a4.488 4.488 0 004.483-4.483v-9.881l4.687 4.67a15.833 15.833 0 008.742 4.45c1.145.183 1.445-1.639.29-1.822a13.997 13.997 0 01-7.729-3.935l-5.99-5.969v-2.084a4.488 4.488 0 00-4.483-4.483h-2.136v-2.37c0-.78-.95-1.207-1.534-.692l-.801.707-7.653-7.625a13.912 13.912 0 01-4.124-9.92c0-3.438 1.234-6.689 3.494-9.249l2.297 2.29c.846.842 2.148-.466 1.303-1.308L11.58 8.991l1.135-1.131a3.333 3.333 0 014.696 0l8.113 8.084c1.269 1.264 1.271 3.411 0 4.678l-1.135 1.131-6.733-6.709c-.845-.842-2.148.466-1.303 1.308l6.728 6.704-1.22 1.215c-2.25 2.243-2.25 6.015 0 8.258l8.613 8.581a5.875 5.875 0 008.277 0l1.225-1.22 12.787 12.741a14.042 14.042 0 01-6.19 3.138c-1.149.256-.71 2.048.402 1.801a15.897 15.897 0 007.769-4.264l1.786-1.78c1.987-1.98 1.988-5.313 0-7.293l-8.113-8.084zm-28.429 5.16h3.06a2.64 2.64 0 012.637 2.637v14.572a2.64 2.64 0 01-2.637 2.636H4.483a2.64 2.64 0 01-2.637-2.637V43.946a2.64 2.64 0 012.637-2.637h11.774a.923.923 0 00.61-.231l2.199-1.94v1.248c0 .51.413.923.922.923zm35.24 8.91l-1.136 1.13-12.808-12.762 1.135-1.13a3.333 3.333 0 014.695 0l8.113 8.083c1.269 1.264 1.272 3.412 0 4.679z" fill="#fff"/><path d="M56.071 8.024H42.398c-1.193 0-1.193 1.846 0 1.846h13.673c1.193 0 1.193-1.846 0-1.846zm-4.921 5.662h-8.752c-1.193 0-1.193 1.846 0 1.846h8.751c1.194 0 1.194-1.846 0-1.846zM6.006 48.649c0 .51.413.923.923.923h13.673c1.193 0 1.193-1.846 0-1.846H6.929a.923.923 0 00-.923.923zm9.674 4.74H6.93c-1.194 0-1.194 1.845 0 1.845h8.75c1.193 0 1.193-1.846 0-1.846z" fill="#fff"/></svg>