<svg width="47" height="47" fill="none" xmlns="http://www.w3.org/2000/svg"><path d="M23.5 47C36.479 47 47 36.479 47 23.5S36.479 0 23.5 0 0 10.521 0 23.5 10.521 47 23.5 47z" fill="url(#paint0_linear)"/><path d="M8.752 24.65c2.747-1.514 5.813-2.777 8.679-4.046 4.929-2.08 9.878-4.122 14.877-6.024.972-.325 2.72-.642 2.891.8-.094 2.04-.48 4.068-.744 6.097-.672 4.46-1.449 8.905-2.206 13.35-.261 1.481-2.116 2.248-3.303 1.3-2.853-1.927-5.727-3.835-8.543-5.806-.923-.937-.067-2.284.757-2.953 2.349-2.315 4.84-4.282 7.067-6.717.6-1.45-1.174-.228-1.76.146-3.216 2.217-6.353 4.568-9.744 6.516-1.732.954-3.751.139-5.483-.393-1.552-.643-3.827-1.29-2.488-2.27z" fill="#fff"/><defs><linearGradient id="paint0_linear" x1="17.628" y1="1.96" x2="5.878" y2="29.375" gradientUnits="userSpaceOnUse"><stop stop-color="#37AEE2"/><stop offset="1" stop-color="#1E96C8"/></linearGradient></defs></svg>