<svg width="47" height="47" fill="none" xmlns="http://www.w3.org/2000/svg"><path d="M23.5 0C36.479 0 47 10.521 47 23.5S36.479 47 23.5 47 0 36.479 0 23.5 10.521 0 23.5 0z" fill="#7F4DA0"/><path d="M29.761 20.522c-.114-.929-.4-1.658-.906-2.304-.659-.831-1.5-1.33-2.745-1.625-.811-.197-1.14-.174-1.433.094-.273.251-.326.755-.117 1.08.146.238.316.322.787.415.628.115 1.062.265 1.456.49.838.485 1.228 1.241 1.27 2.467.02.575.07.752.27.956a.865.865 0 001.317-.146c.103-.168.118-.241.13-.632a6.218 6.218 0 00-.029-.795z" fill="#fff"/><path d="M33.042 21.569c-.166-2.845-1.279-5.134-3.27-6.744-1.122-.905-2.478-1.527-3.965-1.83-.544-.108-1.547-.196-1.719-.146a1.056 1.056 0 00-.494.381c-.108.173-.133.558-.04.78.149.372.426.504 1.202.572 1.197.104 2.43.525 3.363 1.147a7.055 7.055 0 012.459 2.817c.473.979.764 2.39.756 3.652-.003.457.068.715.251.903a.844.844 0 001.038.161c.396-.208.488-.573.419-1.693zm3.63 10.955a3.119 3.119 0 00-.278-.557c-.585-.883-3.725-3.34-5.292-4.143-.895-.46-1.559-.614-2.05-.47-.529.15-.807.395-1.693 1.496-.357.441-.724.855-.821.92-.241.167-.714.302-1.048.302-.775-.005-2.18-.507-3.26-1.166-.84-.511-1.916-1.426-2.742-2.332-.974-1.064-1.637-2.002-2.161-3.061-.677-1.361-.849-2.193-.566-2.801a2.27 2.27 0 01.204-.367c.042-.046.478-.404.96-.794.946-.753 1.1-.925 1.276-1.44.222-.655.162-1.324-.181-1.998-.265-.51-.956-1.625-1.457-2.345-.663-.948-2.314-2.973-2.643-3.247-.594-.483-1.355-.567-2.194-.242-.886.344-2.546 1.682-3.256 2.616-.64.845-.886 1.444-.923 2.234-.032.65.023.92.366 1.75 2.686 6.522 6.693 11.73 12.198 15.864 2.876 2.16 5.858 3.804 8.952 4.928 1.804.655 2.588.688 3.51.149.39-.233 1.355-1.222 1.893-1.942.89-1.198 1.22-1.751 1.313-2.192.064-.302.013-.827-.107-1.162z" fill="#fff"/><path d="M36.382 22.222c-.06-1.61-.33-2.929-.896-4.4-.557-1.448-1.122-2.393-2.188-3.67-1.008-1.198-1.79-1.882-3.032-2.644-1.733-1.06-3.84-1.763-6.203-2.058-.806-.103-.988-.096-1.235.07-.48.312-.473 1.091.007 1.399.16.098.3.133.945.218.99.133 1.625.258 2.38.464 2.96.81 5.237 2.463 6.759 4.919 1.273 2.046 1.802 4.093 1.727 6.707-.026.883-.008 1.039.128 1.251.258.396.94.474 1.29.146.218-.2.26-.35.302-1.107a19.9 19.9 0 00.016-1.295z" fill="#fff"/></svg>