<svg width="47" height="47" fill="none" xmlns="http://www.w3.org/2000/svg"><path d="M23.5 47C36.479 47 47 36.479 47 23.5S36.479 0 23.5 0 0 10.521 0 23.5 10.521 47 23.5 47z" fill="#25D366"/><path fill-rule="evenodd" clip-rule="evenodd" d="M24.274 36.574h-.005c-2.34 0-4.637-.587-6.678-1.7l-7.408 1.943 1.982-7.241A13.949 13.949 0 0110.3 22.59c.003-7.705 6.272-13.973 13.974-13.973a13.883 13.883 0 019.885 4.098 13.89 13.89 0 014.09 9.886c-.004 7.703-6.27 13.97-13.975 13.973zm-6.34-4.23l.424.251a11.597 11.597 0 005.912 1.62h.004c6.402 0 11.612-5.211 11.615-11.615a11.545 11.545 0 00-3.399-8.217 11.536 11.536 0 00-8.211-3.406c-6.407 0-11.617 5.21-11.62 11.613 0 2.195.614 4.332 1.776 6.181l.276.44-1.173 4.286 4.396-1.153zm12.902-6.735c.244.118.408.197.478.315.087.145.087.844-.203 1.66-.291.816-1.686 1.56-2.357 1.66-.602.09-1.363.128-2.2-.138a20.082 20.082 0 01-1.99-.736c-3.273-1.413-5.485-4.586-5.903-5.185a4.493 4.493 0 00-.061-.087l-.003-.004c-.185-.246-1.423-1.898-1.423-3.608 0-1.608.79-2.451 1.154-2.84l.068-.073c.32-.35.698-.437.931-.437.233 0 .466.003.67.013h.077c.204 0 .457-.002.708.6l.386.935c.3.732.632 1.54.69 1.657.088.174.146.378.03.611l-.05.1c-.087.178-.151.31-.3.483-.058.068-.118.141-.179.215-.12.146-.24.292-.345.397-.174.174-.356.363-.153.712.204.35.905 1.493 1.943 2.419a9.015 9.015 0 002.577 1.629c.096.042.174.075.23.104.35.175.553.146.757-.087.204-.233.873-1.02 1.106-1.37.232-.349.465-.29.785-.174.32.116 2.037.961 2.386 1.136l.191.093z" fill="#FDFDFD"/></svg>