<svg width="29" height="28" viewBox="0 0 29 28" fill="none" xmlns="http://www.w3.org/2000/svg">
<path d="M7.6167 25.1553V20.638C7.6167 20.3432 7.4494 20.0732 7.18487 19.9424C3.04314 17.8951 2.17717 14.4334 2.17717 11.8566C2.17717 6.40265 7.27663 2.17717 14.2358 2.17717C21.195 2.17717 26.2937 6.40262 26.2937 11.8566C26.2937 17.3105 21.1943 21.5352 14.235 21.5352C14.0142 21.5352 13.7952 21.5238 13.5653 21.5109L13.5645 21.5109L13.4259 21.5034C13.2377 21.4844 13.0675 21.5495 12.9455 21.6307C12.9453 21.6308 12.9451 21.631 12.9449 21.6311L7.6167 25.1553ZM6.06533 26.5989C6.06533 26.8831 6.22157 27.1465 6.47343 27.282C6.58837 27.344 6.7154 27.375 6.84142 27.375C6.99112 27.375 7.14034 27.3314 7.26915 27.246L13.5888 23.0661C13.7973 23.077 14.0144 23.0874 14.2358 23.0874C21.916 23.0874 27.8467 18.3185 27.8467 11.8566C27.8467 5.39386 21.9161 0.625 14.2358 0.625C6.55561 0.625 0.625 5.39386 0.625 11.8566C0.625 15.9226 2.55629 19.2013 6.06533 21.1095V26.5989Z" fill="#CFDDFF" stroke="#CFDDFF" stroke-width="0.75"/>
</svg>
