<svg width="18" height="12" viewBox="0 0 18 12" fill="none" xmlns="http://www.w3.org/2000/svg">
<path d="M17.7078 5.24241C16.6976 3.94715 15.389 2.87577 13.9237 2.14417C12.4279 1.39735 10.8187 1.00986 9.13878 0.989536C9.09252 0.98827 8.90675 0.98827 8.86049 0.989536C7.18065 1.00989 5.57141 1.39735 4.07559 2.14417C2.61024 2.87577 1.30177 3.94712 0.291518 5.24241C-0.0976609 5.74139 -0.0976609 6.43836 0.291518 6.93733C1.30173 8.23259 2.61024 9.30397 4.07559 10.0356C5.57141 10.7824 7.18062 11.1699 8.86049 11.1902C8.90675 11.1915 9.09252 11.1915 9.13878 11.1902C10.8186 11.1699 12.4279 10.7824 13.9237 10.0356C15.389 9.30397 16.6975 8.23262 17.7078 6.93733C18.097 6.43829 18.097 5.74139 17.7078 5.24241ZM4.40272 9.38044C3.03444 8.69728 1.81248 7.69674 0.868923 6.48698C0.686568 6.25315 0.686568 5.92659 0.868923 5.69276C1.81244 4.48301 3.0344 3.48246 4.40272 2.79931C4.79133 2.60531 5.18818 2.43755 5.59237 2.29552C4.55252 3.23025 3.89738 4.58489 3.89738 6.08985C3.89738 7.59489 4.55255 8.94963 5.59251 9.88433C5.18832 9.7423 4.79137 9.57446 4.40272 9.38044ZM8.99967 10.4599C6.58999 10.4599 4.62961 8.49949 4.62961 6.08982C4.62961 3.68014 6.58999 1.7198 8.99967 1.7198C11.4093 1.7198 13.3697 3.68018 13.3697 6.08985C13.3697 8.49953 11.4093 10.4599 8.99967 10.4599ZM17.1304 6.48694C16.1869 7.6967 14.9649 8.69725 13.5966 9.3804C13.2085 9.57418 12.8119 9.74121 12.4082 9.8831C13.4473 8.9484 14.102 7.59419 14.102 6.08982C14.102 4.58464 13.4466 3.22983 12.4066 2.2951C12.8109 2.43716 13.2079 2.60514 13.5967 2.79923C14.9649 3.48239 16.1869 4.48294 17.1305 5.69269C17.3128 5.92655 17.3128 6.25312 17.1304 6.48694Z" fill="#8C91BA"/>
</svg>
