<svg width="11" height="13" viewBox="0 0 11 13" fill="none" xmlns="http://www.w3.org/2000/svg">
<path d="M5.44995 6.25214C6.96674 6.25214 8.19646 4.85256 8.19646 3.12609C8.19646 1.39957 7.79273 0 5.44995 0C3.10718 0 2.70337 1.39957 2.70337 3.12609C2.70337 4.85256 3.93309 6.25214 5.44995 6.25214Z" fill="#87E389"/>
<path d="M10.3692 10.9195C10.3183 7.91198 9.89916 7.05499 6.69154 6.51251C6.69154 6.51251 6.24002 7.05166 5.18762 7.05166C4.13521 7.05166 3.68361 6.51251 3.68361 6.51251C0.511001 7.04907 0.0663405 7.89335 0.00787354 10.8218C0.00307925 11.061 0.000857515 11.0735 0 11.0458C0.00019489 11.0978 0.000428671 11.194 0.000428671 11.3618C0.000428671 11.3618 0.764085 12.8044 5.18762 12.8044C9.61107 12.8044 10.3748 11.3618 10.3748 11.3618C10.3748 11.254 10.3749 11.179 10.375 11.128C10.3741 11.1452 10.3724 11.1119 10.3692 10.9195Z" fill="#87E389"/>
</svg>
