<svg width="98" height="98" fill="none" xmlns="http://www.w3.org/2000/svg"><path fill-rule="evenodd" clip-rule="evenodd" d="M69.863 20.483c8.497 1.972 11.747 6.94 15.822 13.779H69.863V20.483zM20.208 34.837c1.664 0 2.871.803 2.871 2.68a2.871 2.871 0 01-2.863 2.87H2.872a2.871 2.871 0 000 5.743h25.84a2.87 2.87 0 11.011 5.742H2.872a2.87 2.87 0 100 5.742h6.316v8.614a2.87 2.87 0 002.87 2.87h5.772a11.01 11.01 0 0010.785 8.805 11.01 11.01 0 0010.786-8.804h29.152a11.01 11.01 0 0010.785 8.804 11.01 11.01 0 0010.785-8.804h5.006A2.87 2.87 0 0098 66.227V49c0-8.424-8.885-8.983-8.894-8.996H66.992a2.87 2.87 0 01-2.87-2.871V19.906H12.058a2.87 2.87 0 00-2.871 2.871v6.317H5.742a2.87 2.87 0 100 5.742h14.466zM83.06 63.175a5.265 5.265 0 010 7.444c-3.306 3.306-8.986.954-8.986-3.722 0-4.677 5.68-7.029 8.986-3.723zm-50.723 0a5.265 5.265 0 010 7.444c-3.306 3.306-8.985.954-8.985-3.722 0-4.677 5.679-7.029 8.985-3.723z" fill="#695B5C"/></svg>