<svg width="98" height="98" fill="none" xmlns="http://www.w3.org/2000/svg"><g clip-path="url(#clip0)"><path d="M22.69 0v59.912c0 .973-.789 1.762-1.762 1.762h-9.712L49.122 98 87.03 61.674h-9.713a1.762 1.762 0 01-1.762-1.762V0H22.69zm31.718 3.524h3.525v3.524h-3.525V3.524zm-7.048 0h3.524v3.524H47.36V3.524zm-7.048 0h3.524v3.524h-3.524V3.524zM29.739 7.048h-3.524V3.524h3.524v3.524zm7.048 0h-3.524V3.524h3.524v3.524zm12.335 29.956a10.573 10.573 0 011.762 20.987v3.683H47.36v-3.682a10.584 10.584 0 01-8.81-10.415h3.524a7.049 7.049 0 107.048-7.048 10.572 10.572 0 01-10.474-9.689 10.572 10.572 0 018.712-11.298v-3.683h3.524v3.683a10.581 10.581 0 018.81 10.414h-3.523a7.048 7.048 0 10-7.049 7.048zm15.86-29.956h-3.525V3.524h3.524v3.524zm7.048 0h-3.525V3.524h3.525v3.524z" fill="#695B5C"/></g><defs><clipPath id="clip0"><path fill="#fff" d="M0 0h98v98H0z"/></clipPath></defs></svg>