<svg width="98" height="98" fill="none" xmlns="http://www.w3.org/2000/svg"><path d="M69.46 76.825H13.81a3.273 3.273 0 01-3.274-3.274V4.808a3.273 3.273 0 013.274-3.274h55.65a3.273 3.273 0 013.273 3.274V73.55a3.273 3.273 0 01-3.274 3.274z" fill="#695B5C"/><path d="M72.733 73.551V57.528c-.032.008-.067.012-.099.02a8.804 8.804 0 00-4.719-1.956l-.092-.008V39.998c0-4.964-4.038-9.002-9.002-9.002-.3 0-.604.015-.911.045-4.613.462-8.091 4.413-8.091 9.19v18.192l-3.522 3.522a13.013 13.013 0 00-3.487 12.258l.616 2.622H69.46a3.274 3.274 0 003.274-3.274z" fill="#737373"/><path d="M25.267 26.085a4.91 4.91 0 100-9.82 4.91 4.91 0 000 9.82z" fill="#fff"/><path d="M25.267 44.09a4.91 4.91 0 100-9.82 4.91 4.91 0 000 9.82z" fill="#847373"/><path d="M25.267 62.094a4.91 4.91 0 100-9.82 4.91 4.91 0 000 9.82z" fill="#646464"/><path d="M83.793 63.752a4.093 4.093 0 00-4.514 4.07V66.42c0-2.14-1.54-4.09-3.67-4.304a4.093 4.093 0 00-4.513 4.071v-1.403c0-2.14-1.54-4.091-3.67-4.304a4.093 4.093 0 00-4.514 4.07V40c0-2.4-2.065-4.317-4.514-4.072-2.13.214-3.67 2.164-3.67 4.304v20.226l-4.96 4.96a8.184 8.184 0 00-2.18 7.662l3.425 14.554a11.457 11.457 0 0011.153 8.833h13.84c6.328 0 11.457-5.13 11.457-11.458V68.056c0-2.14-1.54-4.09-3.67-4.304z" fill="#695B5C"/><path d="M64.55 68.538c.903 0 1.636-.733 1.636-1.637v-6.34c-1.864.383-3.274 2.01-3.274 3.988v2.352c0 .904.733 1.637 1.637 1.637zm8.183 1.637c.904 0 1.637-.733 1.637-1.637v-6.34c-1.864.383-3.274 2.01-3.274 3.988v2.352c0 .904.733 1.637 1.637 1.637zm8.183 1.637c.904 0 1.637-.733 1.637-1.637v-6.34c-1.864.382-3.273 2.01-3.273 3.988v2.352c0 .904.733 1.637 1.636 1.637zm-25.819 15.82l-3.794-16.128a5.281 5.281 0 011.406-4.943l2.02-2.02v4.1a1.637 1.637 0 003.273 0V36.009c-1.918.403-3.273 2.22-3.273 4.222v20.226l-4.96 4.96a8.184 8.184 0 00-2.18 7.662l3.425 14.553a11.457 11.457 0 0011.152 8.834h4.084a11.457 11.457 0 01-11.153-8.834z" fill="#7A6C6D"/><path d="M30.177 19.641c-.847 0-1.534.687-1.534 1.535a3.38 3.38 0 01-3.376 3.375 3.38 3.38 0 01-3.376-3.375 3.38 3.38 0 013.376-3.376 1.535 1.535 0 000-3.07 6.452 6.452 0 00-6.444 6.445 6.452 6.452 0 006.444 6.445 6.452 6.452 0 006.445-6.445c0-.847-.687-1.534-1.535-1.534zm0 18.004c-.847 0-1.534.687-1.534 1.535a3.38 3.38 0 01-3.376 3.375 3.38 3.38 0 01-3.376-3.375 3.38 3.38 0 013.376-3.376 1.535 1.535 0 000-3.07 6.452 6.452 0 00-6.444 6.445 6.452 6.452 0 006.444 6.445 6.452 6.452 0 006.445-6.445c0-.847-.687-1.534-1.535-1.534zm18.004 3.274H36.724a1.535 1.535 0 000 3.069h11.458a1.535 1.535 0 000-3.07zm0-6.547H36.724a1.535 1.535 0 000 3.069h11.458a1.535 1.535 0 000-3.07zm-1.738 26.085c0-.847-.687-1.534-1.535-1.534h-8.184a1.535 1.535 0 000 3.069h8.184c.847 0 1.535-.688 1.535-1.535zm1.738-8.081H36.724a1.535 1.535 0 000 3.069h11.458a1.535 1.535 0 000-3.07zm16.266-27.927c0-.848-.687-1.535-1.535-1.535H36.724a1.535 1.535 0 000 3.07h26.188c.848 0 1.535-.688 1.535-1.535zm-27.723-5.013h19.641a1.535 1.535 0 000-3.069h-19.64a1.535 1.535 0 000 3.07zM25.267 53.808a1.535 1.535 0 000-3.07 6.452 6.452 0 00-6.444 6.446 6.452 6.452 0 006.444 6.444 6.452 6.452 0 006.445-6.444 1.535 1.535 0 00-3.07 0 3.38 3.38 0 01-3.375 3.375 3.38 3.38 0 01-3.376-3.375 3.38 3.38 0 013.376-3.376z" fill="#C1C1C1"/><path d="M41.635 75.29H13.81c-.959 0-1.74-.78-1.74-1.739V4.808c0-.959.781-1.74 1.74-1.74h55.65c.958 0 1.738.781 1.738 1.74v50.74a1.534 1.534 0 103.07 0V4.807A4.814 4.814 0 0069.458 0H13.81a4.813 4.813 0 00-4.808 4.808V73.55a4.813 4.813 0 004.808 4.808h27.825a1.534 1.534 0 100-3.069z" fill="#695B5C"/><path d="M83.947 62.225a5.662 5.662 0 00-3.98 1.118c-.899-1.507-2.431-2.577-4.204-2.755a5.662 5.662 0 00-3.98 1.119c-.899-1.508-2.431-2.578-4.204-2.755a5.669 5.669 0 00-3.132.587V39.998a5.637 5.637 0 00-1.853-4.173 5.652 5.652 0 00-4.349-1.425c-2.832.284-5.05 2.845-5.05 5.831v19.59l-4.512 4.511a9.657 9.657 0 00-2.588 9.098l3.425 14.554A12.942 12.942 0 0062.166 98h13.84c7.164 0 12.992-5.828 12.992-12.992V68.056c0-2.986-2.219-5.547-5.051-5.831zm1.982 22.783c0 5.472-4.451 9.923-9.923 9.923h-13.84a9.885 9.885 0 01-9.659-7.65l-3.424-14.554a6.608 6.608 0 011.77-6.225l2.341-2.34v5.297a1.535 1.535 0 003.07 0V40.231c0-1.429 1.004-2.649 2.288-2.777a2.541 2.541 0 011.984.647c.535.484.842 1.176.842 1.897v27.006a1.535 1.535 0 003.07 0V64.55c0-.721.306-1.413.841-1.897a2.542 2.542 0 011.985-.647c1.283.129 2.288 1.349 2.288 2.777v3.859a1.535 1.535 0 003.069 0v-2.455c0-.722.307-1.413.842-1.898a2.542 2.542 0 011.984-.646c1.284.128 2.289 1.348 2.289 2.777v3.858a1.534 1.534 0 103.069 0v-2.455c0-.721.307-1.413.842-1.897a2.54 2.54 0 011.984-.647c1.284.128 2.289 1.348 2.289 2.777v16.953h-.001z" fill="#695B5C"/></svg>