<svg width="98" height="98" fill="none" xmlns="http://www.w3.org/2000/svg"><g clip-path="url(#clip0)" fill="#695B5C"><path d="M43.436 76.553c-3.82 3.53-9.104 4.32-13.791 2.064a12.565 12.565 0 01-4.244-3.292L19.02 89.44c-.29.642.034 1.126.186 1.305.153.178.582.572 1.26.383l4.646-1.293a5.92 5.92 0 016.923 3.13l2.099 4.342c.306.634.88.698 1.12.693.235-.003.812-.08 1.102-.722l10.151-22.452a7.617 7.617 0 00-3.07 1.727zM78.98 89.44l-6.382-14.115a12.56 12.56 0 01-4.243 3.292c-4.687 2.257-9.97 1.466-13.791-2.064a7.616 7.616 0 00-3.071-1.727l10.15 22.452c.29.643.868.719 1.102.722.24.005.815-.059 1.121-.693l2.098-4.342a5.92 5.92 0 016.923-3.13l4.646 1.293a1.192 1.192 0 001.26-.383c.153-.179.478-.663.187-1.305z"/><path d="M83.993 39.773c-5.3-3.63-6.944-10.835-3.744-16.404 1.924-3.348.923-6.657-.656-8.636-1.579-1.98-4.581-3.692-8.273-2.561-6.141 1.88-12.8-1.326-15.16-7.3C54.743 1.28 51.532 0 49 0s-5.743 1.28-7.16 4.871c-2.36 5.976-9.018 9.182-15.16 7.3-3.692-1.13-6.694.583-8.273 2.562-1.579 1.98-2.58 5.287-.656 8.636 3.2 5.569 1.556 12.775-3.744 16.404-3.186 2.181-3.72 5.596-3.156 8.065.563 2.468 2.525 5.313 6.342 5.897 6.35.97 10.958 6.748 10.491 13.154-.28 3.852 2.057 6.398 4.338 7.496 2.281 1.099 5.73 1.34 8.565-1.282 2.358-2.18 5.386-3.27 8.413-3.27 3.028 0 6.054 1.09 8.413 3.27 2.836 2.622 6.284 2.381 8.565 1.282 2.28-1.098 4.618-3.644 4.338-7.495-.467-6.407 4.14-12.185 10.49-13.155 3.818-.584 5.78-3.429 6.343-5.897.563-2.469.03-5.884-3.156-8.066zM49 64.297c-13.891 0-25.193-11.302-25.193-25.193 0-13.891 11.302-25.193 25.193-25.193 13.892 0 25.193 11.302 25.193 25.193 0 13.891-11.302 25.193-25.193 25.193z"/><path d="M49 18.61c-11.302 0-20.496 9.194-20.496 20.495S37.698 59.601 49 59.601c11.301 0 20.495-9.195 20.495-20.496 0-11.301-9.194-20.495-20.495-20.495zm10.503 18.508l-12.755 9.317a2.349 2.349 0 01-3.308-.547l-3.815-5.432a2.35 2.35 0 013.844-2.7l2.44 3.474 10.824-7.905a2.349 2.349 0 112.77 3.793z"/></g><defs><clipPath id="clip0"><path fill="#fff" d="M0 0h98v98H0z"/></clipPath></defs></svg>