<svg width="69" height="69" fill="none" xmlns="http://www.w3.org/2000/svg"><g clip-path="url(#clip0)"><path d="M36.726 26.71h-4.452c-4.294 0-7.79 3.495-7.79 7.79v24.484h20.032V34.5c0-4.295-3.496-7.79-7.79-7.79z" fill="#E81618"/><path d="M46.742 57.871h-.524l4.594-10.5a30.918 30.918 0 002.607-12.468c0-4.803-1.136-9.614-3.284-13.91a5.728 5.728 0 00-5.154-3.186H39.27v2.225h5.711c1.349 0 2.561.75 3.163 1.956a29.014 29.014 0 013.05 12.915c0 4.009-.815 7.904-2.422 11.577l-4.984 11.39H25.211l-4.983-11.39a28.72 28.72 0 01-2.422-11.578c0-4.46 1.054-8.927 3.05-12.916a3.515 3.515 0 013.163-1.955h5.71v-2.225h-5.71a5.73 5.73 0 00-5.154 3.185 31.277 31.277 0 00-3.284 13.91c0 4.32.877 8.514 2.608 12.469l4.593 10.5h-.524a5.571 5.571 0 00-5.564 5.565V69h35.612v-5.564a5.571 5.571 0 00-5.564-5.565zm-27.823 8.903V64.55h18.92v-2.226H19.124a3.334 3.334 0 013.134-2.226h24.484c1.449 0 2.673.934 3.134 2.226h-9.812v2.226h10.017v2.225H18.919z" fill="#fff"/><path d="M28.936 53.42h11.129v2.225h-11.13V53.42zm0-4.452h11.129v2.226h-11.13v-2.226z" fill="#fff"/><path d="M43.675 26.374L34.5 20.257l-9.175 6.117 4.448-10.38-8.628-5.978h10.29L34.5 0l3.065 10.016h10.29l-8.629 5.978 4.449 10.38z" fill="#E81618"/><path d="M28.936 44.516h11.129v2.226h-11.13v-2.226zm0-4.451h11.129v2.225h-11.13v-2.225zm0-4.452h11.129v2.226h-11.13v-2.226zm0-4.452h11.129v2.226h-11.13V31.16zM8.903 0h2.226v2.226H8.903V0zm0 4.452h2.226v2.225H8.903V4.452zm2.226-2.226h2.226V4.45h-2.226V2.226zm-4.452 0h2.226V4.45H6.677V2.226zM2.226 47.855H4.45v2.226H2.226v-2.226zm0 4.452H4.45v2.225H2.226v-2.225zm2.226-2.227h2.225v2.226H4.452v-2.225zM0 50.08h2.226v2.226H0v-2.225zm64.548-22.257h2.226v2.226h-2.226v-2.226zm0 4.451h2.226V34.5h-2.226v-2.226zm2.226-2.226H69v2.226h-2.226v-2.226z" fill="#fff"/><path d="M62.323 30.048h2.226v2.226h-2.226v-2.226zM54.532 2.226h2.226V4.45h-2.226V2.226zm0 4.451h2.226v2.226h-2.226V6.677zm2.226-2.225h2.226v2.225h-2.226V4.452zm-4.451 0h2.225v2.225h-2.225V4.452zM6.677 17.807h2.226v2.225H6.677v-2.225zm0 4.451h2.226v2.226H6.677v-2.226zm2.226-2.226h2.226v2.226H8.903v-2.226zm-4.451 0h2.225v2.226H4.452v-2.226zm55.645 31.161h2.225v2.226h-2.225v-2.226zm0 4.452h2.225v2.226h-2.225v-2.226zm2.226-2.225h2.226v2.225h-2.226V53.42zm-4.452 0h2.226v2.225H57.87V53.42z" fill="#fff"/></g><defs><clipPath id="clip0"><path fill="#fff" d="M0 0h69v69H0z"/></clipPath></defs></svg>