<svg width="69" height="69" fill="none" xmlns="http://www.w3.org/2000/svg"><g clip-path="url(#clip0)"><path d="M34.5 7.458c-14.934 0-27.04 12.105-27.04 27.039 0 14.933 12.106 27.04 27.04 27.04 14.933 0 27.04-12.107 27.04-27.04 0-14.934-12.107-27.04-27.04-27.04zm0 48.445c-11.822 0-21.406-9.584-21.406-21.406S22.678 13.09 34.5 13.09s21.406 9.584 21.406 21.406S46.322 55.903 34.5 55.903z" fill="#E81618"/><path d="M34.5 5.204c14.952 0 27.466 11.194 29.108 26.037l.258 2.33L69 28.439l-1.593-1.593-1.892 1.89C62.789 13.885 49.835 2.951 34.5 2.951c-.78 0-1.566.028-2.336.084l.164 2.248a29.63 29.63 0 012.172-.079zm0 58.586c-14.952 0-27.466-11.195-29.108-26.037l-.258-2.332L0 40.556l1.593 1.593 1.891-1.891C6.211 55.108 19.166 66.043 34.5 66.043c.782 0 1.57-.029 2.336-.086l-.166-2.247c-.712.053-1.442.08-2.17.08z" fill="#fff"/><path d="M34.5 11.964c-12.424 0-22.533 10.108-22.533 22.533 0 12.424 10.109 22.532 22.533 22.532 12.425 0 22.533-10.108 22.533-22.532 0-12.425-10.108-22.533-22.533-22.533zm1.127 42.754v-5.575h-2.254v5.575c-10.281-.568-18.526-8.813-19.095-19.095h5.576V33.37h-5.576c.57-10.282 8.814-18.526 19.096-19.096v5.576h2.253v-5.576c10.281.57 18.526 8.814 19.095 19.096h-5.576v2.253h5.576c-.569 10.282-8.814 18.527-19.095 19.096z" fill="#fff"/><path d="M35.627 31.325v-9.221h-2.254v9.22a3.375 3.375 0 00-2.253 3.173 3.384 3.384 0 003.38 3.38 3.375 3.375 0 003.173-2.253h4.713V33.37h-4.713a3.374 3.374 0 00-2.046-2.045zM34.5 35.623a1.128 1.128 0 010-2.254 1.128 1.128 0 010 2.254zM27.24 3.777l2.209-.44.44 2.21-2.21.44-.44-2.21zm-5.852 2.005l2.082-.862.861 2.082-2.081.862-.862-2.082zm-5.35 3.11l1.873-1.25 1.252 1.873-1.874 1.251-1.251-1.874zm-4.641 4.095l1.593-1.593 1.593 1.593-1.593 1.593-1.593-1.593zm-3.754 4.92l1.252-1.873 1.873 1.252-1.252 1.873-1.873-1.252zm-2.72 5.558l.863-2.082 2.082.862-.863 2.082-2.082-.863zM3.34 29.447l.44-2.21 2.21.439-.439 2.21-2.21-.44zm35.77 33.994l2.209-.439.44 2.21-2.209.44-.44-2.21zm5.56-1.451l2.082-.862.862 2.083-2.082.861-.862-2.082zm5.17-2.512l1.876-1.252 1.251 1.874-1.875 1.252-1.251-1.874zm4.576-3.472l1.593-1.593 1.593 1.593L56.01 57.6l-1.593-1.593zm3.818-4.296l1.252-1.876 1.874 1.252-1.252 1.875-1.874-1.252zm2.898-4.962l.862-2.081 2.082.861-.862 2.082-2.082-.862zm1.877-5.428l.44-2.209 2.21.44-.44 2.21-2.21-.44z" fill="#fff"/></g><defs><clipPath id="clip0"><path fill="#fff" d="M0 0h69v69H0z"/></clipPath></defs></svg>