<svg width="69" height="69" fill="none" xmlns="http://www.w3.org/2000/svg"><path d="M68.824 33.18L34.5 68.65.176 33.18l13.73-17.162h41.189l13.73 17.162z" fill="#E81618"/><path d="M68.824 32.036H47.85l8.256-15.479-2.02-1.077-8.253 15.474-10.38-15.57-.952.634-.952-.635-10.38 15.57-8.252-15.474-2.02 1.077 8.255 15.48H.176v2.289h22.05L33.41 69l1.089-.35 1.09.35 11.184-34.675h22.05v-2.289zm-25.02 0H25.196L34.5 18.081l9.304 13.955zM34.5 64.921l-9.87-30.597h19.74L34.5 64.922zM33.356 9.153h2.288V5.721h3.433V3.432h-3.433V0h-2.288v3.432h-3.432v2.289h3.432v3.432zm22.883 3.433h2.288V9.153h3.432V6.865h-3.432V3.433h-2.288v3.432h-3.433v2.288h3.433v3.433zm-45.766 0h2.288V9.153h3.433V6.865H12.76V3.433h-2.288v3.432H7.041v2.288h3.432v3.433z" fill="#fff"/></svg>