<svg width="253" height="203" fill="none" xmlns="http://www.w3.org/2000/svg"><circle opacity=".2" cx="24" cy="24" r="23.5" stroke="#fff"/><path d="M37.975 24.534a.069.069 0 00-.063-.012l-.068.02-.01.003a1.51 1.51 0 00-.142.046c-.704.28-1.258.76-1.695 1.465a2.957 2.957 0 00-.257.537c.109-.608.134-.845.153-1.526l.001-.086c0-.08 0-.154.017-.221.021-.08.063-.161.103-.239l.032-.063a.048.048 0 01.017-.01c.202-.032.38-.117.545-.262.166-.147.303-.327.407-.535a5.367 5.367 0 00.552-2.447 2.1 2.1 0 00-.021-.257 4.846 4.846 0 01-.014-.124.068.068 0 00-.104-.051.617.617 0 00-.08.05 3.668 3.668 0 00-1.496 2.663l-.018-.225-.002-.027a66.272 66.272 0 01-.068-.896 1.713 1.713 0 00-.034-.22c-.026-.137-.052-.266-.011-.402.01-.03.017-.06.025-.092.02-.076.113-.193.257-.321l.005-.005c.053-.045.325-.294.48-.787.156-.5.144-1.023.136-1.405v-.01c-.012-.525-.069-.92-.184-1.282a2.39 2.39 0 00-.052-.14l-.03-.078a.068.068 0 00-.052-.044h-.012c-.02 0-.04.009-.052.024l-.113.137a3.413 3.413 0 00-.787 2.29c.003.153.015.309.035.47a13.34 13.34 0 00-.48-1.376.1.1 0 01-.007-.031l-.001-.06a3.962 3.962 0 010-.267c0-.015.01-.041.03-.068.028-.037.06-.073.092-.111.055-.064.112-.13.157-.207.146-.243.214-.532.215-.906.002-.441-.066-.905-.214-1.461-.081-.303-.203-.697-.431-1.054a1.016 1.016 0 00-.077-.105c-.013-.017-.03-.027-.06-.027a.069.069 0 00-.054.035 3.468 3.468 0 00-.435 1.684c-.006.516.075.959.175 1.31a13.034 13.034 0 00-.85-1.353l-.008-.01c-.007-.009-.01-.013-.01-.01a8.212 8.212 0 01-.041-.347c0-.002.002-.01.016-.034a2.37 2.37 0 01.067-.105c.047-.072.097-.147.128-.232.095-.253.117-.541.066-.88-.114-.747-.443-1.42-1.008-2.059a2.369 2.369 0 00-.191-.184l-.019-.017a5.1 5.1 0 01-.081-.075.068.068 0 00-.114.034l-.012.055a1.591 1.591 0 00-.02.092c-.076.454-.07.94.017 1.487.087.542.26 1.01.526 1.416a10.84 10.84 0 00-1.19-1.213.038.038 0 01-.005-.011 1.138 1.138 0 00-.206-.785 2.08 2.08 0 00-.923-.762c-.232-.1-.474-.19-.71-.278-.113-.042-.226-.083-.342-.128-.117-.047-.167-.055-.194-.03-.035.033-.027.06-.012.111l.005.017c.143.48.332.86.58 1.162.453.553.983.835 1.62.86a.08.08 0 01.047.013c.09.067.155.12.214.174.184.168.366.348.543.537-.264-.164-.587-.239-.95-.22-.2.01-.398.04-.589.067l-.007.001-.169.025c-.123.016-.246.038-.356.057-.044.008-.15.032-.174.084a.058.058 0 00.002.054c.008.015.018.03.028.043.315.409.675.679 1.1.824.518.178.994.163 1.422-.046a.481.481 0 01.234-.054c.069 0 .12.01.136.014.026.004.06.019.067.028.266.35.519.723.754 1.115-.199-.193-.459-.324-.812-.41-.31-.073-.628-.089-.934-.104l-.103-.006c-.096-.004-.192-.01-.291-.017l-.166-.01a.068.068 0 00-.063.092c.006.018.018.05.024.06.324.542.704.916 1.161 1.145.447.223.852.282 1.26.185a.685.685 0 01.158-.018c.173 0 .294.053.32.102.224.463.424.944.597 1.434a1.932 1.932 0 00-.755-.604c-.319-.15-.65-.288-.977-.423l-.421-.176a.068.068 0 00-.095.062c0 .044.465 1.336 1.14 1.845.276.207.616.42 1.044.43.128.003.26.022.36.135a.132.132 0 00.059.04c.034.011.043.032.06.104.139.582.24 1.182.302 1.791a2.443 2.443 0 00-.066-.187c-.151-.384-.406-.72-.8-1.056a21.67 21.67 0 00-.624-.507l-.01-.008-.281-.224a2.932 2.932 0 01-.06-.05l-.059-.05a.068.068 0 00-.112.057l.008.117v.018c.006.077.01.15.018.221.073.698.28 1.282.635 1.783.219.31.533.688 1.024.867.119.044.205.11.298.23a.484.484 0 01.102.34c-.009.537-.047 1.07-.114 1.591a2.185 2.185 0 00-.1-.45 3.453 3.453 0 00-.507-.955c-.202-.278-.413-.557-.616-.828l-.014-.018-.24-.319a.09.09 0 00-.048-.033.068.068 0 00-.095.04l-.002.007a.161.161 0 00-.007.027c-.14.837-.055 1.587.263 2.293.155.345.363.736.73 1.017.167.129.299.309.372.507.015.043.014.061.013.069a12.14 12.14 0 01-.605 1.849 2.32 2.32 0 00-.013-.97c-.103-.478-.28-.94-.437-1.336l-.047-.118-.225-.566a.07.07 0 00-.065-.044.067.067 0 00-.06.037l-.024.047-.03.06a3.921 3.921 0 00-.318 2.179c.076.523.204.897.416 1.214.11.163.215.346.233.57.005.053.003.09-.02.131a10.27 10.27 0 01-.897 1.322l.004-.007c.236-.432.243-.899.219-1.299-.02-.343-.06-.685-.098-1.017l-.002-.019-.044-.398-.026-.227-.013-.103a.068.068 0 00-.036-.053c-.038-.02-.098.01-.163.088a3.575 3.575 0 00-.828 1.782c-.104.676-.047 1.254.173 1.768a.16.16 0 01.006.051l-.012.296a.099.099 0 01-.022.054 7.916 7.916 0 01-1.47 1.118c.25-.226.43-.521.547-.896.13-.415.196-.846.26-1.265l.006-.037c.022-.148.046-.294.07-.444l.028-.17a.068.068 0 00-.093-.074l-.024.01a.898.898 0 00-.07.03c-1 .5-1.658 1.666-1.565 2.771.015.174-.001.336-.049.497a.07.07 0 01-.024.034c-.475.2-.927.346-1.381.447a.068.068 0 00-.037.11c.05.059.092.122.128.188a.07.07 0 00.075.034 7.83 7.83 0 001.072-.326.13.13 0 01.068-.013c.076.01.156.026.245.048.019.004.034.013.034.012.195.388.53.635 1.023.755.107.026.218.045.329.056.116.013.246.02.385.02.193 0 .33-.013.332-.013a3.559 3.559 0 001.117-.294c.133-.062.284-.145.4-.293a.068.068 0 00-.008-.093 3.5 3.5 0 00-1.023-.644c-.534-.212-1.02-.27-1.496-.178-.07.014-.14.031-.208.051a8.52 8.52 0 001.275-.935.067.067 0 01.03-.015c.066-.011.154-.025.243-.031.008 0 .02.004.02.004.243.272.556.404.956.404l.062-.001a3.03 3.03 0 001.3-.356c.312-.163.636-.352.9-.633.058-.063.11-.134.156-.197l.004-.006.062-.082a.068.068 0 00.014-.053.07.07 0 00-.033-.047 2.26 2.26 0 00-.217-.102c-.681-.263-1.369-.29-2.024-.079a2.149 2.149 0 00-.614.316c.364-.423.7-.887 1.007-1.386l.015-.022c.026-.017.054-.033.081-.049.049-.028.1-.058.147-.093.04-.03.052-.031.092-.005a.62.62 0 00.182.072c.34.087.684.044 1.064-.135.346-.162.613-.42.85-.673.343-.37.568-.703.707-1.049.029-.073.05-.148.071-.227l.028-.098a.068.068 0 00-.042-.084l-.029-.002c-.14 0-1.392.02-2.123.731a3.78 3.78 0 00-.433.499c.29-.614.535-1.26.733-1.93l.003-.01.008-.025.192-.263c.007-.01.008-.01.02-.01h.016l.04.003c.143.009.227.008.296-.003.273-.043.519-.18.752-.42.546-.56.922-1.259 1.15-2.136.024-.094.03-.189.038-.29l.012-.14a.069.069 0 00-.025-.06zM19.447 34.732a7.929 7.929 0 01-1.381-.447.07.07 0 01-.024-.033 1.337 1.337 0 01-.05-.497c.094-1.106-.565-2.271-1.565-2.77a.917.917 0 00-.069-.031l-.023-.01a.068.068 0 00-.094.074l.027.169c.025.15.048.297.071.444l.006.038c.064.418.13.85.26 1.265.117.374.297.67.547.896a7.923 7.923 0 01-1.47-1.118.098.098 0 01-.022-.053l-.012-.296c0-.01 0-.039.006-.053.22-.513.277-1.092.173-1.768a3.576 3.576 0 00-.828-1.782c-.052-.062-.099-.093-.138-.093a.054.054 0 00-.024.005.068.068 0 00-.038.053l-.012.103-.026.228-.044.398-.002.019c-.038.331-.077.674-.098 1.017-.024.4-.017.867.22 1.299l.003.007a10.277 10.277 0 01-.896-1.322c-.024-.042-.026-.079-.022-.132.02-.224.124-.406.233-.57.213-.317.341-.69.417-1.214a3.92 3.92 0 00-.318-2.18c-.009-.02-.02-.038-.03-.058l-.025-.047a.068.068 0 00-.124.006c-.076.194-.15.38-.225.566l-.047.119c-.158.396-.334.858-.437 1.335a2.34 2.34 0 00-.014.97 12.11 12.11 0 01-.604-1.849c-.002-.007-.002-.026.013-.068a1.13 1.13 0 01.373-.507c.366-.282.574-.672.729-1.017.318-.706.404-1.456.263-2.293a.175.175 0 00-.007-.027l-.003-.008a.069.069 0 00-.038-.042.071.071 0 00-.054.001.094.094 0 00-.05.033l-.24.32-.014.019c-.204.27-.414.55-.616.828-.235.321-.4.634-.506.955a2.195 2.195 0 00-.1.45 14.132 14.132 0 01-.115-1.591.484.484 0 01.102-.342.635.635 0 01.299-.229c.49-.179.804-.557 1.023-.867.354-.501.562-1.084.635-1.782.008-.072.012-.145.017-.222l.001-.017.008-.118a.068.068 0 00-.038-.065.07.07 0 00-.075.009l-.058.05-.06.05-.28.223-.01.008c-.207.164-.42.332-.624.507-.395.337-.65.673-.801 1.056a2.432 2.432 0 00-.066.188c.062-.61.163-1.21.302-1.792.017-.071.026-.092.06-.104a.131.131 0 00.058-.039c.1-.114.233-.132.36-.135.429-.01.769-.223 1.044-.43.676-.51 1.141-1.801 1.141-1.845a.068.068 0 00-.095-.063c-.14.06-.281.118-.427.179-.32.133-.652.27-.97.42a1.937 1.937 0 00-.755.604c.172-.49.372-.97.596-1.433.026-.05.147-.102.32-.102.057 0 .111.006.159.017.407.098.811.038 1.259-.185.458-.229.837-.603 1.16-1.144a.575.575 0 00.026-.06.068.068 0 00-.068-.092l-.162.01-.291.017-.103.005c-.306.016-.624.032-.934.105-.354.085-.613.216-.813.41.236-.393.489-.766.755-1.116.007-.009.041-.023.07-.028a.612.612 0 01.132-.014c.09 0 .17.018.236.055.425.208.902.223 1.42.046.425-.146.785-.415 1.101-.825a.336.336 0 00.028-.043.058.058 0 00.002-.054c-.025-.051-.13-.075-.175-.083a8.524 8.524 0 00-.355-.058 26.459 26.459 0 01-.17-.024l-.007-.001a6.12 6.12 0 00-.587-.068c-.364-.018-.687.056-.952.22.178-.189.36-.368.544-.537.058-.053.124-.107.214-.174a.095.095 0 01.047-.013c.637-.025 1.167-.306 1.62-.86.247-.301.437-.681.58-1.162l.004-.016c.016-.05.024-.079-.011-.111-.027-.025-.075-.018-.198.031l-.342.128c-.233.087-.474.176-.706.277a2.08 2.08 0 00-.923.761c-.17.256-.237.513-.206.784l-.003.011c-.406.35-.794.745-1.192 1.215.265-.406.438-.874.525-1.416a4.553 4.553 0 00.017-1.487 1.543 1.543 0 00-.02-.092l-.012-.055a.07.07 0 00-.046-.05.07.07 0 00-.067.016l-.082.075-.018.016c-.068.062-.133.12-.19.185-.566.638-.896 1.311-1.009 2.06-.051.337-.03.625.066.88.031.083.08.158.13.233l.065.103c.015.025.016.032.016.03-.009.1-.022.212-.04.346a.122.122 0 01-.012.016l-.006.01c-.31.429-.595.882-.852 1.35.101-.35.182-.793.176-1.308a3.469 3.469 0 00-.435-1.684.068.068 0 00-.114-.008.975.975 0 00-.077.104c-.228.358-.35.752-.431 1.055-.148.556-.216 1.02-.214 1.46 0 .375.07.663.215.907.045.076.102.142.16.21.03.034.06.07.09.108a.148.148 0 01.029.067c.004.09.002.18 0 .267l-.002.06c0 .01-.002.023-.006.032a13.37 13.37 0 00-.48 1.375c.02-.16.031-.316.034-.468a3.413 3.413 0 00-.787-2.29l-.112-.138a.067.067 0 00-.053-.025l-.01.001a.068.068 0 00-.053.043l-.03.078a2.495 2.495 0 00-.052.14c-.115.363-.172.758-.184 1.283v.01c-.008.382-.02.905.136 1.405.155.493.427.742.48.786l.005.005c.144.129.237.246.257.322l.025.092c.04.136.015.265-.012.404-.014.07-.028.143-.034.218-.02.298-.044.602-.067.896l-.002.027-.018.224a3.667 3.667 0 00-1.496-2.663.653.653 0 00-.08-.05.07.07 0 00-.066-.003.068.068 0 00-.038.055l-.015.126c-.01.087-.02.17-.02.255a5.366 5.366 0 00.552 2.447c.104.208.24.388.407.535.165.145.343.23.544.26a.074.074 0 01.016.01l.034.065c.04.078.081.158.102.238a.914.914 0 01.017.221l.001.087c.02.68.045.918.154 1.526a2.96 2.96 0 00-.258-.537c-.436-.706-.99-1.185-1.694-1.465a1.482 1.482 0 00-.142-.046l-.01-.003a6.487 6.487 0 01-.068-.02.068.068 0 00-.088.072l.012.141c.007.1.014.195.038.29.227.877.603 1.575 1.15 2.135.233.24.479.377.752.42.068.01.152.012.295.003l.04-.002h.018c.01 0 .012 0 .02.01l.19.262a.126.126 0 01.009.025l.002.01c.198.67.444 1.316.733 1.93a3.787 3.787 0 00-.432-.499c-.732-.71-1.983-.73-2.124-.73h-.017l-.011.002a.068.068 0 00-.043.083c.01.033.02.066.03.105.02.072.04.148.07.22.138.347.363.68.707 1.05.237.253.503.51.85.672.38.179.722.222 1.063.135a.624.624 0 00.182-.072c.041-.026.052-.025.092.005.048.035.099.065.148.094l.08.048a10.688 10.688 0 001.023 1.408 2.156 2.156 0 00-.614-.316c-.656-.21-1.343-.184-2.024.08a2.158 2.158 0 00-.22.102.068.068 0 00-.016.098l.061.084.005.006c.045.062.098.133.156.196.263.282.587.47.899.633a3.03 3.03 0 001.362.357c.4 0 .713-.132.954-.402a.05.05 0 01.02-.006c.092.006.18.02.245.03.01.002.023.009.03.016.403.356.83.67 1.275.935a2.285 2.285 0 00-.208-.051c-.476-.091-.962-.034-1.495.178-.36.143-.695.354-1.024.644a.068.068 0 00-.008.093c.116.148.267.231.4.293.324.15.69.246 1.117.294.002 0 .14.012.332.012.14 0 .27-.006.385-.018.111-.012.222-.031.33-.057.493-.12.828-.367 1.02-.75a.1.1 0 01.036-.017c.09-.022.17-.038.245-.048a.135.135 0 01.069.013 7.82 7.82 0 001.087.327.068.068 0 00.06-.036c.035-.065.078-.128.128-.187a.068.068 0 00-.037-.11z" fill="#fff"/><path d="M27.329 25.675l2.82-2.749a.35.35 0 00-.195-.598l-3.896-.566-1.744-3.531a.35.35 0 00-.629 0l-1.742 3.53-3.897.567a.351.351 0 00-.195.598l2.82 2.749-.665 3.881a.35.35 0 00.509.37L24 28.094l3.485 1.832a.35.35 0 00.51-.37l-.666-3.881z" fill="#fff"/></svg>