<svg width="28" height="28" fill="none" xmlns="http://www.w3.org/2000/svg"><g clip-path="url(#clip0)"><circle opacity=".2" cx="14" cy="14" r="23.5" stroke="#fff"/><path d="M27.975 14.534a.069.069 0 00-.063-.012l-.068.02-.01.003a1.51 1.51 0 00-.142.046c-.704.28-1.258.76-1.695 1.465a2.957 2.957 0 00-.257.537c.109-.608.134-.845.153-1.526l.001-.086c0-.08 0-.154.017-.221.021-.08.063-.161.103-.239l.032-.063a.048.048 0 01.017-.01c.202-.032.38-.117.545-.262.166-.147.303-.327.407-.535a5.367 5.367 0 00.552-2.447 2.1 2.1 0 00-.021-.257 4.846 4.846 0 01-.014-.124.068.068 0 00-.104-.051.617.617 0 00-.08.05 3.668 3.668 0 00-1.496 2.663l-.018-.225-.002-.027a66.272 66.272 0 01-.068-.896 1.713 1.713 0 00-.034-.22c-.027-.137-.052-.266-.011-.402.01-.03.017-.06.025-.092.02-.076.113-.193.256-.321l.006-.005c.053-.045.325-.294.48-.787.156-.5.144-1.023.136-1.405v-.01c-.012-.525-.069-.92-.184-1.282a2.411 2.411 0 00-.052-.14l-.03-.078a.068.068 0 00-.052-.044h-.012c-.02 0-.04.009-.052.024l-.113.137a3.413 3.413 0 00-.787 2.29c.003.153.015.309.035.47a13.338 13.338 0 00-.48-1.375.1.1 0 01-.007-.032l-.001-.06a3.962 3.962 0 010-.267c0-.015.01-.042.03-.068.028-.037.06-.073.092-.111.055-.064.112-.13.157-.207.146-.243.214-.531.215-.906.002-.441-.066-.905-.214-1.461-.081-.303-.203-.697-.431-1.054a1.024 1.024 0 00-.077-.105c-.013-.017-.03-.027-.06-.027a.069.069 0 00-.054.035 3.468 3.468 0 00-.435 1.685c-.006.515.075.958.175 1.308a13.037 13.037 0 00-.85-1.352l-.008-.01c-.007-.009-.01-.013-.01-.01a8.207 8.207 0 01-.042-.347c0-.002.003-.01.017-.034.02-.035.043-.069.067-.105.047-.072.097-.148.128-.232.096-.253.117-.541.066-.88-.113-.747-.443-1.42-1.008-2.059a2.37 2.37 0 00-.191-.184l-.019-.017-.081-.075a.068.068 0 00-.067-.016.069.069 0 00-.046.05l-.013.054a1.596 1.596 0 00-.02.093c-.076.454-.07.94.017 1.487.087.542.26 1.01.526 1.416a10.9 10.9 0 00-1.19-1.213.038.038 0 01-.005-.011 1.138 1.138 0 00-.206-.785 2.08 2.08 0 00-.923-.762c-.232-.1-.474-.19-.71-.277a16.692 16.692 0 01-.342-.13c-.117-.046-.167-.054-.194-.029-.035.033-.027.06-.012.111l.005.017c.143.48.332.86.58 1.162.453.553.983.835 1.62.86a.09.09 0 01.047.012c.09.068.155.121.214.174.184.169.366.349.543.538-.264-.164-.587-.239-.95-.22-.2.01-.398.04-.589.067l-.007.001-.169.025c-.123.016-.246.038-.356.057-.044.008-.15.032-.174.084a.058.058 0 00.002.054c.008.015.018.03.028.042.315.41.675.68 1.1.825.518.178.994.163 1.422-.046a.481.481 0 01.235-.054c.068 0 .119.01.136.014.025.004.06.019.066.028.266.35.519.723.754 1.115-.199-.193-.458-.324-.812-.41-.31-.073-.628-.089-.934-.104l-.103-.005-.291-.018-.166-.01a.068.068 0 00-.063.092c.006.018.018.05.024.06.324.542.704.916 1.161 1.145.447.223.852.282 1.26.185a.687.687 0 01.158-.018c.173 0 .294.053.32.102.224.463.424.944.596 1.434a1.932 1.932 0 00-.754-.604c-.319-.15-.65-.288-.977-.423l-.421-.176a.068.068 0 00-.095.062c0 .044.465 1.336 1.14 1.845.276.207.616.42 1.044.43.128.003.26.022.36.135a.132.132 0 00.059.04c.034.011.043.032.06.104.139.582.24 1.182.302 1.791a2.443 2.443 0 00-.066-.187c-.151-.384-.406-.72-.8-1.056a21.67 21.67 0 00-.624-.507l-.01-.008-.281-.224a2.932 2.932 0 01-.06-.05l-.059-.05a.068.068 0 00-.112.057l.008.117v.018c.006.077.01.15.018.221.073.698.28 1.282.635 1.783.219.31.533.688 1.023.867.12.044.206.11.299.23a.484.484 0 01.102.34c-.009.537-.047 1.07-.114 1.591a2.185 2.185 0 00-.1-.45 3.453 3.453 0 00-.507-.955c-.202-.278-.413-.558-.616-.828l-.014-.018-.24-.319a.09.09 0 00-.048-.033.068.068 0 00-.095.04l-.002.007a.161.161 0 00-.007.027c-.14.837-.055 1.587.263 2.293.155.345.363.736.73 1.017.167.129.299.309.372.507.015.043.014.061.013.069a12.14 12.14 0 01-.605 1.849 2.32 2.32 0 00-.013-.97c-.103-.478-.28-.94-.437-1.336l-.047-.118-.226-.566a.07.07 0 00-.064-.044.067.067 0 00-.06.037l-.024.047-.03.06a3.921 3.921 0 00-.318 2.179c.076.523.204.897.416 1.214.11.163.215.346.233.57.005.053.003.09-.02.131a10.27 10.27 0 01-.897 1.322l.004-.007c.236-.432.243-.899.219-1.299-.02-.343-.06-.685-.098-1.017l-.002-.019-.044-.398-.026-.227-.013-.103a.068.068 0 00-.036-.053c-.038-.02-.098.01-.163.088a3.575 3.575 0 00-.828 1.782c-.104.676-.047 1.254.173 1.768a.16.16 0 01.006.051l-.012.296a.099.099 0 01-.022.054 7.916 7.916 0 01-1.47 1.118c.25-.226.43-.521.547-.896.13-.415.196-.847.26-1.265l.006-.037c.022-.148.046-.294.07-.444l.028-.17a.068.068 0 00-.093-.074l-.024.01a.898.898 0 00-.07.03c-1 .5-1.658 1.666-1.565 2.771.015.174-.001.336-.049.498a.07.07 0 01-.024.033c-.475.2-.927.346-1.381.447a.068.068 0 00-.037.11c.05.059.092.122.128.188a.07.07 0 00.075.034 7.83 7.83 0 001.072-.326.13.13 0 01.068-.013c.076.01.156.026.245.048.019.004.034.013.034.012.195.388.53.635 1.023.755.107.026.218.045.329.056.116.013.246.02.385.02.193 0 .33-.013.332-.013a3.559 3.559 0 001.117-.294c.133-.062.284-.145.4-.293a.068.068 0 00-.008-.093 3.5 3.5 0 00-1.023-.644c-.534-.212-1.02-.27-1.496-.178-.07.014-.14.031-.208.051a8.52 8.52 0 001.275-.935.067.067 0 01.03-.015c.066-.011.154-.025.243-.031a.07.07 0 01.02.004c.243.272.556.404.956.404l.061-.001a3.03 3.03 0 001.302-.356c.311-.162.636-.351.898-.633.059-.063.11-.134.157-.197l.004-.006.062-.082a.068.068 0 00.014-.053.07.07 0 00-.032-.047 2.26 2.26 0 00-.218-.102c-.681-.263-1.369-.29-2.024-.079a2.149 2.149 0 00-.614.316c.364-.423.7-.887 1.007-1.386l.015-.022c.026-.017.054-.033.081-.049.049-.028.1-.058.147-.093.04-.03.052-.031.092-.005a.62.62 0 00.183.072c.34.087.683.044 1.063-.135.346-.162.613-.42.85-.673.343-.37.568-.703.707-1.049.029-.073.05-.148.071-.227l.028-.098a.068.068 0 00-.042-.084l-.029-.002c-.14 0-1.392.02-2.123.731a3.78 3.78 0 00-.433.499c.29-.614.535-1.26.733-1.93l.003-.01.008-.025.192-.263c.007-.01.008-.01.02-.01h.016l.04.003c.143.009.227.008.296-.003.273-.043.519-.18.752-.42.546-.56.922-1.259 1.15-2.136.024-.094.03-.189.038-.29.003-.045.006-.092.012-.14a.069.069 0 00-.025-.06zM9.447 24.732a7.927 7.927 0 01-1.381-.447.07.07 0 01-.024-.033 1.337 1.337 0 01-.05-.497c.094-1.106-.565-2.271-1.565-2.77a.905.905 0 00-.069-.031l-.023-.01a.068.068 0 00-.094.074l.027.169c.025.15.048.297.071.444l.006.038c.064.418.13.85.26 1.265.117.374.297.67.547.896a7.918 7.918 0 01-1.47-1.118.098.098 0 01-.022-.053l-.012-.296c0-.01 0-.039.006-.052.22-.514.277-1.093.173-1.769a3.576 3.576 0 00-.828-1.782c-.052-.062-.099-.093-.137-.093a.054.054 0 00-.025.005.068.068 0 00-.038.053l-.012.103-.026.228-.044.398-.002.019c-.038.331-.077.674-.098 1.017-.024.4-.017.867.22 1.299l.003.007a10.278 10.278 0 01-.896-1.322c-.024-.042-.026-.079-.022-.132.02-.224.124-.406.233-.57.213-.317.341-.69.417-1.214a3.921 3.921 0 00-.318-2.18c-.009-.02-.02-.038-.03-.058l-.025-.047a.068.068 0 00-.124.006c-.076.194-.15.38-.225.566l-.047.119c-.158.396-.334.858-.437 1.335a2.34 2.34 0 00-.013.97 12.121 12.121 0 01-.605-1.849c-.002-.007-.002-.026.013-.068.073-.199.205-.38.372-.507.367-.282.575-.672.73-1.017.317-.706.404-1.456.263-2.293a.176.176 0 00-.007-.027l-.003-.008a.069.069 0 00-.038-.042.071.071 0 00-.055.001.094.094 0 00-.049.033l-.24.32-.014.019c-.204.27-.414.55-.616.828-.235.321-.4.634-.506.955a2.192 2.192 0 00-.1.45 14.132 14.132 0 01-.115-1.591.485.485 0 01.102-.342.635.635 0 01.298-.229c.49-.179.805-.557 1.024-.867.354-.501.562-1.084.635-1.782a4.57 4.57 0 00.017-.222l.001-.017.008-.118a.068.068 0 00-.038-.065.07.07 0 00-.074.009l-.059.05-.06.05-.28.224-.01.007c-.207.164-.42.333-.624.507-.395.337-.65.673-.801 1.056a2.444 2.444 0 00-.066.188c.062-.61.163-1.21.302-1.792.017-.071.026-.092.06-.104a.13.13 0 00.058-.039c.1-.114.233-.132.36-.135.429-.01.769-.223 1.044-.43.676-.51 1.141-1.801 1.141-1.845a.068.068 0 00-.094-.063l-.428.179c-.32.133-.652.27-.97.42a1.948 1.948 0 00-.756.604c.173-.49.373-.97.597-1.433.026-.05.147-.102.32-.102.057 0 .112.006.159.017.407.098.812.038 1.259-.185.458-.229.837-.603 1.16-1.144a.561.561 0 00.025-.06.068.068 0 00-.067-.092l-.162.01-.291.017-.103.005c-.307.016-.624.031-.934.105-.354.085-.613.216-.813.41.236-.393.489-.766.755-1.116.007-.009.041-.023.07-.028a.61.61 0 01.132-.014c.09 0 .17.018.236.055.425.208.902.223 1.42.045.426-.145.785-.414 1.101-.824a.333.333 0 00.028-.043.058.058 0 00.002-.054c-.025-.051-.13-.075-.175-.083a8.524 8.524 0 00-.355-.058 21.416 21.416 0 01-.17-.024L7.36 5.12c-.19-.028-.388-.058-.588-.068-.363-.018-.686.056-.95.22.177-.189.359-.368.543-.537a2.81 2.81 0 01.214-.174.095.095 0 01.047-.013c.637-.025 1.167-.306 1.62-.86.247-.301.437-.681.58-1.162l.004-.016c.016-.05.024-.079-.011-.111-.027-.025-.075-.018-.198.031l-.342.128c-.233.087-.474.176-.706.277a2.08 2.08 0 00-.923.761c-.17.256-.237.513-.206.784l-.003.011c-.406.35-.794.745-1.192 1.215.265-.406.438-.874.525-1.416a4.554 4.554 0 00.017-1.487 1.53 1.53 0 00-.02-.092l-.012-.055a.07.07 0 00-.046-.05.07.07 0 00-.067.016 5.1 5.1 0 01-.081.074l-.02.017c-.067.062-.132.12-.19.185-.565.638-.895 1.311-1.008 2.06-.051.338-.03.625.066.88.031.083.08.158.13.233l.065.103c.015.025.016.032.016.03-.009.1-.022.212-.04.346a.129.129 0 01-.012.016l-.006.01c-.31.429-.595.882-.851 1.35.1-.35.18-.793.175-1.308a3.468 3.468 0 00-.435-1.684.072.072 0 00-.06-.036.066.066 0 00-.054.028.971.971 0 00-.077.104c-.228.358-.35.752-.431 1.055-.148.556-.216 1.02-.214 1.46 0 .375.07.663.215.907.045.076.102.142.16.21.03.035.06.07.09.108a.148.148 0 01.029.067c.004.09.002.18 0 .267l-.001.06c0 .01-.003.023-.007.032a13.35 13.35 0 00-.48 1.375c.02-.16.031-.316.034-.469a3.413 3.413 0 00-.786-2.29l-.113-.137a.067.067 0 00-.052-.025l-.012.001a.068.068 0 00-.052.043l-.03.078a2.518 2.518 0 00-.052.14c-.115.363-.172.758-.184 1.283v.01c-.009.382-.02.905.136 1.405.155.493.427.742.48.786l.005.005c.144.129.237.246.257.322l.025.092c.04.136.015.265-.012.404-.014.07-.029.143-.033.218-.02.298-.045.602-.068.896l-.002.027-.018.224a3.666 3.666 0 00-1.496-2.662.643.643 0 00-.08-.05.068.068 0 00-.103.051 5.64 5.64 0 01-.016.126c-.01.087-.02.17-.02.255a5.366 5.366 0 00.552 2.447c.104.208.24.388.407.535.165.145.343.23.544.26a.074.074 0 01.016.01l.034.065c.04.078.081.158.102.238a.914.914 0 01.017.221l.001.087c.02.68.045.918.154 1.526a2.962 2.962 0 00-.258-.537c-.436-.706-.99-1.185-1.694-1.465a1.482 1.482 0 00-.142-.046l-.01-.003a6.53 6.53 0 01-.068-.02.068.068 0 00-.088.072l.012.141c.007.1.014.195.038.29.227.877.603 1.575 1.15 2.135.233.24.479.377.752.42.068.01.152.012.295.003l.04-.002h.018c.01 0 .012 0 .02.01l.19.262c.003.004.006.016.009.025l.002.01c.198.67.444 1.316.733 1.93a3.782 3.782 0 00-.432-.499c-.732-.71-1.983-.73-2.124-.73H.686l-.011.002a.068.068 0 00-.043.083c.01.033.02.066.03.105.02.072.04.148.07.22.138.347.363.68.707 1.05.237.253.503.51.85.672.38.179.722.222 1.063.135a.623.623 0 00.182-.072c.041-.026.052-.025.092.005.048.035.098.065.148.094l.08.048c.004.003.012.017.016.023.306.499.642.962 1.006 1.385a2.156 2.156 0 00-.613-.316c-.656-.21-1.343-.184-2.024.08a2.22 2.22 0 00-.22.102.068.068 0 00-.016.098l.061.084.005.006c.046.062.098.133.156.196.263.282.587.47.899.633a3.03 3.03 0 001.362.357c.4 0 .713-.132.955-.402a.05.05 0 01.019-.006c.092.006.18.02.245.03a.07.07 0 01.03.016c.403.356.83.67 1.275.935a2.29 2.29 0 00-.208-.051c-.476-.091-.962-.034-1.495.178-.36.143-.695.354-1.024.644a.068.068 0 00-.008.093c.116.148.267.231.4.293.324.15.69.246 1.117.294.002 0 .14.012.332.012.14 0 .27-.006.385-.018.111-.012.222-.031.33-.057.493-.12.828-.367 1.02-.75a.1.1 0 01.036-.017c.09-.022.17-.038.245-.048a.135.135 0 01.069.013 7.82 7.82 0 001.087.327.068.068 0 00.06-.036c.035-.065.078-.128.128-.187a.068.068 0 00-.037-.11z" fill="#fff"/><path d="M17.329 15.675l2.82-2.749a.35.35 0 00-.195-.598l-3.896-.566-1.743-3.531a.35.35 0 00-.63 0l-1.742 3.53-3.897.567a.351.351 0 00-.195.598l2.82 2.749-.665 3.881a.35.35 0 00.509.37L14 18.094l3.485 1.832a.35.35 0 00.51-.37l-.666-3.881z" fill="#fff"/></g><defs><clipPath id="clip0"><path fill="#fff" d="M0 0h28v28H0z"/></clipPath></defs></svg>