<svg width="55" height="55" fill="none" xmlns="http://www.w3.org/2000/svg"><g clip-path="url(#clip0)"><path d="M27.5 55C12.315 55 0 42.685 0 27.5S12.315 0 27.5 0 55 12.315 55 27.5 42.685 55 27.5 55z" fill="#3B579D"/><path d="M34.65 55V33.7h7.15l1.073-8.3H34.65v-5.302c0-2.403.666-4.042 4.114-4.042h4.395v-7.42c-.76-.099-3.372-.324-6.408-.324-6.336 0-10.675 3.866-10.675 10.972v6.122h-7.167v8.3h7.167V55h8.574z" fill="#fff"/></g><defs><clipPath id="clip0"><path fill="#fff" d="M0 0h55v55H0z"/></clipPath></defs></svg>