<svg width="69" height="69" fill="none" xmlns="http://www.w3.org/2000/svg"><path d="M60.096 27.822h-42.29v-4.451h22.258l4.452-6.678h15.58v11.13zm-47.854 3.339h5.564v26.71h-5.564V31.16z" fill="#E81618"/><path d="M37.839 4.452H12.242v14.467h25.597v-7.79h10.016V4.452H37.839z" fill="#E81618"/><path d="M38.952 31.161c-9.205 0-16.694 7.489-16.694 16.694 0 9.205 7.489 16.693 16.694 16.693 9.205 0 16.693-7.489 16.693-16.693 0-9.205-7.488-16.694-16.693-16.694zm-10.016 27.11v-5.148c0-.55.41-1.024.956-1.1l6.834-.977v-2.55c.683.3 1.434.472 2.226.472s1.543-.172 2.226-.472v2.55l6.835.977c.544.076.955.55.955 1.1v5.147c-2.602 2.503-6.129 4.052-10.016 4.052-3.888 0-7.414-1.549-10.016-4.052zM42.29 43.402a3.343 3.343 0 01-3.34 3.339 3.343 3.343 0 01-3.338-3.339v-2.226a3.343 3.343 0 013.339-3.338 3.343 3.343 0 013.339 3.338v2.226zm8.903 12.126v-2.406a3.355 3.355 0 00-2.867-3.305l-4.923-.703v-2.407a5.513 5.513 0 001.112-3.305v-2.226a5.571 5.571 0 00-5.564-5.564 5.571 5.571 0 00-5.565 5.564v2.226a5.51 5.51 0 001.113 3.305v2.407l-4.923.704a3.354 3.354 0 00-2.867 3.304v2.406a14.361 14.361 0 01-2.226-7.674c0-7.978 6.49-14.468 14.468-14.468 7.977 0 14.468 6.49 14.468 14.468 0 2.821-.824 5.447-2.226 7.674zm-5.564-35.496h11.129v2.226h-11.13v-2.226z" fill="#fff"/><path d="M52.307 15.58V0H7.79v63.435A5.571 5.571 0 0013.355 69h42.29a5.571 5.571 0 005.565-5.565V15.581h-8.903zM13.355 66.775a3.343 3.343 0 01-3.339-3.339V2.225h40.065v13.356h-6.16l-4.452 6.677H16.694v7.79h-4.452v2.226h4.452V34.5h-4.452v2.226h4.452v2.226h-4.452v2.225h4.452v2.226h-4.452v2.226h4.452v2.226h-4.452v2.226h4.452v2.225h-4.452v2.226h4.452v2.226h-4.452v2.226h4.452v4.451a3.343 3.343 0 01-3.339 3.34zm45.63-3.339a3.343 3.343 0 01-3.34 3.34h-37.84a5.543 5.543 0 001.115-3.34V24.484h21.74l4.452-6.678h13.872v45.63z" fill="#fff"/><path d="M16.693 4.452h31.162v2.225H16.693V4.452zm-4.451 0h2.225v2.225h-2.225V4.452zm0 4.451h31.161v2.226H12.242V8.903zm33.387 0h2.226v2.226h-2.226V8.903zm-33.387 4.452h25.596v2.226H12.243v-2.226zm0 4.452h25.596v2.225H12.243v-2.225z" fill="#fff"/></svg>