<svg width="55" height="55" fill="none" xmlns="http://www.w3.org/2000/svg"><path d="M27.5 55C42.688 55 55 42.688 55 27.5S42.688 0 27.5 0 0 12.312 0 27.5 12.312 55 27.5 55z" fill="url(#paint0_linear)"/><path d="M35.377 44.688H19.622c-5.133 0-9.31-4.177-9.31-9.31V19.621c0-5.133 4.177-9.31 9.31-9.31h15.755c5.134 0 9.31 4.177 9.31 9.31v15.756c0 5.133-4.176 9.31-9.31 9.31zm-15.755-31.51a6.453 6.453 0 00-6.445 6.444v15.756a6.453 6.453 0 006.445 6.445h15.755a6.453 6.453 0 006.446-6.445V19.622a6.453 6.453 0 00-6.446-6.445H19.622z" fill="#fff"/><path d="M27.5 36.094c-4.739 0-8.594-3.856-8.594-8.594 0-4.739 3.855-8.594 8.594-8.594 4.739 0 8.594 3.855 8.594 8.594 0 4.738-3.855 8.594-8.594 8.594zm0-14.323a5.735 5.735 0 00-5.729 5.729c0 3.16 2.57 5.729 5.729 5.729 3.16 0 5.729-2.57 5.729-5.729 0-3.16-2.57-5.729-5.729-5.729zm9.13-1.433a1.97 1.97 0 10.001-3.938 1.97 1.97 0 000 3.938z" fill="#fff"/><defs><linearGradient id="paint0_linear" x1="11.726" y1="50.029" x2="43.275" y2="4.972" gradientUnits="userSpaceOnUse"><stop stop-color="#FFB900"/><stop offset="1" stop-color="#9100EB"/></linearGradient></defs></svg>