<svg width="55" height="55" fill="none" xmlns="http://www.w3.org/2000/svg"><path d="M27.5 55C12.315 55 0 42.685 0 27.5S12.315 0 27.5 0 55 12.315 55 27.5 42.685 55 27.5 55z" fill="red"/><path d="M45.001 18.65a4.58 4.58 0 00-3.228-3.25c-2.85-.77-14.267-.77-14.267-.77s-11.424 0-14.267.77a4.58 4.58 0 00-3.229 3.25c-.77 2.866-.77 8.85-.77 8.85s0 5.984.765 8.85a4.58 4.58 0 003.228 3.25c2.85.77 14.267.77 14.267.77s11.424 0 14.267-.77a4.58 4.58 0 003.229-3.25c.764-2.866.764-8.85.764-8.85s0-5.984-.759-8.85zM23.766 32.928V22.071l9.542 5.429-9.542 5.428z" fill="#fff"/></svg>