<svg width="32" height="32" fill="none" xmlns="http://www.w3.org/2000/svg"><path d="M32 0H0v32h32V0z" fill="#7D3DAF"/><path d="M26.12 10.315l-.006-.025c-.512-2.067-2.816-4.284-4.932-4.746l-.024-.004a27.407 27.407 0 00-10.317 0l-.024.004c-2.116.462-4.42 2.68-4.932 4.746l-.006.025a20.192 20.192 0 000 8.699l.006.025c.49 1.978 2.623 4.094 4.66 4.675v2.307c0 .835 1.018 1.245 1.596.643l2.337-2.43a27.195 27.195 0 006.68-.445l.024-.005c2.116-.461 4.42-2.679 4.932-4.745l.006-.025a20.194 20.194 0 000-8.699zm-1.85 8.28c-.34 1.348-2.09 3.024-3.48 3.334a25.548 25.548 0 01-5.488.443.13.13 0 00-.097.04l-1.707 1.751-1.815 1.863a.212.212 0 01-.365-.147v-3.821a.132.132 0 00-.107-.129h-.002c-1.39-.31-3.139-1.986-3.481-3.334a18.324 18.324 0 010-7.862C8.07 9.385 9.82 7.71 11.209 7.4a25.526 25.526 0 019.58 0c1.391.31 3.14 1.985 3.481 3.333.57 2.61.57 5.253 0 7.862z" fill="#fff"/><path d="M19.024 20.359c-.214-.065-.418-.109-.607-.187-1.96-.813-3.764-1.862-5.193-3.47-.813-.915-1.449-1.948-1.986-3.04-.255-.519-.47-1.057-.69-1.592-.2-.488.095-.992.405-1.36.29-.345.664-.609 1.07-.803.316-.152.627-.065.858.203.5.58.958 1.189 1.329 1.86.228.413.166.918-.248 1.199-.1.068-.192.149-.286.226a.939.939 0 00-.216.227.623.623 0 00-.041.547c.51 1.403 1.37 2.493 2.781 3.08.226.094.453.203.713.173.436-.05.577-.529.882-.778.298-.244.68-.248 1.001-.044.322.203.633.422.943.642.304.217.607.43.888.676.27.238.362.55.21.872-.278.59-.682 1.081-1.266 1.395-.165.088-.362.117-.547.174-.214-.065.185-.057 0 0zM16.005 9.232c2.564.071 4.67 1.773 5.121 4.308.077.432.105.873.139 1.312.014.184-.09.36-.29.362-.205.002-.297-.17-.31-.354-.027-.365-.045-.731-.095-1.093-.266-1.91-1.789-3.49-3.69-3.83-.286-.05-.579-.064-.869-.094-.183-.02-.423-.03-.463-.258-.034-.191.127-.343.308-.353.05-.003.1 0 .15 0 2.563.071-.05 0 0 0z" fill="#fff"/><path d="M19.901 14.283c-.004.032-.006.107-.025.178-.068.257-.458.29-.548.03a.771.771 0 01-.03-.248c-.002-.543-.12-1.086-.393-1.558a2.899 2.899 0 00-1.216-1.141 3.495 3.495 0 00-.97-.298c-.146-.024-.294-.039-.44-.059-.178-.025-.273-.138-.265-.313a.276.276 0 01.307-.273c.589.034 1.157.16 1.68.438 1.064.563 1.671 1.452 1.849 2.64.008.053.02.107.025.16.01.134.016.268.026.444-.004.032-.01-.176 0 0z" fill="#fff"/><path d="M18.307 14.22c-.215.004-.33-.114-.352-.311-.015-.137-.027-.276-.06-.41a1.153 1.153 0 00-.425-.667 1.112 1.112 0 00-.346-.167c-.158-.045-.321-.033-.478-.071-.17-.042-.265-.18-.238-.34a.308.308 0 01.325-.248c.994.072 1.704.586 1.806 1.756.007.083.015.17-.003.249a.256.256 0 01-.23.21c-.214.003.098-.007 0 0z" fill="#fff"/></svg>