<svg width="55" height="55" fill="none" xmlns="http://www.w3.org/2000/svg"><path d="M27.5 55C42.688 55 55 42.688 55 27.5S42.688 0 27.5 0 0 12.312 0 27.5 12.312 55 27.5 55z" fill="#4D76A1"/><path fill-rule="evenodd" clip-rule="evenodd" d="M26.462 39.561h2.158s.652-.072.985-.43c.306-.33.296-.948.296-.948s-.042-2.897 1.302-3.323c1.325-.42 3.027 2.8 4.83 4.037 1.364.937 2.4.731 2.4.731l4.823-.067s2.522-.155 1.326-2.139c-.098-.162-.696-1.467-3.585-4.148-3.024-2.807-2.619-2.353 1.023-7.207 2.219-2.957 3.105-4.762 2.828-5.535-.264-.736-1.895-.542-1.895-.542l-5.43.034s-.402-.055-.7.124c-.292.175-.48.582-.48.582s-.86 2.288-2.006 4.234c-2.418 4.106-3.384 4.322-3.78 4.067-.918-.594-.689-2.386-.689-3.66 0-3.979.603-5.638-1.175-6.067-.59-.143-1.025-.237-2.534-.252-1.937-.02-3.577.006-4.505.46-.618.303-1.095.977-.805 1.016.36.048 1.172.22 1.603.806.556.757.537 2.457.537 2.457s.32 4.683-.747 5.265c-.732.4-1.736-.415-3.891-4.14-1.105-1.908-1.938-4.017-1.938-4.017s-.161-.394-.448-.605c-.348-.255-.834-.337-.834-.337l-5.16.034s-.774.022-1.059.359c-.253.3-.02.919-.02.919s4.04 9.45 8.613 14.213c4.194 4.366 8.957 4.08 8.957 4.08z" fill="#fff"/></svg>