<svg width="32" height="32" fill="none" xmlns="http://www.w3.org/2000/svg"><path d="M32 0H0v32h32V0z" fill="#1BD741"/><path d="M4.81 27.203l1.567-5.567a11.142 11.142 0 01-1.539-5.662c0-6.163 5.014-11.177 11.177-11.177 6.162 0 11.176 5.014 11.176 11.177 0 6.162-5.014 11.176-11.176 11.176-1.92 0-3.8-.492-5.464-1.425L4.81 27.203zm6.034-3.511l.342.209a9.262 9.262 0 004.829 1.353c5.117 0 9.28-4.163 9.28-9.28 0-5.118-4.163-9.28-9.28-9.28-5.118 0-9.28 4.162-9.28 9.28 0 1.783.506 3.514 1.465 5.007l.23.358-.903 3.207 3.317-.854z" fill="#fff"/><path d="M12.875 10.772l-.725-.04a.877.877 0 00-.623.213c-.352.306-.914.896-1.087 1.665-.257 1.147.14 2.551 1.17 3.956 1.03 1.404 2.95 3.651 6.343 4.61 1.094.31 1.954.101 2.618-.323a2.34 2.34 0 001.019-1.486l.116-.541a.376.376 0 00-.21-.42l-2.451-1.13a.376.376 0 00-.455.112l-.962 1.247a.275.275 0 01-.31.092c-.659-.231-2.866-1.156-4.077-3.489a.278.278 0 01.035-.31l.92-1.064a.375.375 0 00.06-.393L13.2 11a.376.376 0 00-.325-.227z" fill="#fff"/></svg>