<svg width="81" height="81" fill="none" xmlns="http://www.w3.org/2000/svg"><g clip-path="url(#clip0)"><path d="M79.331 21.056a10.148 10.148 0 00-7.139-7.14C65.854 12.182 40.5 12.182 40.5 12.182s-25.354 0-31.692 1.668c-3.403.934-6.205 3.737-7.14 7.206C0 27.394 0 40.538 0 40.538s0 13.21 1.668 19.483a10.15 10.15 0 007.14 7.14c6.404 1.734 31.692 1.734 31.692 1.734s25.354 0 31.692-1.669a10.148 10.148 0 007.14-7.139C81 53.75 81 40.605 81 40.605s.066-13.211-1.669-19.55z" fill="red"/><path d="M32.427 52.682L53.51 40.538 32.427 28.395v24.287z" fill="#fff"/></g><defs><clipPath id="clip0"><path fill="#fff" d="M0 0h81v81H0z"/></clipPath></defs></svg>