<svg width="19" height="17" viewBox="0 0 19 17" fill="none" xmlns="http://www.w3.org/2000/svg">
<path d="M18.75 10.3594C18.75 10.8062 18.3832 11.1719 17.9348 11.1719H14.1033C13.7568 11.1719 13.4511 10.989 13.3288 10.6437L12.7174 8.9375L10.7201 15.661C10.6182 16.0063 10.2921 16.25 9.94565 16.25H9.92527C9.55843 16.2297 9.23234 15.9859 9.15082 15.6203L6.52174 4.26562L4.93207 10.5828C4.85055 10.9485 4.52445 11.1719 4.13723 11.1719H0.815217C0.366848 11.1719 0 10.8062 0 10.3594C0 9.9125 0.366848 9.54688 0.815217 9.54688H3.50544L5.76766 0.589043C5.84918 0.223418 6.19565 0 6.5625 0C6.92935 0 7.25543 0.264082 7.35733 0.629707L10.0476 12.2484L11.8818 6.07342C11.9837 5.72811 12.2894 5.48438 12.6359 5.48438C12.9823 5.46406 13.3084 5.68752 13.4307 6.01252L14.6943 9.54688H17.9552C18.3831 9.54688 18.75 9.9125 18.75 10.3594Z" fill="#B00E0E"/>
</svg>
