<svg width="18" height="19" viewBox="0 0 18 19" fill="none" xmlns="http://www.w3.org/2000/svg">
<path d="M17.7263 17.306L13.289 12.6029C14.4299 11.2207 15.055 9.48166 15.055 7.67124C15.055 3.44139 11.6781 0 7.52752 0C3.37691 0 0 3.44139 0 7.67124C0 11.9011 3.37691 15.3425 7.52752 15.3425C9.08571 15.3425 10.5706 14.8635 11.8401 13.9543L16.3111 18.6932C16.498 18.8909 16.7494 19 17.0187 19C17.2737 19 17.5156 18.9009 17.6992 18.7208C18.0893 18.3383 18.1017 17.7039 17.7263 17.306ZM7.52752 2.00119C10.5955 2.00119 13.0913 4.54471 13.0913 7.67124C13.0913 10.7978 10.5955 13.3413 7.52752 13.3413C4.45956 13.3413 1.9637 10.7978 1.9637 7.67124C1.9637 4.54471 4.45956 2.00119 7.52752 2.00119Z" fill="#87E389"/>
</svg>
