<svg width="20" height="20" viewBox="0 0 20 20" fill="none" xmlns="http://www.w3.org/2000/svg">
<path d="M10.125 0.75C4.94837 0.75 0.75 4.94837 0.75 10.125C0.75 15.3016 4.94837 19.5 10.125 19.5C15.3016 19.5 19.5 15.3016 19.5 10.125C19.5 4.94837 15.3016 0.75 10.125 0.75ZM10.125 17.8696C5.84511 17.8696 2.38043 14.4049 2.38043 10.125C2.38043 5.84511 5.84511 2.38043 10.125 2.38043C14.4049 2.38043 17.8696 5.84511 17.8696 10.125C17.8696 14.4049 14.4049 17.8696 10.125 17.8696ZM13.2432 12.0815C13.5693 12.4076 13.5693 12.9171 13.2432 13.2432C13.0802 13.4063 12.8764 13.4878 12.6726 13.4878C12.4688 13.4878 12.2649 13.4063 12.1019 13.2432L9.57474 10.716C9.4117 10.553 9.33016 10.3492 9.33016 10.1454V5.29485C9.33016 4.84648 9.69701 4.47963 10.1454 4.47963C10.5937 4.47963 10.9606 4.84648 10.9606 5.29485V9.81929L13.2432 12.0815Z" fill="#5D830C"/>
</svg>
