<svg width="21" height="21" viewBox="0 0 21 21" fill="none" xmlns="http://www.w3.org/2000/svg">
<path d="M19.1645 16.0783L18.7391 13.3081C18.7055 13.0885 18.7594 12.8644 18.8889 12.684L20.5248 10.4083C20.7798 10.0536 20.7236 9.56331 20.3954 9.27519L18.2889 7.42647C18.122 7.27991 18.0191 7.07373 18.0025 6.85227L17.7928 4.05752C17.7603 3.6219 17.4022 3.28233 16.9655 3.27253L14.1633 3.21041C13.9413 3.20531 13.73 3.11348 13.5748 2.95468L11.6179 0.94864C11.3128 0.636063 10.8203 0.605916 10.4794 0.87925L8.29311 2.63244C8.11985 2.77136 7.89892 2.83681 7.67787 2.81475L4.88911 2.53594C4.45434 2.49248 4.05773 2.78604 3.97242 3.21439L3.42443 5.96297C3.38113 6.1808 3.25385 6.37303 3.07036 6.49823L0.754962 8.07737C0.394008 8.32347 0.279148 8.80332 0.488997 9.18648L1.83603 11.6441C1.94285 11.839 1.969 12.0679 1.90886 12.2818L1.15016 14.9798C1.03173 15.4003 1.25223 15.842 1.65907 16.0003L4.27076 17.0171C4.47775 17.0976 4.64475 17.2563 4.73652 17.4587L5.88929 20.0131C6.06907 20.4111 6.52187 20.6079 6.93535 20.4677L9.58956 19.5679C9.7999 19.4965 10.0299 19.5106 10.2302 19.6072L12.7552 20.8228C13.1489 21.0124 13.622 20.8719 13.8487 20.4988L15.3036 18.1034C15.4191 17.9134 15.6042 17.7764 15.8194 17.7214L18.5352 17.0296C18.9585 16.9216 19.2308 16.5101 19.1645 16.0783ZM6.81443 13.4159L5.23474 10.8458L5.22796 13.4116L4.49012 13.4097L4.50019 9.47537L5.27299 9.47717L6.87681 12.1088L6.88332 9.48141L7.62125 9.4831L7.61149 13.4178L6.81443 13.4159ZM8.45144 13.4199L8.46151 9.48556L11.379 9.49274L11.377 10.1584L9.25393 10.1529L9.25174 11.025L11.2273 11.0299L11.2255 11.6929L9.25008 11.6877L9.24737 12.7586L11.4454 12.7642L11.4436 13.4272L8.45144 13.4199ZM15.1021 13.437L14.326 10.4932L13.5373 13.4326L12.6759 13.4305L11.7467 9.49393L12.5598 9.49567L13.1461 12.1999L13.8722 9.49929L14.8173 9.50174L15.4999 12.2517L16.1107 9.50497L16.9105 9.50694L15.9448 13.4391L15.1021 13.437Z" fill="#C25202"/>
</svg>
