<svg width="22" height="20" viewBox="0 0 22 20" fill="none" xmlns="http://www.w3.org/2000/svg">
<path d="M19.0383 17.2787C19.0383 16.3834 18.3134 15.6584 17.418 15.6584H4.58366C3.68831 15.6584 2.96338 16.3834 2.96338 17.2787C2.96338 18.1741 3.68831 18.899 4.58366 18.899H17.418C18.314 18.899 19.0383 18.1714 19.0383 17.2787Z" stroke="#EEAB01"/>
<path d="M3.67925 14.77L3.78061 15.1369H4.16119H11.001H17.8388H18.2194L18.3208 14.77L20.0035 8.67984C20.8548 8.52211 21.5 7.77527 21.5 6.87842C21.5 5.86696 20.6794 5.0463 19.6679 5.0463C18.6565 5.0463 17.8358 5.86696 17.8358 6.87842C17.8358 6.93093 17.838 6.98324 17.8425 7.03519L15.3622 8.48526L12.3784 3.53866C12.6605 3.21675 12.8332 2.79421 12.8332 2.33212C12.8332 1.32066 12.0125 0.5 11.001 0.5C9.98961 0.5 9.16892 1.32066 9.16892 2.33212C9.16892 2.79523 9.3403 3.21752 9.62316 3.53946L6.63984 8.48526L4.15931 7.03501C4.16387 6.98361 4.16627 6.93136 4.16627 6.87842C4.16627 5.86696 3.34561 5.0463 2.33415 5.0463C1.32116 5.0463 0.5 5.86646 0.5 6.87842C0.5 7.77525 1.14518 8.52211 1.99653 8.67984L3.67925 14.77Z" stroke="#EEAB01"/>
</svg>
