<svg width="28" height="20" viewBox="0 0 28 20" fill="none" xmlns="http://www.w3.org/2000/svg">
<path d="M19.9028 2.45465C19.9028 1.91894 19.4466 1.48063 18.889 1.48063H1.01382C0.456221 1.48063 0 1.91894 0 2.45465V15.1169C0 15.6526 0.456221 16.0909 1.01382 16.0909H18.889C19.4466 16.0909 19.9028 15.6526 19.9028 15.1169V2.45465ZM17.8751 14.1429H2.02765V3.42867H17.8751V14.1429ZM14.2 18.526C14.2 19.0617 13.7438 19.5 13.1862 19.5H6.74194C6.18433 19.5 5.72811 19.0617 5.72811 18.526C5.72811 17.9903 6.18433 17.552 6.74194 17.552H13.1862C13.7438 17.552 14.2 17.9903 14.2 18.526Z" fill="#0B8B5D"/>
<path d="M25.8525 14.2266V5.71748C26.8157 5.32787 27.5 4.4026 27.5 3.33118C27.5 1.91885 26.3088 0.75 24.8387 0.75C23.3687 0.75 22.1774 1.91885 22.1774 3.33118C22.1774 4.4026 22.8617 5.32787 23.8249 5.71748V5.74185L23.7854 12.4687C22.053 12.4687 20.8176 12.4687 19.9028 12.4687C19.9028 13.3477 19.9028 14.1429 19.9028 14.1429C19.9028 14.1429 19.9479 14.2266 25.8525 14.2266ZM24.8387 2.21103C25.4724 2.21103 25.9793 2.72241 25.9793 3.33118C25.9793 3.93994 25.4724 4.45126 24.8387 4.45126C24.2051 4.45126 23.6982 3.93994 23.6982 3.33118C23.6982 2.72241 24.2051 2.21103 24.8387 2.21103Z" fill="#0B8B5D"/>
</svg>
