<svg width="19" height="19" viewBox="0 0 19 19" fill="none" xmlns="http://www.w3.org/2000/svg">
<path d="M18.75 1.77273C18.75 1.20455 18.263 0.75 17.6542 0.75H1.09578C0.487013 0.75 0 1.20455 0 1.77273V17.2273C0 17.7955 0.487013 18.25 1.09578 18.25H17.6542C18.263 18.25 18.75 17.7955 18.75 17.2273V1.77273ZM16.5584 16.2045H2.19156V2.79545H16.5584V16.2045Z" fill="#1440B3"/>
<path d="M5.82576 8.44306C5.51583 8.15379 5.32644 7.71987 5.32644 7.30204C5.32644 6.8842 5.51583 6.48245 5.82576 6.19318C6.13569 5.90391 6.58338 5.7432 7.03106 5.71106C7.47874 5.71106 7.9092 5.88784 8.23635 6.19318C8.54629 6.48245 8.71848 6.90029 8.73569 7.30206C8.73569 7.71989 8.5635 8.13772 8.23635 8.44306C7.92642 8.73234 7.47876 8.89303 7.03108 8.89303C6.5834 8.92517 6.13569 8.73234 5.82576 8.44306ZM11.1807 12.766C11.6284 12.766 12.0761 12.6053 12.386 12.3161C12.6959 12.0268 12.8681 11.609 12.8854 11.1751C12.8854 10.7572 12.6959 10.3555 12.386 10.0662C12.0761 9.77692 11.6112 9.60014 11.1807 9.58407C10.733 9.58407 10.3026 9.76085 9.97542 10.0662C9.66549 10.3555 9.49332 10.7733 9.4761 11.175C9.4761 11.5929 9.64827 12.0107 9.97542 12.3161C10.2681 12.5893 10.7158 12.7821 11.1807 12.766Z" fill="#1440B3"/>
</svg>
