<svg width="33" height="34" viewBox="0 0 33 34" fill="none" xmlns="http://www.w3.org/2000/svg">
<g clip-path="url(#clip0)">
<circle cx="17" cy="17.0898" r="13" fill="white"/>
<path d="M16.5645 13.625C14.9651 13.625 13.6641 14.9261 13.6641 16.5254C13.6641 18.1247 14.9651 19.4258 16.5645 19.4258C18.1638 19.4258 19.4648 18.1247 19.4648 16.5254C19.4648 14.9261 18.1638 13.625 16.5645 13.625Z" fill="#277EBC"/>
<path d="M16.4355 0.0898438C7.37279 0.0898438 0 7.46264 0 16.5254C0 25.5881 7.37279 33.0898 16.4355 33.0898C25.4983 33.0898 33 25.5881 33 16.5254C33 7.46264 25.4983 0.0898438 16.4355 0.0898438ZM23.332 21.3594C22.0254 21.3594 20.873 20.7045 20.1727 19.7096C19.2863 20.713 18.0052 21.3594 16.5645 21.3594C13.8991 21.3594 11.7305 19.1907 11.7305 16.5254C11.7305 13.8601 13.8991 11.6914 16.5645 11.6914C17.6568 11.6914 18.6544 12.0694 19.4648 12.6829V12.6582C19.4648 12.1238 19.8973 11.6914 20.4316 11.6914C20.966 11.6914 21.3984 12.1238 21.3984 12.6582C21.3984 14.8084 21.3984 15.3411 21.3984 17.4922C21.3984 18.5581 22.2661 19.4258 23.332 19.4258C24.398 19.4258 25.2656 18.5581 25.2656 17.4922C25.2656 11.0217 20.9839 7.82422 16.5645 7.82422C11.7664 7.82422 7.86328 11.7273 7.86328 16.5254C7.86328 21.3235 11.7664 25.2266 16.5645 25.2266C18.498 25.2266 20.3268 24.6072 21.8535 23.4346C22.8733 22.6561 24.0411 24.1929 23.0318 24.9678C21.1634 26.402 18.9276 27.1602 16.5645 27.1602C10.7004 27.1602 5.92969 22.3894 5.92969 16.5254C5.92969 10.6614 10.7004 5.89062 16.5645 5.89062C21.9074 5.89062 27.1992 9.83097 27.1992 17.4922C27.1992 19.625 25.4648 21.3594 23.332 21.3594Z" fill="#277EBC"/>
</g>
<defs>
<clipPath id="clip0">
<rect width="33" height="33" fill="white" transform="translate(0 0.0898438)"/>
</clipPath>
</defs>
</svg>
