<svg width="75" height="75" viewBox="0 0 75 75" fill="none" xmlns="http://www.w3.org/2000/svg">
<path d="M14.857 24.5097C15.1969 25.1015 15.9529 25.3055 16.5447 24.9656L20.8288 22.4923C21.42 22.1512 21.6229 21.3946 21.2811 20.8034L18.1895 15.4475C17.8483 14.8557 17.0917 14.6534 16.5006 14.9946L12.2164 17.4679C11.6253 17.8096 11.4224 18.5656 11.7642 19.1574L14.857 24.5097ZM16.6685 17.7523L18.5234 20.9677L16.3816 22.2043L14.5267 18.9889L16.6685 17.7523Z" fill="#87E389"/>
<path d="M18.8525 26.4857L20.9943 25.249L22.2309 27.3914L20.0886 28.6274L18.8525 26.4857Z" fill="#87E389"/>
<path d="M45.4942 13.8352C46.0564 14.1601 46.694 14.3309 47.3431 14.3297C47.6692 14.3309 47.9934 14.2893 48.3086 14.2066C49.2609 13.9529 50.0718 13.3298 50.5621 12.4748L51.1804 11.4042C52.2045 9.62834 51.5959 7.35855 49.82 6.33386C48.0442 5.30917 45.7744 5.91843 44.7497 7.69428L44.1314 8.76487C43.6393 9.61807 43.5064 10.6319 43.7618 11.5829C44.0173 12.534 44.641 13.3443 45.4942 13.8352ZM46.2798 10.0015L46.8981 8.93092C47.1113 8.5342 47.5243 8.28482 47.9747 8.27999C48.4252 8.27577 48.843 8.51669 49.064 8.90978C49.2856 9.30227 49.2754 9.78413 49.0387 10.1676L48.4204 11.2381C48.0786 11.8281 47.3244 12.031 46.7333 11.691C46.1415 11.3498 45.938 10.5933 46.2798 10.0015Z" fill="#87E389"/>
<path d="M41.9509 17.4972L43.1876 15.3555L45.3293 16.5921L44.0933 18.7339L41.9509 17.4972Z" fill="#87E389"/>
<path d="M74.4565 16.9434C74.0381 15.356 73.0001 14.0028 71.5751 13.1864L59.239 6.06377C58.2342 3.87552 56.0514 2.46982 53.644 2.46016H52.9961L50.1593 0.821387C47.459 -0.729831 44.0257 -0.0275864 42.1508 2.46016H39.1686C37.2949 -0.0263787 33.864 -0.729831 31.1637 0.818972L28.2267 2.51209C26.5143 2.70048 24.9594 3.60017 23.9432 4.99138L23.4263 5.28906L22.11 4.53127C20.6922 3.70886 19.0058 3.48484 17.4219 3.90873C15.8387 4.33201 14.4886 5.36816 13.6704 6.78835L10.0843 12.9962L9.74918 13.1864C7.72758 14.3506 6.53866 16.5576 6.67814 18.8859L1.30534 28.2029C0.481121 29.6231 0.255896 31.3126 0.679174 32.8994C1.10245 34.4856 2.13921 35.8388 3.56061 36.66L18.6628 45.3786C18.8729 47.3416 20.0069 49.0873 21.7157 50.0775L22.7283 50.6638V53.1618C22.7326 56.5746 25.4987 59.3408 28.9115 59.345H29.2617L29.7453 60.1843C30.5605 61.6093 31.9137 62.6473 33.5011 63.0657C34.0252 63.2064 34.5656 63.2783 35.1085 63.2783C36.1905 63.2777 37.2533 62.9903 38.188 62.445L40.6612 61.0182L43.1327 62.4366C43.312 62.5404 43.4968 62.6243 43.6821 62.7095C42.5506 65.6211 42.5947 68.8576 43.8059 71.7372L44.8173 74.1845H47.4983L46.0739 70.7771C45.0643 68.3763 45.0776 65.6676 46.1107 63.2771C46.1518 63.2771 46.191 63.2861 46.2345 63.2861C47.0672 63.2825 47.8908 63.1092 48.6546 62.7777C47.5375 65.6718 47.5871 68.8866 48.7917 71.7457L49.8206 74.1845H52.5052L51.0645 70.7771C49.7457 67.6614 50.1793 64.0789 52.2039 61.3678C52.5728 60.8757 52.5239 60.1867 52.0885 59.7514L43.4322 51.095C42.2106 49.8692 42.2106 47.8863 43.4322 46.6605C44.6742 45.4782 46.6252 45.4782 47.8666 46.6605L58.9963 57.7901L60.7449 56.0415L59.5729 54.8695C59.7384 54.3151 59.8241 53.7403 59.8271 53.1618V49.9278C60.8421 49.2865 61.6464 48.3603 62.1386 47.2655C63.8383 49.2726 64.7718 51.8171 64.7736 54.448V74.1845H67.2469V54.448C67.2493 51.1662 66.0628 47.9956 63.9084 45.5205L62.6397 43.9922C62.563 43.3045 62.3686 42.6348 62.0643 42.0135L73.831 21.6279C74.6588 20.2131 74.884 18.5254 74.4565 16.9434ZM25.2016 8.64329C25.1992 8.27677 25.2517 7.91206 25.3562 7.56124C25.4667 7.22431 25.6218 6.90429 25.8175 6.60902C26.472 5.60124 27.5764 4.97568 28.7768 4.93341C28.8221 4.931 28.8668 4.931 28.9115 4.93341H40.6322L35.0674 14.5789C35.0559 14.5058 35.0372 14.4333 35.0119 14.3639L32.5386 8.18076C32.3514 7.71039 31.8961 7.40183 31.3901 7.40183C30.8835 7.40183 30.4283 7.71039 30.2411 8.18076L27.7678 14.3639C27.6144 14.7443 27.6597 15.1766 27.8892 15.5166C28.118 15.8571 28.5015 16.0618 28.9115 16.0631H33.858C33.9914 16.0606 34.1236 16.0359 34.2492 15.9912L32.6213 18.8104V18.5363H30.1481V21.0096H31.3527L25.2016 31.6652V8.64329ZM32.032 13.5898H30.738L31.3847 11.9722L32.032 13.5898ZM15.8109 8.02498C16.3019 7.17299 17.1116 6.55165 18.0614 6.29805C19.0112 6.04444 20.0232 6.17849 20.8734 6.67181L20.9501 6.7165L14.3738 10.5091L15.8109 8.02498ZM18.972 42.7025L4.79724 34.5195C3.02019 33.4924 2.41154 31.2196 3.43743 29.4419L7.71007 22.0294L10.4092 26.7114C8.95274 26.549 7.53919 27.267 6.81219 28.5392L5.57556 30.681C5.41132 30.966 5.36785 31.3041 5.45359 31.6217C5.53994 31.9387 5.74886 32.2086 6.03386 32.3717L11.3886 35.4632C11.9803 35.8044 12.7369 35.6009 13.078 35.0092L14.1402 33.1705L19.1151 41.7997C19.135 41.8414 19.1561 41.8825 19.1797 41.9229L19.2461 42.0346C19.1416 42.2508 19.0498 42.4736 18.972 42.7012V42.7025ZM10.6495 29.3242L11.7213 29.9425C12.313 30.2843 12.5153 31.0402 12.1741 31.632L11.5558 32.7032L8.34046 30.8482L8.95878 29.777C9.29994 29.1865 10.0553 28.9836 10.6471 29.3242H10.6495ZM9.62902 20.3912C9.39292 19.9867 9.23412 19.5417 9.16045 19.0791L9.15321 19.0073C8.95938 17.5261 9.67793 16.0745 10.9731 15.3306L11.6041 14.9719C11.6518 14.9448 11.6977 14.9146 11.7412 14.8808L22.7362 8.54064C22.7362 8.57506 22.7283 8.60706 22.7283 8.64208V35.9493L20.662 39.5276L9.62902 20.3912ZM28.9115 56.8717C26.8627 56.8717 25.2016 55.2106 25.2016 53.1618V52.0919L33.4872 56.8717H28.9115ZM36.9495 60.3032C35.344 61.2422 33.2892 60.8298 32.1691 59.345H37.7647L38.188 59.5919L36.9495 60.3032ZM57.3539 52.6498L56.4475 51.7435C56.459 51.726 56.4723 51.7085 56.4838 51.6903L57.349 50.1814L57.3539 52.6498ZM59.8271 46.3785V45.8955L60.1622 45.314C60.1061 45.6841 59.9926 46.0428 59.8271 46.3785ZM71.6916 20.3912L59.5802 41.3644L59.5482 41.4211L54.6349 49.9362L49.6105 44.9118C47.4204 42.7218 43.8687 42.7218 41.6787 44.9118C39.4886 47.1025 39.4886 50.6536 41.6787 52.8436L48.6818 59.8456C47.4977 60.9282 45.7466 61.1124 44.3633 60.3008L22.9463 47.9346C21.7803 47.2595 21.0708 46.0066 21.0914 44.66C21.0992 44.0297 21.2701 43.4125 21.5859 42.8679L43.8452 4.31631C44.8729 2.53986 47.1451 1.93121 48.9227 2.9559L70.3427 15.3222C71.1953 15.8137 71.8172 16.6246 72.0702 17.5762C72.3238 18.5272 72.1873 19.5405 71.6916 20.3912Z" fill="#87E389"/>
<path d="M53.3753 21.5801C53.173 21.0046 52.5813 20.6629 51.9817 20.7752L42.3072 22.5854C40.4052 22.9411 38.9252 24.444 38.5986 26.3515C38.2725 28.2595 39.1686 30.1688 40.8448 31.1367L41.3061 31.4036C42.0591 31.8348 42.9183 32.0455 43.7854 32.0123C42.6768 32.9072 41.3943 33.5617 40.02 33.9349C39.5363 34.0647 39.1788 34.4723 39.1136 34.968C39.0484 35.4643 39.2887 35.9504 39.7217 36.2004L46.1524 39.9103C46.3408 40.0184 46.5533 40.0745 46.7707 40.0751C47.1547 40.0751 47.517 39.8964 47.7513 39.5915C47.985 39.2865 48.0641 38.8904 47.965 38.5191C47.6009 37.1424 47.5267 35.7047 47.7477 34.2971C48.1516 35.0652 48.7633 35.7028 49.5132 36.1388L49.9746 36.4057C51.6508 37.376 53.7545 37.1991 55.2447 35.9619C56.7355 34.7247 57.2971 32.6898 56.6522 30.8632L53.3753 21.5801ZM45.1494 36.4775L43.193 35.352C43.9255 34.9758 44.6199 34.5302 45.2666 34.0206C45.1482 34.8339 45.109 35.657 45.1494 36.4775ZM54.1458 33.4766C53.5498 34.5037 52.2353 34.8551 51.2064 34.2627L50.7462 33.9971C50.3779 33.7851 50.0808 33.4681 49.893 33.0865L48.3708 30.01C48.3382 29.9539 48.3014 29.9007 48.2603 29.8506C48.2325 29.8041 48.2017 29.76 48.1679 29.7184C47.9982 29.533 47.7766 29.4038 47.5321 29.347C47.4947 29.3416 47.4572 29.3392 47.4198 29.3386C47.3413 29.3235 47.2622 29.3168 47.1825 29.3186L43.7516 29.5402C43.3277 29.5662 42.9056 29.4672 42.5373 29.2558L42.076 28.9896C41.2976 28.5385 40.8822 27.6509 41.0338 26.7645C41.1853 25.8775 41.8725 25.1788 42.7565 25.0116L51.3905 23.3964L54.3064 31.682C54.5177 32.275 54.4591 32.9307 54.1458 33.4766Z" fill="#87E389"/>
</svg>
