<svg width="77" height="75" viewBox="0 0 77 75" fill="none" xmlns="http://www.w3.org/2000/svg">
<path fill-rule="evenodd" clip-rule="evenodd" d="M70.4555 5.437C72.4731 5.75329 74.2511 6.84074 75.4613 8.49997C76.6721 10.1592 77.1644 12.1838 76.8481 14.2009L72.0113 45.0604C71.419 48.8372 68.1438 51.5447 64.4313 51.5447C64.0413 51.5447 63.6467 51.5149 63.2491 51.4529L46.9164 48.8957V66.6292C46.9164 70.8598 43.4746 74.301 39.244 74.301H7.98289C3.75237 74.301 0.310547 70.8598 0.310547 66.6292V35.3961C0.310547 31.168 3.75237 27.7279 7.98289 27.7285H27.5575L30.8046 6.99684C31.1215 4.97805 32.2107 3.20013 33.8729 1.98991C35.5339 0.780855 37.5579 0.290335 39.575 0.608969L50.3079 2.29626C51.1235 2.4243 51.6807 3.18961 51.5527 4.00519C51.4246 4.82078 50.6581 5.37795 49.8437 5.24991L39.1096 3.56261C37.8812 3.36851 36.6476 3.66843 35.6333 4.40685C34.6171 5.14701 33.9512 6.23095 33.7589 7.45988L30.5837 27.7279H39.244C43.4746 27.7279 46.9164 31.168 46.9164 35.3961V45.869L63.7098 48.4987C63.9525 48.5367 64.1933 48.5548 64.4313 48.5548C66.6968 48.5548 68.6957 46.9026 69.057 44.5973L73.8938 13.7373C74.0868 12.5101 73.7857 11.2759 73.0461 10.2621C72.3059 9.24832 71.222 8.58358 69.9931 8.39123L61.5887 7.07694C60.7731 6.94948 60.2148 6.18476 60.3428 5.36918C60.4697 4.55301 61.2368 3.99525 62.0506 4.12271L70.4555 5.437ZM39.244 71.3111C41.8259 71.3111 43.9265 69.2105 43.9265 66.6292H43.9259V35.3961C43.9259 32.8167 41.8259 30.7184 39.244 30.7184H28.8432H28.8385H28.8326H7.98289C5.40108 30.7184 3.30044 32.8167 3.30044 35.3961V66.6292C3.30044 69.2105 5.40108 71.3111 7.98289 71.3111H39.244ZM37.3681 13.3946C37.747 11.0058 39.995 9.36875 42.3803 9.73942L42.3827 9.74L42.385 9.74059C44.7686 10.1194 46.4051 12.3662 46.0332 14.7499C45.6953 16.9078 43.825 18.453 41.7033 18.453C41.4794 18.453 41.2525 18.4361 41.0245 18.4004C39.8669 18.2203 38.849 17.6006 38.1586 16.6552C37.4681 15.7104 37.1875 14.5522 37.3681 13.3946ZM41.4852 15.4462C42.2453 15.5649 42.9609 15.0457 43.079 14.2886C43.1971 13.5309 42.6762 12.8153 41.9179 12.6936C41.846 12.6825 41.7746 12.6773 41.7045 12.6773C41.0286 12.6773 40.4311 13.1707 40.3218 13.8594C40.2651 14.2237 40.3539 14.5914 40.5732 14.8913C40.7924 15.1919 41.1163 15.3889 41.4852 15.4462ZM48.0079 28.0058C47.3192 27.0587 47.0409 25.9022 47.2245 24.7481C47.5963 22.3651 49.8431 20.7258 52.2326 21.0982H52.232C53.3902 21.2783 54.4086 21.8991 55.0991 22.8463C55.789 23.7928 56.0696 24.951 55.889 26.108C55.5458 28.2671 53.6726 29.8112 51.5538 29.8112C51.3299 29.8118 51.1042 29.7942 50.8768 29.7586C49.7174 29.5773 48.699 28.9553 48.0079 28.0058ZM52.9353 25.6427C52.992 25.2784 52.9032 24.9095 52.6833 24.6078C52.4635 24.3067 52.1396 24.1097 51.7719 24.0524C51.6994 24.0407 51.6269 24.0355 51.5556 24.0355C50.8803 24.0355 50.2857 24.5271 50.1781 25.2135C50.1197 25.5819 50.2079 25.9467 50.426 26.2466C50.6458 26.5489 50.9697 26.7471 51.3375 26.8044C52.0969 26.9219 52.8143 26.4015 52.9353 25.6427ZM57.5737 40.5692C58.2641 41.5157 59.2826 42.1372 60.4402 42.3173C60.6688 42.3535 60.898 42.3711 61.1254 42.3711C62.0462 42.3711 62.9407 42.0811 63.6996 41.528C64.6473 40.8375 65.2682 39.8202 65.4489 38.6632C65.6295 37.5074 65.3489 36.3498 64.6584 35.4038C63.9674 34.4579 62.9495 33.837 61.7919 33.6563C59.403 33.2839 57.1568 34.9209 56.7838 37.3068C56.6032 38.4644 56.8838 39.6226 57.5737 40.5692ZM59.738 37.7687C59.845 37.0841 60.4396 36.5942 61.1137 36.5942C61.1856 36.5942 61.2581 36.5994 61.3306 36.6111H61.3318C61.6995 36.6684 62.0234 36.866 62.2433 37.1671C62.4625 37.4676 62.552 37.8348 62.4947 38.2019C62.4374 38.5691 62.2398 38.8924 61.9387 39.1117C61.6376 39.3315 61.2687 39.4209 60.9009 39.3631C60.5326 39.3058 60.2093 39.1087 59.9894 38.8076C59.7696 38.506 59.6802 38.137 59.738 37.7687ZM12.1713 36.3175C9.75378 36.3175 7.78702 38.2831 7.78702 40.6995C7.78702 43.1158 9.75378 45.082 12.1713 45.082C14.5912 45.082 16.5597 43.1158 16.5597 40.6995C16.5597 38.2831 14.5912 36.3175 12.1713 36.3175ZM12.1713 42.0915C11.4025 42.0915 10.7769 41.4671 10.7769 40.6995C10.7769 39.9324 11.4025 39.3074 12.1713 39.3074C12.9425 39.3074 13.5698 39.9324 13.5698 40.6995C13.5698 41.4671 12.9425 42.0915 12.1713 42.0915ZM19.2807 50.3961C19.2807 47.9803 21.2474 46.0141 23.665 46.0141C26.0825 46.0141 28.0492 47.9803 28.0492 50.3961C28.0492 52.8153 26.0825 54.7827 23.665 54.7827C21.2474 54.7827 19.2807 52.8148 19.2807 50.3961ZM22.2706 50.3967C22.2706 51.1666 22.8962 51.7928 23.665 51.7928C24.4338 51.7928 25.0594 51.1666 25.0594 50.3967C25.0594 49.629 24.4338 49.0046 23.665 49.0046C22.8962 49.0046 22.2706 49.629 22.2706 50.3967ZM35.052 36.3639C32.6345 36.3639 30.6677 38.3301 30.6677 40.7464C30.6677 43.1628 32.6345 45.1284 35.052 45.1284C37.4718 45.1284 39.4403 43.1628 39.4403 40.7464C39.4403 38.3301 37.4712 36.3639 35.052 36.3639ZM35.052 42.1385C34.2832 42.1385 33.6576 41.5141 33.6576 40.7464C33.6576 39.9788 34.2832 39.3544 35.052 39.3544C35.8231 39.3544 36.4505 39.9788 36.4505 40.7464C36.4505 41.5141 35.8231 42.1385 35.052 42.1385ZM7.78702 61.2791C7.78702 58.8627 9.75378 56.8972 12.1713 56.8972C14.5912 56.8972 16.5597 58.8627 16.5597 61.2791C16.5597 63.6954 14.5912 65.6616 12.1713 65.6616C9.75378 65.6616 7.78702 63.6954 7.78702 61.2791ZM10.7769 61.2791C10.7769 62.0467 11.4025 62.6711 12.1713 62.6711C12.9425 62.6711 13.5698 62.0467 13.5698 61.2791C13.5698 60.5115 12.9425 59.887 12.1713 59.887C11.4025 59.887 10.7769 60.5115 10.7769 61.2791ZM35.052 56.9435C32.6345 56.9435 30.6677 58.9091 30.6677 61.3255C30.6677 63.7418 32.6345 65.708 35.052 65.708C37.4718 65.708 39.4403 63.7418 39.4403 61.3255C39.4403 58.9091 37.4712 56.9435 35.052 56.9435ZM35.052 62.7175C34.2832 62.7175 33.6576 62.0931 33.6576 61.3255C33.6576 60.5578 34.2832 59.9334 35.052 59.9334C35.8231 59.9334 36.4505 60.5578 36.4505 61.3255C36.4505 62.0931 35.8231 62.7175 35.052 62.7175ZM55.7651 6.16804L55.7394 6.16395C54.9249 6.02831 54.3748 5.25775 54.5104 4.44391C54.6461 3.6295 55.4149 3.07876 56.231 3.21498L56.2568 3.21908C57.0706 3.35471 57.6208 4.12528 57.4851 4.9397C57.3635 5.67051 56.7303 6.18909 56.0124 6.18909C55.9305 6.18909 55.8481 6.18207 55.7651 6.16804Z" fill="#87E389"/>
</svg>
