<svg width="33" height="34" viewBox="0 0 33 34" fill="none" xmlns="http://www.w3.org/2000/svg">
<g clip-path="url(#clip0)">
<path d="M16.5 33.0898C25.6127 33.0898 33 25.7025 33 16.5898C33 7.47715 25.6127 0.0898438 16.5 0.0898438C7.3873 0.0898438 0 7.47715 0 16.5898C0 25.7025 7.3873 33.0898 16.5 33.0898Z" fill="#3B5998"/>
<path d="M20.6485 17.2358H17.7042V28.0221H13.2435V17.2358H11.1219V13.4451H13.2435V10.9921C13.2435 9.23789 14.0768 6.49103 17.7439 6.49103L21.0482 6.50485V10.1844H18.6507C18.2575 10.1844 17.7045 10.3809 17.7045 11.2177V13.4486H21.0382L20.6485 17.2358Z" fill="white"/>
</g>
<defs>
<clipPath id="clip0">
<rect width="33" height="33" fill="white" transform="translate(0 0.0898438)"/>
</clipPath>
</defs>
</svg>
