<svg width="72" height="71" viewBox="0 0 72 71" fill="none" xmlns="http://www.w3.org/2000/svg">
<path d="M7.78986 25.8544L0.587379 9.50223C0.347488 8.95768 0.484314 8.32053 0.926765 7.92246C1.36921 7.52424 2.01724 7.45548 2.53341 7.75132C11.4175 12.8419 22.4555 12.8419 31.3396 7.75132C36.1335 5.00432 41.5876 3.55241 47.1128 3.55241C51.86 3.55241 56.5544 4.62526 60.823 6.66939V3.28799C60.823 1.61645 62.1829 0.256592 63.8544 0.256592H67.9881C69.6597 0.256592 71.0195 1.61645 71.0195 3.28799V69.4277C71.0195 70.1887 70.4025 70.8056 69.6416 70.8056H62.2009C61.44 70.8056 60.823 70.1887 60.823 69.4277V61.987C60.823 61.2259 61.44 60.6091 62.2009 60.6091C62.9618 60.6091 63.5788 61.2259 63.5788 61.987V68.0498H68.2637V44.855H63.5788V50.9638C63.5788 51.7248 62.9618 52.3417 62.2009 52.3417C61.44 52.3417 60.823 51.7248 60.823 50.9638V44.4747C52.0627 39.7715 41.3644 39.8971 32.7098 44.8564C27.9159 47.6034 22.4617 49.0553 16.9366 49.0553C11.4114 49.0553 5.95724 47.6032 1.16335 44.8564C0.560654 44.5111 0.309319 43.771 0.576912 43.13L7.78986 25.8544ZM67.9881 3.01255H63.8544C63.7024 3.01255 63.5788 3.13615 63.5788 3.28813V7.56889H68.2637V3.28813C68.2637 3.13615 68.1401 3.01255 67.9881 3.01255ZM68.2637 10.3247H63.5788V42.0992H68.2637V10.3247ZM31.3396 42.4653C36.1335 39.7183 41.5876 38.2664 47.1128 38.2664C51.8598 38.2664 56.5544 39.3381 60.823 41.3821V18.9533C52.0627 14.25 41.3644 14.3758 32.7098 19.3351C32.4937 19.4589 32.2584 19.5177 32.0261 19.5177C31.5482 19.5177 31.0837 19.2689 30.8291 18.8246C30.4508 18.1643 30.6793 17.3224 31.3396 16.944C36.1335 14.1972 41.5876 12.7451 47.1128 12.7451C51.86 12.7451 56.5544 13.818 60.823 15.8621V9.75797C52.0627 5.05489 41.3644 5.18317 32.7098 10.1424C27.9159 12.8894 22.4617 14.3413 16.9366 14.3413C12.7072 14.3413 8.51877 13.4903 4.63678 11.859L10.5501 25.2845C10.7022 25.6298 10.7061 26.0225 10.5606 26.3709L3.5984 43.0459C12.288 47.5477 22.8076 47.3541 31.3396 42.4653Z" fill="#87E389"/>
<path d="M62.2014 55.0977C62.5638 55.0977 62.9193 55.2451 63.1756 55.5014C63.4319 55.7577 63.5793 56.1132 63.5793 56.4756C63.5793 56.838 63.432 57.1935 63.1756 57.4498C62.9192 57.706 62.5638 57.8535 62.2014 57.8535C61.839 57.8535 61.4835 57.706 61.2274 57.4498C60.9711 57.1935 60.8235 56.838 60.8235 56.4756C60.8235 56.1132 60.971 55.7577 61.2274 55.5014C61.4835 55.245 61.839 55.0977 62.2014 55.0977Z" fill="#87E389"/>
<path d="M27.0134 19.0569C27.3774 19.0569 27.7313 19.2043 27.9876 19.4606C28.2439 19.7169 28.3914 20.0724 28.3914 20.4348C28.3914 20.7972 28.2441 21.1527 27.9876 21.409C27.7312 21.6653 27.3772 21.8127 27.0134 21.8127C26.6511 21.8127 26.2956 21.6653 26.0394 21.409C25.7831 21.1527 25.6355 20.7972 25.6355 20.4348C25.6355 20.0724 25.783 19.7169 26.0394 19.4606C26.2956 19.2043 26.6511 19.0569 27.0134 19.0569Z" fill="#87E389"/>
</svg>
