<svg width="245" height="51" viewBox="0 0 245 51" fill="none" xmlns="http://www.w3.org/2000/svg">
<g clip-path="url(#clip0)">
<path d="M49.6877 13.263C49.4107 12.4614 48.8379 11.8155 48.0753 11.4443L25.2005 0.319549C23.6258 -0.4462 21.7223 0.211768 20.9566 1.78607L19.8885 3.98098L13.6399 2.75843C11.917 2.42147 10.2404 3.54869 9.90301 5.27163L9.10925 9.32527H5.17545C3.4245 9.32527 2 10.7498 2 12.5011V47.8244C2 49.5757 3.4245 51.0002 5.17545 51.0002H30.6125C32.3634 51.0002 33.7883 49.5757 33.7883 47.8244V47.8174C33.9117 47.7252 34.0159 47.603 34.0879 47.4547L49.5418 15.6894C49.913 14.9268 49.9648 14.0649 49.6877 13.263ZM22.748 2.65765C23.0332 2.07089 23.7429 1.82614 24.3293 2.11135L33.7521 6.69418L21.9114 4.37708L22.748 2.65765ZM11.8579 5.6545C11.9843 5.00937 12.6115 4.5872 13.2574 4.71366L20.2406 6.08017C20.2531 6.0829 20.2655 6.08523 20.278 6.08757L38.203 9.59492C38.5159 9.656 38.7859 9.83538 38.9633 10.0996C39.1412 10.3638 39.2054 10.6813 39.1443 10.9937L33.7879 38.356V12.5011C33.7879 10.7502 32.3634 9.32527 30.6125 9.32527H11.1392L11.8579 5.6545ZM31.7961 47.8248C31.7961 48.4773 31.265 49.008 30.6125 49.008H5.17545C4.52293 49.008 3.99219 48.4769 3.99219 47.8248V12.5011C3.99219 11.8486 4.52293 11.3179 5.17545 11.3179H30.6125C31.265 11.3179 31.7961 11.8486 31.7961 12.5011V47.8248ZM47.7504 14.8178L35.4945 40.0101L41.0991 11.3766C41.1711 11.0085 41.1781 10.6385 41.1228 10.2786L47.2041 13.2361C47.4881 13.3742 47.7014 13.6151 47.8049 13.9139C47.908 14.2124 47.8889 14.5334 47.7504 14.8178Z" fill="white"/>
<path d="M17.3492 36.7816C17.1534 36.7816 16.9577 36.724 16.7885 36.6088C16.7083 36.5543 14.8083 35.2536 12.88 33.4388C10.1598 30.8778 8.7804 28.607 8.7804 26.6895C8.7804 23.9257 11.029 21.6775 13.7932 21.6775C15.1904 21.6775 16.483 22.2444 17.4118 23.2168C18.3371 22.286 19.6048 21.744 20.9627 21.744C23.7269 21.744 25.9755 23.9926 25.9755 26.756C25.9755 28.6486 24.5849 30.9011 21.8425 33.4513C19.9009 35.2567 17.9877 36.5559 17.9075 36.6104C17.7386 36.7248 17.5441 36.7816 17.3492 36.7816ZM13.7928 23.6693C12.1274 23.6693 10.7726 25.0241 10.7726 26.6891C10.7726 29.0109 14.5982 32.5781 17.3515 34.5695C20.1254 32.5785 23.9833 29.0276 23.9833 26.756C23.9833 25.0911 22.6281 23.7362 20.9627 23.7362C19.8297 23.7362 18.8017 24.3623 18.2795 25.3701C18.1067 25.7035 17.7589 25.9136 17.3857 25.9078C17.0099 25.9043 16.6686 25.6903 16.5021 25.3533C15.9881 24.3148 14.9504 23.6693 13.7928 23.6693Z" fill="white"/>
<path d="M6.49097 17.0234C5.94078 17.0234 5.49487 16.5775 5.49487 16.0273V14.5273C5.49487 13.9772 5.94078 13.5312 6.49097 13.5312C7.04077 13.5312 7.48707 13.9772 7.48707 14.5273V16.0273C7.48707 16.5775 7.04077 17.0234 6.49097 17.0234Z" fill="white"/>
<path d="M28.4848 46.5549C27.9346 46.5549 27.4886 46.109 27.4886 45.5588V44.0588C27.4886 43.5087 27.9346 43.0627 28.4848 43.0627C29.0346 43.0627 29.4809 43.5087 29.4809 44.0588V45.5588C29.4809 46.109 29.0346 46.5549 28.4848 46.5549Z" fill="white"/>
<path d="M25.2106 40.7835C25.146 40.7835 25.081 40.7765 25.0164 40.7636C24.9526 40.7508 24.89 40.7317 24.8304 40.7068C24.7705 40.6819 24.7117 40.6512 24.658 40.6154C24.6032 40.5792 24.5522 40.5375 24.5067 40.4916C24.4608 40.4457 24.4188 40.3951 24.383 40.3403C24.3472 40.2866 24.3164 40.2286 24.2915 40.1679C24.2666 40.108 24.2476 40.0453 24.2347 39.9815C24.2215 39.9181 24.2145 39.8523 24.2145 39.7874C24.2145 39.7228 24.2215 39.657 24.2347 39.592C24.2476 39.5294 24.2666 39.4667 24.2915 39.406C24.3164 39.3461 24.3472 39.2885 24.383 39.2344C24.4188 39.18 24.4608 39.129 24.5067 39.0831C24.5522 39.0372 24.6032 38.9955 24.658 38.9586C24.7117 38.9228 24.7705 38.8928 24.8304 38.8679C24.89 38.843 24.9526 38.8232 25.0164 38.8103C25.1452 38.7843 25.2775 38.7843 25.4059 38.8103C25.4697 38.8232 25.5324 38.843 25.5923 38.8679C25.6518 38.8928 25.7098 38.9228 25.7646 38.9586C25.8183 38.9955 25.8689 39.0372 25.916 39.0831C25.9615 39.129 26.0024 39.18 26.0393 39.2344C26.0751 39.2885 26.1063 39.3461 26.1312 39.406C26.1561 39.4667 26.1748 39.5294 26.188 39.592C26.2008 39.657 26.2067 39.7228 26.2067 39.7874C26.2067 39.8523 26.2008 39.9181 26.188 39.9815C26.1748 40.0453 26.1561 40.108 26.1312 40.1679C26.1063 40.2286 26.0751 40.2866 26.0393 40.3403C26.0024 40.3951 25.9615 40.4457 25.916 40.4916C25.8689 40.5375 25.8183 40.5792 25.7646 40.6154C25.7098 40.6512 25.6518 40.6819 25.5923 40.7068C25.5324 40.7317 25.4697 40.7508 25.4059 40.7636C25.3413 40.7765 25.2763 40.7835 25.2106 40.7835Z" fill="white"/>
<path d="M21.4106 40.7835H9.54456C8.99437 40.7835 8.54846 40.3376 8.54846 39.7874C8.54846 39.2372 8.99437 38.7913 9.54456 38.7913H21.4106C21.9607 38.7913 22.4067 39.2372 22.4067 39.7874C22.4067 40.3376 21.9607 40.7835 21.4106 40.7835Z" fill="white"/>
</g>
<path d="M76.4424 36.0566C76.2275 38.332 75.3877 40.1094 73.9229 41.3887C72.458 42.6582 70.5098 43.293 68.0781 43.293C66.3789 43.293 64.8799 42.8926 63.5811 42.0918C62.292 41.2812 61.2959 40.1338 60.5928 38.6494C59.8896 37.165 59.5234 35.4414 59.4941 33.4785V31.4863C59.4941 29.4746 59.8506 27.7021 60.5635 26.1689C61.2764 24.6357 62.2969 23.4541 63.625 22.624C64.9629 21.7939 66.5059 21.3789 68.2539 21.3789C70.6074 21.3789 72.502 22.0186 73.9375 23.2979C75.373 24.5771 76.208 26.3838 76.4424 28.7178H72.751C72.5752 27.1846 72.126 26.0811 71.4033 25.4072C70.6904 24.7236 69.6406 24.3818 68.2539 24.3818C66.6426 24.3818 65.4023 24.9727 64.5332 26.1543C63.6738 27.3262 63.2344 29.0498 63.2148 31.3252V33.2148C63.2148 35.5195 63.625 37.2773 64.4453 38.4883C65.2754 39.6992 66.4863 40.3047 68.0781 40.3047C69.5332 40.3047 70.627 39.9775 71.3594 39.3232C72.0918 38.6689 72.5557 37.5801 72.751 36.0566H76.4424ZM91.7061 38.0342H83.4443L81.7158 43H77.8633L85.9199 21.6719H89.2451L97.3164 43H93.4492L91.7061 38.0342ZM84.4844 35.0459H90.666L87.5752 26.1982L84.4844 35.0459ZM110.896 37.5068C110.896 36.5693 110.563 35.8467 109.899 35.3389C109.245 34.8311 108.059 34.3184 106.34 33.8008C104.621 33.2832 103.254 32.707 102.238 32.0723C100.295 30.8516 99.3232 29.2598 99.3232 27.2969C99.3232 25.5781 100.021 24.1621 101.418 23.0488C102.824 21.9355 104.646 21.3789 106.882 21.3789C108.366 21.3789 109.689 21.6523 110.852 22.1992C112.014 22.7461 112.927 23.5273 113.591 24.543C114.255 25.5488 114.587 26.667 114.587 27.8975H110.896C110.896 26.7842 110.544 25.915 109.841 25.29C109.147 24.6553 108.151 24.3379 106.853 24.3379C105.642 24.3379 104.699 24.5967 104.025 25.1143C103.361 25.6318 103.029 26.3545 103.029 27.2822C103.029 28.0635 103.391 28.7178 104.113 29.2451C104.836 29.7627 106.027 30.2705 107.688 30.7686C109.348 31.2568 110.681 31.8184 111.687 32.4531C112.692 33.0781 113.43 33.8008 113.898 34.6211C114.367 35.4316 114.602 36.3838 114.602 37.4775C114.602 39.2549 113.918 40.6709 112.551 41.7256C111.193 42.7705 109.348 43.293 107.014 43.293C105.471 43.293 104.05 43.0098 102.751 42.4434C101.462 41.8672 100.456 41.0762 99.7334 40.0703C99.0205 39.0645 98.6641 37.8926 98.6641 36.5547H102.37C102.37 37.7656 102.771 38.7031 103.571 39.3672C104.372 40.0312 105.52 40.3633 107.014 40.3633C108.303 40.3633 109.27 40.1045 109.914 39.5869C110.568 39.0596 110.896 38.3662 110.896 37.5068ZM121.765 43H118.073V21.6719H121.765V43ZM143.239 43H139.533L130.026 27.8682V43H126.32V21.6719H130.026L139.562 36.8623V21.6719H143.239V43ZM164.641 32.8926C164.641 34.9824 164.279 36.8184 163.557 38.4004C162.834 39.9727 161.799 41.1836 160.451 42.0332C159.113 42.873 157.57 43.293 155.822 43.293C154.094 43.293 152.551 42.873 151.193 42.0332C149.846 41.1836 148.801 39.9775 148.059 38.415C147.326 36.8525 146.955 35.0508 146.945 33.0098V31.8086C146.945 29.7285 147.312 27.8926 148.044 26.3008C148.786 24.709 149.826 23.4932 151.164 22.6533C152.512 21.8037 154.055 21.3789 155.793 21.3789C157.531 21.3789 159.069 21.7988 160.407 22.6387C161.755 23.4688 162.795 24.6699 163.527 26.2422C164.26 27.8047 164.631 29.626 164.641 31.7061V32.8926ZM160.935 31.7793C160.935 29.416 160.485 27.6045 159.587 26.3447C158.698 25.085 157.434 24.4551 155.793 24.4551C154.191 24.4551 152.937 25.085 152.028 26.3447C151.13 27.5947 150.671 29.3672 150.651 31.6621V32.8926C150.651 35.2363 151.105 37.0479 152.014 38.3271C152.932 39.6064 154.201 40.2461 155.822 40.2461C157.463 40.2461 158.723 39.6211 159.602 38.3711C160.49 37.1211 160.935 35.2949 160.935 32.8926V31.7793ZM190.334 24.6602H183.684V43H180.007V24.6602H173.415V21.6719H190.334V24.6602ZM205.612 33.4785H196.853V40.041H207.092V43H193.146V21.6719H206.989V24.6602H196.853V30.5488H205.612V33.4785ZM221.257 37.5068C221.257 36.5693 220.925 35.8467 220.261 35.3389C219.606 34.8311 218.42 34.3184 216.701 33.8008C214.982 33.2832 213.615 32.707 212.6 32.0723C210.656 30.8516 209.685 29.2598 209.685 27.2969C209.685 25.5781 210.383 24.1621 211.779 23.0488C213.186 21.9355 215.007 21.3789 217.243 21.3789C218.728 21.3789 220.051 21.6523 221.213 22.1992C222.375 22.7461 223.288 23.5273 223.952 24.543C224.616 25.5488 224.948 26.667 224.948 27.8975H221.257C221.257 26.7842 220.905 25.915 220.202 25.29C219.509 24.6553 218.513 24.3379 217.214 24.3379C216.003 24.3379 215.061 24.5967 214.387 25.1143C213.723 25.6318 213.391 26.3545 213.391 27.2822C213.391 28.0635 213.752 28.7178 214.475 29.2451C215.197 29.7627 216.389 30.2705 218.049 30.7686C219.709 31.2568 221.042 31.8184 222.048 32.4531C223.054 33.0781 223.791 33.8008 224.26 34.6211C224.729 35.4316 224.963 36.3838 224.963 37.4775C224.963 39.2549 224.279 40.6709 222.912 41.7256C221.555 42.7705 219.709 43.293 217.375 43.293C215.832 43.293 214.411 43.0098 213.112 42.4434C211.823 41.8672 210.817 41.0762 210.095 40.0703C209.382 39.0645 209.025 37.8926 209.025 36.5547H212.731C212.731 37.7656 213.132 38.7031 213.933 39.3672C214.733 40.0312 215.881 40.3633 217.375 40.3633C218.664 40.3633 219.631 40.1045 220.275 39.5869C220.93 39.0596 221.257 38.3662 221.257 37.5068ZM243.625 24.6602H236.975V43H233.298V24.6602H226.706V21.6719H243.625V24.6602Z" fill="white"/>
<defs>
<clipPath id="clip0">
<rect width="51" height="51" fill="white"/>
</clipPath>
</defs>
</svg>
