<svg width="33" height="34" viewBox="0 0 33 34" fill="none" xmlns="http://www.w3.org/2000/svg">
<g clip-path="url(#clip0)">
<path d="M16.5 33.0889C25.6127 33.0889 33 25.7016 33 16.5889C33 7.47617 25.6127 0.0888672 16.5 0.0888672C7.3873 0.0888672 0 7.47617 0 16.5889C0 25.7016 7.3873 33.0889 16.5 33.0889Z" fill="#DC4E41"/>
<path d="M5.74478 17.3288C5.68625 20.1677 7.64161 22.877 10.3314 23.7605C12.865 24.6117 15.9801 23.9749 17.6661 21.8052C18.897 20.2848 19.1767 18.258 19.0435 16.3644C16.8737 16.345 14.7039 16.3514 12.5374 16.3547C12.5338 17.1276 12.5374 17.8977 12.5406 18.6706C13.8398 18.7065 15.1392 18.69 16.4384 18.7162C16.1104 19.8401 15.3634 20.886 14.2295 21.2919C12.0403 22.2566 9.24696 20.9963 8.55811 18.6997C7.72661 16.5005 9.08784 13.8466 11.3353 13.2069C12.7289 12.7166 14.1645 13.2687 15.3569 13.9931C15.961 13.4278 16.5263 12.8237 17.0817 12.213C15.7269 11.0795 13.986 10.3844 12.1962 10.5371C8.68459 10.5789 5.61154 13.8207 5.74478 17.3288Z" fill="#DC4E41"/>
<path d="M23.2665 14.4045C23.26 15.051 23.2533 15.7007 23.25 16.3469C22.6003 16.3534 21.9541 16.3566 21.3076 16.3598C21.3076 17.0063 21.3076 17.6493 21.3076 18.2958C21.9541 18.299 22.6038 18.3023 23.25 18.309C23.2565 18.9555 23.2565 19.6017 23.263 20.2515C23.9062 20.2515 24.5527 20.2482 25.1989 20.2515C25.2025 19.6017 25.2054 18.9555 25.2122 18.3058C25.8584 18.3026 26.5081 18.2993 27.1546 18.2961C27.1546 17.6496 27.1546 17.0066 27.1546 16.3601C26.5084 16.3569 25.8587 16.3537 25.2122 16.3472C25.2086 15.7007 25.2025 15.051 25.1989 14.4048C24.5527 14.4045 23.9095 14.4045 23.2665 14.4045Z" fill="#DC4E41"/>
<path d="M5.74478 17.3281C5.61154 13.8201 8.6843 10.5782 12.1959 10.5361C13.9857 10.3835 15.7269 11.0785 17.0814 12.2121C16.5258 12.823 15.9604 13.4268 15.3566 13.9921C14.1642 13.2677 12.7286 12.7156 11.335 13.2059C9.08725 13.8459 7.72603 16.4999 8.55782 18.6988C9.24667 20.9953 12.04 22.2557 14.2292 21.2909C15.3628 20.885 16.1101 19.8391 16.4381 18.7152C15.1389 18.6894 13.8395 18.7055 12.5403 18.6696C12.5371 17.8967 12.5338 17.1267 12.5371 16.3537C14.7036 16.3504 16.8734 16.344 19.0432 16.3634C19.1764 18.2573 18.897 20.2841 17.6658 21.8042C15.9798 23.974 12.865 24.6107 10.3311 23.7595C7.64191 22.8763 5.68625 20.1671 5.74478 17.3281Z" fill="white"/>
<path d="M23.2665 14.4045C23.9098 14.4045 24.5527 14.4045 25.1989 14.4045C25.2025 15.051 25.2086 15.7007 25.2122 16.3469C25.8584 16.3534 26.5081 16.3566 27.1546 16.3598C27.1546 17.0063 27.1546 17.6493 27.1546 18.2958C26.5084 18.299 25.8587 18.3023 25.2122 18.3055C25.2057 18.9552 25.2025 19.6014 25.1989 20.2512C24.5527 20.2479 23.9059 20.2512 23.263 20.2512C23.2568 19.6014 23.2568 18.9552 23.25 18.3087C22.6038 18.302 21.9541 18.299 21.3076 18.2955C21.3076 17.649 21.3076 17.006 21.3076 16.3595C21.9541 16.3563 22.6006 16.3531 23.25 16.3466C23.2533 15.7007 23.2597 15.051 23.2665 14.4045Z" fill="white"/>
</g>
<defs>
<clipPath id="clip0">
<rect width="33" height="33" fill="white" transform="translate(0 0.0898438)"/>
</clipPath>
</defs>
</svg>
