<svg width="169" height="40" viewBox="0 0 169 40" fill="none" xmlns="http://www.w3.org/2000/svg">
<g clip-path="url(#clip0)">
<path d="M38.6521 10.4023C38.4348 9.7736 37.9856 9.26701 37.3875 8.97587L19.4465 0.250565C18.2114 -0.350022 16.7185 0.166032 16.1179 1.40078L15.2802 3.12228L10.3794 2.16341C9.02804 1.89913 7.71303 2.78323 7.44844 4.13455L6.82588 7.31388H3.74055C2.36725 7.31388 1.25 8.43113 1.25 9.80473V37.5093C1.25 38.8829 2.36725 40.0001 3.74055 40.0001H23.6912C25.0645 40.0001 26.182 38.8829 26.182 37.5093V37.5038C26.2788 37.4314 26.3605 37.3356 26.417 37.2193L38.5377 12.3053C38.8288 11.7072 38.8694 11.0312 38.6521 10.4023ZM17.5229 2.08437C17.7466 1.62416 18.3033 1.43221 18.7632 1.6559L26.1536 5.25027L16.8668 3.43295L17.5229 2.08437ZM8.98165 4.43484C9.08083 3.92886 9.57277 3.59774 10.0794 3.69692L15.5564 4.7687C15.5661 4.77084 15.5759 4.77267 15.5857 4.7745L29.6445 7.52536C29.8899 7.57328 30.1017 7.71396 30.2409 7.92118C30.3803 8.12839 30.4307 8.37742 30.3828 8.62247L26.1817 30.0831V9.80473C26.1817 8.43143 25.0645 7.31388 23.6912 7.31388H8.41799L8.98165 4.43484ZM24.6195 37.5096C24.6195 38.0213 24.2029 38.4376 23.6912 38.4376H3.74055C3.22876 38.4376 2.8125 38.021 2.8125 37.5096V9.80473C2.8125 9.29295 3.22876 8.87669 3.74055 8.87669H23.6912C24.2029 8.87669 24.6195 9.29295 24.6195 9.80473V37.5096ZM37.1327 11.6217L27.5202 31.3804L31.916 8.92277C31.9724 8.63407 31.9779 8.34385 31.9346 8.06156L36.7042 10.3812C36.927 10.4895 37.0942 10.6784 37.1754 10.9128C37.2563 11.1469 37.2413 11.3987 37.1327 11.6217Z" fill="white"/>
<path d="M13.6071 28.8484C13.4536 28.8484 13.3001 28.8032 13.1673 28.7129C13.1044 28.6701 11.6143 27.6499 10.1018 26.2266C7.96833 24.2179 6.88647 22.4369 6.88647 20.933C6.88647 18.7653 8.65009 17.002 10.8181 17.002C11.914 17.002 12.9277 17.4467 13.6562 18.2093C14.3819 17.4793 15.3762 17.0542 16.4412 17.0542C18.6092 17.0542 20.3728 18.8178 20.3728 20.9852C20.3728 22.4696 19.2821 24.2362 17.1313 26.2364C15.6084 27.6524 14.1079 28.6714 14.045 28.7141C13.9126 28.8038 13.76 28.8484 13.6071 28.8484ZM10.8178 18.5642C9.5116 18.5642 8.44898 19.6268 8.44898 20.9327C8.44898 22.7537 11.4495 25.5515 13.6089 27.1134C15.7845 25.5518 18.8103 22.7668 18.8103 20.9852C18.8103 19.6793 17.7474 18.6167 16.4412 18.6167C15.5526 18.6167 14.7463 19.1077 14.3367 19.8981C14.2013 20.1597 13.9284 20.3245 13.6358 20.3199C13.341 20.3171 13.0733 20.1493 12.9427 19.885C12.5396 19.0705 11.7257 18.5642 10.8178 18.5642Z" fill="white"/>
<path d="M5.09082 13.3518C4.6593 13.3518 4.30957 13.0021 4.30957 12.5706V11.3941C4.30957 10.9626 4.6593 10.6129 5.09082 10.6129C5.52204 10.6129 5.87208 10.9626 5.87208 11.3941V12.5706C5.87208 13.0021 5.52204 13.3518 5.09082 13.3518Z" fill="white"/>
<path d="M22.3411 36.5137C21.9095 36.5137 21.5598 36.164 21.5598 35.7325V34.556C21.5598 34.1245 21.9095 33.7748 22.3411 33.7748C22.7723 33.7748 23.1223 34.1245 23.1223 34.556V35.7325C23.1223 36.164 22.7723 36.5137 22.3411 36.5137Z" fill="white"/>
<path d="M19.7729 31.9871C19.7223 31.9871 19.6713 31.9816 19.6207 31.9715C19.5706 31.9615 19.5215 31.9465 19.4748 31.927C19.4278 31.9074 19.3817 31.8833 19.3396 31.8552C19.2966 31.8269 19.2566 31.7942 19.2209 31.7582C19.1849 31.7222 19.1519 31.6825 19.1238 31.6395C19.0958 31.5974 19.0717 31.5519 19.0521 31.5043C19.0326 31.4573 19.0176 31.4082 19.0076 31.3581C18.9972 31.3084 18.9917 31.2568 18.9917 31.2058C18.9917 31.1552 18.9972 31.1036 19.0076 31.0526C19.0176 31.0035 19.0326 30.9544 19.0521 30.9068C19.0717 30.8598 19.0958 30.8146 19.1238 30.7722C19.1519 30.7294 19.1849 30.6895 19.2209 30.6535C19.2566 30.6174 19.2966 30.5848 19.3396 30.5558C19.3817 30.5277 19.4278 30.5042 19.4748 30.4847C19.5215 30.4652 19.5706 30.4496 19.6207 30.4395C19.7217 30.4191 19.8254 30.4191 19.9261 30.4395C19.9762 30.4496 20.0253 30.4652 20.0723 30.4847C20.119 30.5042 20.1645 30.5277 20.2075 30.5558C20.2496 30.5848 20.2893 30.6174 20.3262 30.6535C20.3619 30.6895 20.394 30.7294 20.423 30.7722C20.451 30.8146 20.4755 30.8598 20.495 30.9068C20.5145 30.9544 20.5292 31.0035 20.5395 31.0526C20.5496 31.1036 20.5542 31.1552 20.5542 31.2058C20.5542 31.2568 20.5496 31.3084 20.5395 31.3581C20.5292 31.4082 20.5145 31.4573 20.495 31.5043C20.4755 31.5519 20.451 31.5974 20.423 31.6395C20.394 31.6825 20.3619 31.7222 20.3262 31.7582C20.2893 31.7942 20.2496 31.8269 20.2075 31.8552C20.1645 31.8833 20.119 31.9074 20.0723 31.927C20.0253 31.9465 19.9762 31.9615 19.9261 31.9715C19.8755 31.9816 19.8245 31.9871 19.7729 31.9871Z" fill="white"/>
<path d="M16.7925 31.9871H7.48584C7.05432 31.9871 6.70459 31.6373 6.70459 31.2058C6.70459 30.7743 7.05432 30.4246 7.48584 30.4246H16.7925C17.224 30.4246 17.5738 30.7743 17.5738 31.2058C17.5738 31.6373 17.224 31.9871 16.7925 31.9871Z" fill="white"/>
</g>
<path d="M55.4316 25.2637C55.321 26.7936 54.7546 27.998 53.7324 28.877C52.7168 29.7559 51.3757 30.1953 49.709 30.1953C47.8861 30.1953 46.4505 29.5833 45.4023 28.3594C44.3607 27.1289 43.8398 25.4427 43.8398 23.3008V22.4316C43.8398 21.0645 44.0807 19.86 44.5625 18.8184C45.0443 17.7767 45.7311 16.9792 46.623 16.4258C47.5215 15.8659 48.5632 15.5859 49.748 15.5859C51.3887 15.5859 52.7103 16.0254 53.7129 16.9043C54.7155 17.7832 55.2949 19.0169 55.4512 20.6055H52.5215C52.4499 19.6875 52.1927 19.0234 51.75 18.6133C51.3138 18.1966 50.6465 17.9883 49.748 17.9883C48.7715 17.9883 48.0391 18.3398 47.5508 19.043C47.069 19.7396 46.8216 20.8236 46.8086 22.2949V23.3691C46.8086 24.9056 47.0397 26.0286 47.502 26.7383C47.9707 27.4479 48.7064 27.8027 49.709 27.8027C50.6139 27.8027 51.2878 27.5977 51.7305 27.1875C52.1797 26.7708 52.4368 26.1296 52.502 25.2637H55.4316ZM65.3828 27.0703H60.2461L59.2695 30H56.1543L61.4473 15.7812H64.1621L69.4844 30H66.3691L65.3828 27.0703ZM61.0371 24.6973H64.5918L62.8047 19.375L61.0371 24.6973ZM78.1855 26.2695C78.1855 25.7161 77.9902 25.293 77.5996 25C77.209 24.7005 76.5059 24.388 75.4902 24.0625C74.4746 23.7305 73.6706 23.4049 73.0781 23.0859C71.4635 22.2135 70.6562 21.0384 70.6562 19.5605C70.6562 18.7923 70.8711 18.1087 71.3008 17.5098C71.737 16.9043 72.3587 16.4323 73.166 16.0938C73.9798 15.7552 74.8913 15.5859 75.9004 15.5859C76.916 15.5859 77.821 15.7715 78.6152 16.1426C79.4095 16.5072 80.0247 17.0247 80.4609 17.6953C80.9036 18.3659 81.125 19.1276 81.125 19.9805H78.1953C78.1953 19.3294 77.9902 18.8249 77.5801 18.4668C77.1699 18.1022 76.5938 17.9199 75.8516 17.9199C75.1354 17.9199 74.5788 18.0729 74.1816 18.3789C73.7845 18.6784 73.5859 19.0755 73.5859 19.5703C73.5859 20.0326 73.8171 20.4199 74.2793 20.7324C74.748 21.0449 75.4349 21.3379 76.3398 21.6113C78.0065 22.1126 79.2207 22.7344 79.9824 23.4766C80.7441 24.2188 81.125 25.1432 81.125 26.25C81.125 27.4805 80.6595 28.4473 79.7285 29.1504C78.7975 29.847 77.5443 30.1953 75.9688 30.1953C74.875 30.1953 73.8789 29.9967 72.9805 29.5996C72.082 29.196 71.3952 28.6458 70.9199 27.9492C70.4512 27.2526 70.2168 26.4453 70.2168 25.5273H73.1562C73.1562 27.0964 74.0938 27.8809 75.9688 27.8809C76.6654 27.8809 77.209 27.7409 77.5996 27.4609C77.9902 27.1745 78.1855 26.7773 78.1855 26.2695ZM86.2324 30H83.3027V15.7812H86.2324V30ZM100.52 30H97.5898L91.8867 20.6445V30H88.957V15.7812H91.8867L97.5996 25.1562V15.7812H100.52V30ZM114.758 23.2129C114.758 24.6126 114.51 25.8398 114.016 26.8945C113.521 27.9492 112.811 28.763 111.887 29.3359C110.969 29.9089 109.914 30.1953 108.723 30.1953C107.544 30.1953 106.493 29.9121 105.568 29.3457C104.644 28.7793 103.928 27.972 103.42 26.9238C102.912 25.8691 102.655 24.6582 102.648 23.291V22.5879C102.648 21.1882 102.899 19.9577 103.4 18.8965C103.908 17.8288 104.621 17.0117 105.539 16.4453C106.464 15.8724 107.518 15.5859 108.703 15.5859C109.888 15.5859 110.939 15.8724 111.857 16.4453C112.782 17.0117 113.495 17.8288 113.996 18.8965C114.504 19.9577 114.758 21.1849 114.758 22.5781V23.2129ZM111.789 22.5684C111.789 21.0775 111.522 19.9447 110.988 19.1699C110.454 18.3952 109.693 18.0078 108.703 18.0078C107.72 18.0078 106.962 18.3919 106.428 19.1602C105.894 19.9219 105.624 21.0417 105.617 22.5195V23.2129C105.617 24.6647 105.884 25.791 106.418 26.5918C106.952 27.3926 107.72 27.793 108.723 27.793C109.706 27.793 110.461 27.4089 110.988 26.6406C111.516 25.8659 111.783 24.7396 111.789 23.2617V22.5684ZM131.984 18.1543H127.629V30H124.699V18.1543H120.402V15.7812H131.984V18.1543ZM142.219 23.8379H136.594V27.6465H143.195V30H133.664V15.7812H143.176V18.1543H136.594V21.543H142.219V23.8379ZM152.287 26.2695C152.287 25.7161 152.092 25.293 151.701 25C151.311 24.7005 150.607 24.388 149.592 24.0625C148.576 23.7305 147.772 23.4049 147.18 23.0859C145.565 22.2135 144.758 21.0384 144.758 19.5605C144.758 18.7923 144.973 18.1087 145.402 17.5098C145.839 16.9043 146.46 16.4323 147.268 16.0938C148.081 15.7552 148.993 15.5859 150.002 15.5859C151.018 15.5859 151.923 15.7715 152.717 16.1426C153.511 16.5072 154.126 17.0247 154.562 17.6953C155.005 18.3659 155.227 19.1276 155.227 19.9805H152.297C152.297 19.3294 152.092 18.8249 151.682 18.4668C151.271 18.1022 150.695 17.9199 149.953 17.9199C149.237 17.9199 148.68 18.0729 148.283 18.3789C147.886 18.6784 147.688 19.0755 147.688 19.5703C147.688 20.0326 147.919 20.4199 148.381 20.7324C148.85 21.0449 149.536 21.3379 150.441 21.6113C152.108 22.1126 153.322 22.7344 154.084 23.4766C154.846 24.2188 155.227 25.1432 155.227 26.25C155.227 27.4805 154.761 28.4473 153.83 29.1504C152.899 29.847 151.646 30.1953 150.07 30.1953C148.977 30.1953 147.98 29.9967 147.082 29.5996C146.184 29.196 145.497 28.6458 145.021 27.9492C144.553 27.2526 144.318 26.4453 144.318 25.5273H147.258C147.258 27.0964 148.195 27.8809 150.07 27.8809C150.767 27.8809 151.311 27.7409 151.701 27.4609C152.092 27.1745 152.287 26.7773 152.287 26.2695ZM167.922 18.1543H163.566V30H160.637V18.1543H156.34V15.7812H167.922V18.1543Z" fill="white"/>
<defs>
<clipPath id="clip0">
<rect width="40" height="40" fill="white"/>
</clipPath>
</defs>
</svg>
