<svg width="34" height="34" viewBox="0 0 34 34" fill="none" xmlns="http://www.w3.org/2000/svg">
<g clip-path="url(#clip0)">
<circle cx="17" cy="17.0898" r="13" fill="white"/>
<path d="M17.0163 13.7649C18.6396 13.7591 19.9324 12.4935 19.9265 10.9146C19.9206 9.33494 18.625 8.07807 17.001 8.07672C15.3634 8.07503 14.0556 9.3552 14.0681 10.949C14.0803 12.5222 15.3877 13.7706 17.0163 13.7649Z" fill="#F98D2E"/>
<path d="M17 0.0898438C7.61113 0.0898438 0 7.47745 0 16.5898C0 25.7022 7.61113 33.0898 17 33.0898C26.3889 33.0898 34 25.7022 34 16.5898C34 7.47745 26.3889 0.0898438 17 0.0898438ZM17.0243 5.10753C20.3357 5.11631 22.9934 7.74517 22.9763 10.9945C22.9597 14.1689 20.2584 16.7418 16.9527 16.731C13.6807 16.7202 10.9972 14.0872 11.0167 10.9064C11.0351 7.69082 13.72 5.09875 17.0243 5.10753ZM23.7311 19.0145C22.999 19.744 22.1176 20.272 21.1388 20.6403C20.2136 20.9884 19.1997 21.1636 18.1958 21.2804C18.3478 21.4404 18.4191 21.5191 18.5137 21.6109C19.8758 22.94 21.2445 24.2624 22.6021 25.5952C23.0647 26.0496 23.161 26.6127 22.9064 27.1404C22.6285 27.7177 22.0049 28.0971 21.393 28.0563C21.0056 28.0303 20.7033 27.8436 20.4351 27.5813C19.407 26.5773 18.3593 25.5912 17.3527 24.5682C17.0588 24.2705 16.9183 24.3272 16.6591 24.5858C15.625 25.6195 14.5739 26.6367 13.5169 27.6485C13.0421 28.1029 12.4772 28.1853 11.9263 27.9253C11.3409 27.6505 10.9687 27.0702 10.9972 26.4865C11.0174 26.0928 11.217 25.791 11.496 25.5216C12.8445 24.2155 14.1889 22.9053 15.5336 21.5961C15.623 21.5093 15.7057 21.4171 15.8355 21.2821C14.0014 21.0961 12.3475 20.6579 10.9315 19.5833C10.7555 19.4496 10.5743 19.3207 10.4143 19.1708C9.79409 18.5931 9.73183 17.9311 10.2219 17.2498C10.6417 16.6665 11.3457 16.5105 12.0779 16.8457C12.2198 16.9102 12.3548 16.9919 12.4842 17.0783C15.1228 18.8382 18.7478 18.8865 21.3969 17.157C21.6591 16.9625 21.9398 16.8025 22.265 16.7218C22.8967 16.5638 23.4866 16.7897 23.8254 17.3265C24.2132 17.9399 24.2087 18.5381 23.7311 19.0145Z" fill="#F98D2E"/>
</g>
<defs>
<clipPath id="clip0">
<rect width="34" height="33" fill="white" transform="translate(0 0.0898438)"/>
</clipPath>
</defs>
</svg>
