<svg width="35" height="35" viewBox="0 0 35 35" fill="none" xmlns="http://www.w3.org/2000/svg">
<g clip-path="url(#clip0)">
<path d="M17.5 34.0898C27.165 34.0898 35 26.4787 35 17.0898C35 7.701 27.165 0.0898438 17.5 0.0898438C7.83502 0.0898438 0 7.701 0 17.0898C0 26.4787 7.83502 34.0898 17.5 34.0898Z" fill="#4D76A1"/>
<path fill-rule="evenodd" clip-rule="evenodd" d="M16.8389 24.5458H18.2124C18.2124 24.5458 18.6273 24.5016 18.8391 24.2798C19.0341 24.0761 19.0278 23.6937 19.0278 23.6937C19.0278 23.6937 19.001 21.9033 19.8564 21.6397C20.6996 21.38 21.7824 23.37 22.9301 24.1352C23.7979 24.7143 24.4574 24.5874 24.4574 24.5874L27.5261 24.5458C27.5261 24.5458 29.1314 24.4498 28.3702 23.2237C28.3078 23.1234 27.9269 22.3167 26.0886 20.659C24.1645 18.9241 24.4221 19.2047 26.74 16.2037C28.1516 14.3761 28.7159 13.2603 28.5396 12.7824C28.3715 12.3272 27.3333 12.4475 27.3333 12.4475L23.8781 12.4684C23.8781 12.4684 23.622 12.4345 23.432 12.5448C23.2464 12.653 23.1269 12.9051 23.1269 12.9051C23.1269 12.9051 22.5801 14.3194 21.8507 15.5222C20.3121 18.0602 19.697 18.1941 19.4455 18.0365C18.8606 17.6692 19.0066 16.561 19.0066 15.7737C19.0066 13.3142 19.3906 12.2887 18.2589 12.0233C17.8833 11.9351 17.6069 11.8769 16.6464 11.8675C15.4135 11.8551 14.37 11.8712 13.7792 12.1524C13.3861 12.3394 13.0829 12.756 13.2676 12.78C13.4959 12.8097 14.0132 12.9154 14.2874 13.2782C14.6414 13.7461 14.629 14.797 14.629 14.797C14.629 14.797 14.8324 17.6923 14.1539 18.052C13.6881 18.2987 13.0492 17.795 11.6776 15.4925C10.9747 14.3131 10.4441 13.0094 10.4441 13.0094C10.4441 13.0094 10.3418 12.7657 10.1593 12.6354C9.9378 12.4775 9.62834 12.4272 9.62834 12.4272L6.34503 12.4481C6.34503 12.4481 5.85214 12.4615 5.67121 12.6697C5.51024 12.8548 5.65842 13.2379 5.65842 13.2379C5.65842 13.2379 8.22892 19.0799 11.1394 22.0239C13.8082 24.7231 16.8389 24.5458 16.8389 24.5458Z" fill="white"/>
</g>
<defs>
<clipPath id="clip0">
<rect width="35" height="34" fill="white" transform="translate(0 0.0898438)"/>
</clipPath>
</defs>
</svg>
