<svg width="54" height="55" viewBox="0 0 54 55" fill="none" xmlns="http://www.w3.org/2000/svg">
<g clip-path="url(#clip0)">
<path d="M16.3781 15.1907H12.7208C11.2898 15.1907 10.6007 15.4562 10.6007 16.6246V17.9523C10.6007 19.1207 11.3428 19.3863 12.7208 19.3863H13.5689C14.0989 19.3863 14.3109 19.6518 14.3109 20.5016V37.9213C14.3109 39.3553 14.576 40.0457 15.742 40.0457H17.1201C18.2862 40.0457 18.5512 39.3021 18.5512 37.9213V16.6246C18.4982 15.4562 17.7562 15.1907 16.3781 15.1907Z" fill="#32448C" fill-opacity="0.2"/>
<path d="M41.5016 3.08191C39.9115 1.54175 37.9504 0.745117 35.5652 0.745117H17.7031C15.318 0.745117 13.3038 1.54175 11.7667 3.08191L2.27914 12.5353C0.795049 14.0224 0 15.9874 0 18.1649V36.3812C0 38.8774 0.848053 40.8424 2.54416 42.4888L11.5547 51.5173C13.3038 53.2699 15.318 54.1196 17.8621 54.0665H35.5122C37.9504 54.0665 39.9645 53.323 41.8196 51.5173L50.8302 42.4888C52.4733 40.8424 53.3743 38.8774 53.3743 36.3812V18.1649C53.3743 15.9874 52.5793 14.0224 51.0952 12.5353L41.5016 3.08191ZM49.7701 24.3786C49.7701 24.9628 49.5051 25.2815 48.922 25.2815H46.2189V23.3695C46.2189 21.9356 46.0069 21.2452 44.7878 21.2452H43.5687C42.3496 21.2452 42.1376 21.9887 42.1376 23.3695V25.2815H40.2825C38.8514 25.2815 38.1624 25.4939 38.1624 26.7154V27.99C38.1624 29.2115 38.9044 29.424 40.2825 29.424H42.1906V31.3359C42.1906 32.7698 42.4026 33.4602 43.6217 33.4602H44.8408C46.0599 33.4602 46.2719 32.7167 46.2719 31.3359V29.424H48.975C49.5051 29.424 49.7701 29.6895 49.8231 30.2206V36.3812C49.8231 37.8683 49.3991 38.9836 48.339 39.9926L39.3284 49.0212C38.2684 50.0833 37.1023 50.5613 35.6712 50.5613H17.6501C16.219 50.5613 15.0529 50.0833 13.9929 49.0212L4.98231 39.9926C3.92224 38.9305 3.44521 37.8683 3.49822 36.3812V18.5897C3.49822 17.1027 3.97525 15.8281 5.08832 14.7128L14.2049 5.41871C15.1059 4.51585 16.325 4.1972 17.6501 4.1972H35.6182C36.9433 4.1972 38.1094 4.46274 39.0634 5.41871L48.233 14.7128C49.2931 15.8281 49.8231 17.1027 49.8231 18.5897V24.3786H49.7701Z" fill="#32448C" fill-opacity="0.2"/>
<path d="M33.8691 27.1404C36.1482 25.494 36.1482 23.7945 36.1482 22.4137V21.0329C35.8832 16.4655 34.3991 14.7129 29.0988 14.7129C23.7985 14.7129 22.3144 16.4655 22.0494 21.0329V22.4137C22.0494 23.7945 22.1024 25.494 24.3285 27.1404C21.6253 28.2026 21.4133 30.4862 21.4133 33.5135C21.4133 37.9746 23.0034 40.2052 29.0458 40.3114C35.1412 40.2052 36.6783 37.9746 36.6783 33.5135C36.7843 30.4862 36.5723 28.2026 33.8691 27.1404ZM29.1518 18.4836C31.3779 18.4836 32.279 19.2803 32.279 21.9888C32.279 24.5912 31.3779 25.494 29.1518 25.494C26.9257 25.494 26.0246 24.5912 26.0246 21.9888C26.0246 19.2803 26.9257 18.4836 29.1518 18.4836ZM29.1518 36.5407C26.5546 36.5407 25.6536 35.5316 25.6536 32.9824C25.6536 30.4331 26.5546 29.2647 29.1518 29.2647C31.749 29.2647 32.65 30.4331 32.65 32.9824C32.65 35.5316 31.696 36.5407 29.1518 36.5407Z" fill="#32448C" fill-opacity="0.2"/>
</g>
<defs>
<clipPath id="clip0">
<rect width="53.2683" height="53.2683" fill="white" transform="translate(0 0.745117)"/>
</clipPath>
</defs>
</svg>
