<svg width="32" height="31" viewBox="0 0 32 31" fill="none" xmlns="http://www.w3.org/2000/svg">
<g clip-path="url(#clip0)">
<path d="M16.1914 2.76166C20.3328 2.76166 20.823 2.78007 22.4515 2.85273C23.9656 2.91957 24.7823 3.17338 25.3277 3.38554C26.0484 3.66454 26.5687 4.0036 27.1073 4.54223C27.6527 5.08763 27.985 5.60204 28.2698 6.32279C28.4819 6.8682 28.7358 7.69066 28.8026 9.19901C28.8752 10.8343 28.8937 11.3244 28.8937 15.46C28.8937 19.5956 28.8752 20.0916 28.8026 21.7211C28.7358 23.2352 28.4819 24.0519 28.2698 24.5973C27.9908 25.318 27.6527 25.8383 27.1131 26.3769C26.5677 26.9223 26.0533 27.2546 25.3335 27.5394C24.7881 27.7515 23.9647 28.0054 22.4573 28.0722C20.822 28.1448 20.3318 28.1633 16.1962 28.1633C12.0607 28.1633 11.5647 28.1448 9.93522 28.0722C8.42106 28.0054 7.60441 27.7515 7.059 27.5394C6.33825 27.2604 5.81803 26.9223 5.27844 26.3827C4.73303 25.8373 4.40075 25.3229 4.11594 24.6031C3.90378 24.0577 3.64997 23.2343 3.58312 21.7269C3.51047 20.0916 3.49206 19.6014 3.49206 15.4659C3.49206 11.3303 3.51047 10.8343 3.58312 9.20482C3.64997 7.69066 3.90378 6.87401 4.11594 6.3286C4.39494 5.60785 4.734 5.08763 5.27262 4.54804C5.81803 4.00263 6.33244 3.67035 7.05319 3.38554C7.59859 3.17338 8.42106 2.91957 9.92941 2.85273C11.5579 2.78007 12.049 2.76166 16.1904 2.76166H16.1914ZM16.1914 -0.0293047C11.9832 -0.0293047 11.4571 -0.0108984 9.80347 0.0617578C8.15659 0.134414 7.02413 0.40082 6.04375 0.782508C5.02075 1.18163 4.15469 1.70863 3.29541 2.5747C2.42934 3.43495 1.90234 4.30004 1.50322 5.31723C1.12153 6.30438 0.855125 7.43007 0.782469 9.07695C0.709812 10.7364 0.691406 11.2624 0.691406 15.4707C0.691406 19.6789 0.709812 20.205 0.782469 21.8586C0.855125 23.5055 1.12153 24.638 1.50322 25.6184C1.90331 26.6414 2.42934 27.5074 3.29541 28.3667C4.15469 29.226 5.02075 29.7598 6.03794 30.1531C7.02509 30.5348 8.15078 30.8012 9.79766 30.8738C11.4503 30.9465 11.9773 30.9649 16.1856 30.9649C20.3938 30.9649 20.9208 30.9465 22.5735 30.8738C24.2204 30.8012 25.3529 30.5348 26.3333 30.1531C27.3504 29.7598 28.2165 29.2269 29.0758 28.3667C29.9351 27.5064 30.4688 26.6414 30.8622 25.6242C31.2438 24.637 31.5103 23.5113 31.5829 21.8644C31.6556 20.2118 31.674 19.6848 31.674 15.4765C31.674 11.2683 31.6556 10.7422 31.5829 9.08857C31.5103 7.4417 31.2438 6.30923 30.8622 5.32885C30.4805 4.29907 29.9535 3.43398 29.0884 2.57373C28.2291 1.71445 27.363 1.18066 26.3458 0.787352C25.3587 0.405664 24.233 0.139258 22.5861 0.0666016C20.9276 -0.0118672 20.4006 -0.0302734 16.1924 -0.0302734L16.1914 -0.0293047Z" fill="white"/>
<path d="M16.1914 7.53809C11.7962 7.53809 8.22925 11.1041 8.22925 15.5002C8.22925 19.8964 11.7952 23.4624 16.1914 23.4624C20.5876 23.4624 24.1536 19.8964 24.1536 15.5002C24.1536 11.105 20.5876 7.53809 16.1914 7.53809ZM16.1914 20.6646C13.3394 20.6646 11.027 18.3522 11.027 15.5002C11.027 12.6482 13.3394 10.3358 16.1914 10.3358C19.0434 10.3358 21.3558 12.6482 21.3558 15.5002C21.3558 18.3522 19.0434 20.6646 16.1914 20.6646Z" fill="white"/>
<path d="M26.3265 7.22317C26.3265 8.25005 25.4943 9.08221 24.4674 9.08221C23.4406 9.08221 22.6084 8.25005 22.6084 7.22317C22.6084 6.1963 23.4406 5.36414 24.4674 5.36414C25.4943 5.36414 26.3265 6.1963 26.3265 7.22317Z" fill="white"/>
</g>
<defs>
<clipPath id="clip0">
<rect width="31" height="31" fill="white" transform="translate(0.691406)"/>
</clipPath>
</defs>
</svg>
