<svg width="32" height="31" viewBox="0 0 32 31" fill="none" xmlns="http://www.w3.org/2000/svg">
<path d="M27.1713 4.50469C24.2566 1.59844 20.381 0 16.2493 0C7.74266 0 0.818938 6.88975 0.818938 15.3605C0.818938 18.0672 1.53059 20.7128 2.88184 23.0378L0.691406 31L8.87487 28.8629C11.1325 30.0855 13.6695 30.7336 16.2493 30.7336H16.2552C24.7618 30.7336 31.6914 23.8429 31.6914 15.3731C31.6914 11.2675 30.0851 7.41094 27.1704 4.50469H27.1713ZM16.2561 28.1422C13.9499 28.1422 11.6923 27.5251 9.72086 26.3626L9.2526 26.0836L4.39762 27.3488L5.69338 22.6378L5.38867 22.1534C4.09875 20.1248 3.42312 17.7756 3.42312 15.3605C3.42312 8.31866 9.17861 2.59141 16.262 2.59141C19.6878 2.59141 22.9121 3.92344 25.3343 6.33272C27.7564 8.74878 29.0882 11.9515 29.0882 15.3663C29.0824 22.414 23.3259 28.1422 16.2561 28.1422ZM23.2899 18.5758C22.9063 18.382 21.0079 17.4559 20.6555 17.328C20.3031 17.2002 20.0471 17.1343 19.7852 17.5218C19.5301 17.9035 18.7873 18.7695 18.5624 19.0292C18.3375 19.283 18.1127 19.3198 17.7291 19.126C17.3455 18.9323 16.0984 18.5264 14.6255 17.2186C13.4816 16.2014 12.7028 14.942 12.4779 14.5603C12.253 14.1786 12.4536 13.9665 12.6483 13.7795C12.8245 13.61 13.0318 13.331 13.2265 13.1072C13.4212 12.8834 13.4816 12.7255 13.6101 12.4659C13.7376 12.2121 13.6773 11.9873 13.5799 11.7936C13.4826 11.5998 12.7096 9.71075 12.3932 8.94156C12.0826 8.19078 11.7604 8.29347 11.5229 8.28184C11.298 8.27022 11.0419 8.27022 10.7869 8.27022C10.5318 8.27022 10.1112 8.36709 9.75883 8.74878C9.40544 9.13047 8.40855 10.0624 8.40855 11.9515C8.40855 13.8405 9.78998 15.6628 9.98469 15.9233C10.1794 16.1772 12.7047 20.0589 16.5745 21.7174C17.4935 22.1108 18.211 22.3471 18.7708 22.5283C19.6956 22.8189 20.5358 22.7763 21.1987 22.6794C21.9406 22.5699 23.4807 21.7533 23.8029 20.8572C24.1252 19.9611 24.1252 19.1919 24.0278 19.035C23.9363 18.8654 23.6812 18.7686 23.2918 18.5748L23.2899 18.5758Z" fill="white"/>
</svg>
