<svg width="40" height="25" viewBox="0 0 40 25" fill="none" xmlns="http://www.w3.org/2000/svg">
<path d="M39.6356 2.56105C39.945 3.43098 38.9743 5.46669 36.5354 8.79576C32.5267 14.2664 32.0929 13.7575 35.3993 16.9169C38.5815 19.9488 39.2428 21.4131 39.3459 21.6031C39.3459 21.6031 40.6685 23.9781 37.8792 23.9998L32.5889 24.0853C31.4528 24.3188 29.9437 23.2588 29.9437 23.2588C27.9598 21.8596 26.1003 18.2333 24.6534 18.7002C24.6534 18.7002 23.1655 19.1874 23.2065 22.4541C23.2276 23.1543 22.897 23.5357 22.897 23.5357C22.897 23.5357 22.5253 23.9388 21.8019 24.0026H19.4252C14.197 24.3418 9.58785 19.4005 9.58785 19.4005C9.58785 19.4005 4.54485 14.0561 0.123465 3.39026C-0.16618 2.68998 0.144626 2.35069 0.144626 2.35069C0.144626 2.35069 0.45411 1.94762 1.32305 1.94762L6.98501 1.90555C7.52198 1.99105 7.89495 2.28691 7.89495 2.28691C7.89495 2.28691 8.22559 2.52034 8.39092 2.96548C9.32069 5.34048 10.5189 7.50376 10.5189 7.50376C12.5861 11.8724 13.9907 12.6148 14.7962 12.1683C14.7962 12.1683 15.8503 11.5114 15.6228 6.23076C15.5395 4.32262 15.0237 3.45269 15.0237 3.45269C14.5489 2.79584 13.6601 2.60448 13.2673 2.54069C12.9578 2.49862 13.4736 1.73455 14.156 1.39526C15.1691 0.886335 16.9665 0.864621 19.0946 0.886335C20.7689 0.90805 21.2438 1.01391 21.8839 1.16184C23.8466 1.64905 23.1853 3.51512 23.1853 8.01134C23.1853 9.45262 22.9168 11.468 23.9286 12.1248C24.3624 12.4221 25.4377 12.1669 28.0828 7.54448C28.0828 7.54448 29.3234 5.33912 30.2942 2.77276C30.4595 2.30591 30.8113 2.11591 30.8113 2.11591C30.8113 2.11591 31.142 1.92455 31.5969 1.98834L37.5485 1.94626C39.3459 1.71284 39.6356 2.56105 39.6356 2.56105Z" fill="white"/>
</svg>
