<svg width="44" height="44" viewBox="0 0 44 44" fill="none" xmlns="http://www.w3.org/2000/svg">
<path d="M25.391 23.2195C25.657 23.2195 28.203 24.5475 28.313 24.7355C28.344 24.8135 28.344 24.9075 28.344 24.9695C28.344 25.3605 28.219 25.7975 28.078 26.1575C27.719 27.0325 26.265 27.5945 25.375 27.5945C24.625 27.5945 23.078 26.9385 22.406 26.6255C20.172 25.6095 18.781 23.8755 17.437 21.8915C16.843 21.0165 16.312 19.9385 16.328 18.8605V18.7355C16.359 17.7045 16.734 16.9695 17.484 16.2665C17.718 16.0475 17.968 15.9225 18.296 15.9225C18.483 15.9225 18.671 15.9695 18.874 15.9695C19.296 15.9695 19.374 16.0945 19.53 16.5005C19.639 16.7665 20.436 18.8915 20.436 19.0475C20.436 19.6415 19.358 20.3135 19.358 20.6725C19.358 20.7505 19.389 20.8285 19.436 20.9065C19.78 21.6405 20.436 22.4845 21.03 23.0475C21.749 23.7355 22.514 24.1885 23.389 24.6255C23.498 24.6885 23.608 24.7345 23.733 24.7345C24.202 24.7345 24.983 23.2185 25.389 23.2185L25.391 23.2195ZM22.219 31.5005C27.625 31.5005 32.031 27.0945 32.031 21.6885C32.031 16.2825 27.625 11.8765 22.219 11.8765C16.813 11.8765 12.407 16.2825 12.407 21.6885C12.407 23.7515 13.063 25.7665 14.282 27.4385L13.048 31.0795L16.829 29.8765C18.423 30.9235 20.313 31.5015 22.22 31.5015L22.219 31.5005ZM22.219 9.90649C28.719 9.90649 34 15.1875 34 21.6875C34 28.1875 28.719 33.4685 22.219 33.4685C20.235 33.4685 18.266 32.9685 16.516 31.9995L10 34.0935L12.125 27.7655C11.016 25.9375 10.438 23.8275 10.438 21.6875C10.438 15.1875 15.719 9.90649 22.219 9.90649Z" fill="black"/>
<rect x="1" y="1" width="42" height="42" rx="4" stroke="black" stroke-width="2"/>
</svg>
