<svg width="44" height="44" viewBox="0 0 44 44" fill="none" xmlns="http://www.w3.org/2000/svg">
<path d="M25.999 22C25.999 19.6207 24.202 17.68 21.999 17.68C19.796 17.68 17.999 19.6207 17.999 22C17.999 24.3792 19.796 26.32 21.999 26.32C24.202 26.32 25.999 24.3792 25.999 22ZM28.155 22C28.155 25.6785 25.405 28.6485 21.999 28.6485C18.593 28.6485 15.843 25.6785 15.843 22C15.843 18.3215 18.593 15.3515 21.999 15.3515C25.405 15.3515 28.155 18.3215 28.155 22ZM29.843 15.0815C29.843 15.9422 29.202 16.6334 28.406 16.6334C27.61 16.6334 26.969 15.9412 26.969 15.0815C26.969 14.2218 27.61 13.5295 28.406 13.5295C29.202 13.5295 29.843 14.2218 29.843 15.0815ZM21.999 11.3684C20.249 11.3684 16.499 11.2162 14.921 11.8912C14.374 12.1277 13.968 12.4139 13.546 12.8696C13.124 13.3254 12.858 13.7639 12.64 14.3546C12.015 16.0589 12.156 20.1089 12.156 21.9989C12.156 23.8889 12.015 27.9389 12.64 29.6431C12.859 30.2339 13.124 30.6724 13.546 31.1281C13.968 31.5839 14.374 31.8712 14.921 32.1066C16.499 32.7816 20.249 32.6293 21.999 32.6293C23.749 32.6293 27.499 32.7816 29.077 32.1066C29.624 31.8701 30.03 31.5839 30.452 31.1281C30.874 30.6724 31.14 30.2339 31.358 29.6431C31.983 27.9389 31.842 23.8889 31.842 21.9989C31.842 20.1089 31.983 16.0589 31.358 14.3546C31.139 13.7639 30.874 13.3254 30.452 12.8696C30.03 12.4139 29.624 12.1266 29.077 11.8912C27.499 11.2162 23.749 11.3684 21.999 11.3684ZM33.999 22C33.999 23.7885 34.015 25.5607 33.921 27.3492C33.827 29.425 33.39 31.2642 31.984 32.7827C30.578 34.3012 28.875 34.7742 26.953 34.8747C25.297 34.9762 23.656 34.9589 22 34.9589C20.344 34.9589 18.703 34.9762 17.047 34.8747C15.125 34.7731 13.422 34.3012 12.016 32.7827C10.61 31.2642 10.172 29.425 10.079 27.3492C9.98503 25.5607 10.001 23.7885 10.001 22C10.001 20.2115 9.98503 18.4392 10.079 16.6507C10.173 14.575 10.61 12.7357 12.016 11.2172C13.422 9.69875 15.125 9.22571 17.047 9.12527C18.703 9.02375 20.344 9.04103 22 9.04103C23.656 9.04103 25.297 9.02375 26.953 9.12527C28.875 9.22679 30.578 9.69875 31.984 11.2172C33.39 12.7357 33.828 14.575 33.921 16.6507C34.015 18.4392 33.999 20.2115 33.999 22Z" fill="black"/>
<rect x="1" y="1" width="42" height="42" rx="4" stroke="black" stroke-width="2"/>
</svg>
