<svg width="44" height="44" viewBox="0 0 44 44" fill="none" xmlns="http://www.w3.org/2000/svg">
<path d="M39.9494 13.446C40.2301 14.1947 39.3496 15.9467 37.1376 18.8119C33.5017 23.5203 33.1082 23.0823 36.1072 25.8015C38.9933 28.4109 39.5931 29.6712 39.6867 29.8347C39.6867 29.8347 40.8863 31.8788 38.3564 31.8975L33.558 31.9711C32.5276 32.172 31.1589 31.2598 31.1589 31.2598C29.3595 30.0555 27.6729 26.9345 26.3606 27.3363C26.3606 27.3363 25.011 27.7556 25.0482 30.5671C25.0674 31.1698 24.7675 31.498 24.7675 31.498C24.7675 31.498 24.4305 31.8449 23.7743 31.8998H21.6186C16.8767 32.1919 12.6962 27.939 12.6962 27.939C12.6962 27.939 8.12218 23.3393 4.11198 14.1596C3.84927 13.5569 4.13118 13.2649 4.13118 13.2649C4.13118 13.2649 4.41188 12.918 5.2 12.918L10.3354 12.8818C10.8224 12.9554 11.1607 13.21 11.1607 13.21C11.1607 13.21 11.4606 13.4109 11.6106 13.794C12.4539 15.8381 13.5407 17.7 13.5407 17.7C15.4156 21.4599 16.6896 22.0988 17.4201 21.7145C17.4201 21.7145 18.3762 21.1492 18.1698 16.6044C18.0943 14.9621 17.6264 14.2134 17.6264 14.2134C17.1958 13.648 16.3897 13.4833 16.0334 13.4284C15.7527 13.3922 16.2205 12.7346 16.8395 12.4426C17.7584 12.0046 19.3886 11.9859 21.3187 12.0046C22.8374 12.0233 23.2681 12.1144 23.8487 12.2417C25.6288 12.661 25.029 14.2671 25.029 18.1368C25.029 19.3773 24.7855 21.1118 25.7032 21.6772C26.0967 21.933 27.0719 21.7134 29.4711 17.735C29.4711 17.735 30.5963 15.8369 31.4768 13.6282C31.6267 13.2264 31.9458 13.0629 31.9458 13.0629C31.9458 13.0629 32.2457 12.8982 32.6584 12.9531L38.0565 12.9168C39.6867 12.7159 39.9494 13.446 39.9494 13.446V13.446Z" fill="black"/>
<rect x="1" y="1" width="42" height="42" rx="4" stroke="black" stroke-width="2"/>
</svg>
