<svg width="80" height="80" fill="none" xmlns="http://www.w3.org/2000/svg"><path fill="#C536A4" d="M0 0h80v80H0z"/><path d="M40 33.5a6.57 6.57 0 00-6.563 6.563A6.57 6.57 0 0040 46.624a6.57 6.57 0 006.563-6.563A6.57 6.57 0 0040 33.5zm0 0a6.57 6.57 0 00-6.563 6.563A6.57 6.57 0 0040 46.624a6.57 6.57 0 006.563-6.563A6.57 6.57 0 0040 33.5zM51.313 24H28.686A4.69 4.69 0 0024 28.688v22.625A4.69 4.69 0 0028.688 56h22.625A4.69 4.69 0 0056 51.312V28.689A4.69 4.69 0 0051.312 24zM40 48.5c-4.65 0-8.438-3.788-8.438-8.438S35.35 31.626 40 31.626s8.438 3.787 8.438 8.438c0 4.65-3.788 8.437-8.438 8.437zm10.313-16.875a1.88 1.88 0 01-1.876-1.875 1.88 1.88 0 011.876-1.875 1.88 1.88 0 011.874 1.875 1.88 1.88 0 01-1.874 1.875zM40 33.5a6.57 6.57 0 00-6.563 6.563A6.57 6.57 0 0040 46.624a6.57 6.57 0 006.563-6.563A6.57 6.57 0 0040 33.5zm0 0a6.57 6.57 0 00-6.563 6.563A6.57 6.57 0 0040 46.624a6.57 6.57 0 006.563-6.563A6.57 6.57 0 0040 33.5zm0 0a6.57 6.57 0 00-6.563 6.563A6.57 6.57 0 0040 46.624a6.57 6.57 0 006.563-6.563A6.57 6.57 0 0040 33.5z" fill="#fff"/></svg>