<svg width="20" height="22" fill="none" xmlns="http://www.w3.org/2000/svg"><path d="M2 11.01l-.707-.707-.707.707.707.708L2 11.01zm9-9l.707-.707L11 .596l-.707.707.707.708zm-8.293 9.708L2 12.425l.707.707.707-.707-.707-.707zm0 0l.707-.708-.707-.707L2 11.01l.707.707zM11 20.01l-.707.707.707.707.707-.707L11 20.01zm.707-.708l.707.707.707-.707-.707-.707-.707.707zM3.414 11.01l-.707-.707L2 11.01l.707.707.707-.707zm8.293-8.292l.707.707.707-.707-.707-.707-.707.707zm-9 9l9-9-1.414-1.415-9 9 1.414 1.415zm.707-.707l-.707-.708-1.414 1.415.707.707 1.414-1.415zM2 11.01l1.414 1.414L2 11.01zm9.707 8.292L3.414 11.01 2 12.425l8.293 8.293 1.414-1.415zM11 18.596l-.707.707 1.414 1.415.707-.707L11 18.596zm-8.293-6.879L11 20.01l1.414-1.414-8.293-8.293-1.414 1.414zM11 2.011l-8.293 8.292 1.414 1.414 8.293-8.292L11 2.01zm-.707.707l.707.707 1.414-1.414-.707-.708-1.414 1.415z" fill="#000"/></svg>