<svg width="22" height="22" fill="none" xmlns="http://www.w3.org/2000/svg"><path d="M20 11l.707.707.707-.707-.707-.707L20 11zm-9 9l-.707.707.707.707.707-.707L11 20zm8.293-9.707L20 9.586l-.707-.707-.707.707.707.707zm0 0l-.707.707.707.707L20 11l-.707-.707zM11 2l.707-.707L11 .586l-.707.707L11 2zm-.707.707L9.586 2l-.708.707.708.707.707-.707zM18.586 11l.707.707L20 11l-.707-.707-.707.707zm-8.293 8.293l-.707-.707-.707.707.707.707.707-.707zm9-9l-9 9 1.414 1.414 9-9-1.414-1.414zm-.707.707l.707.707 1.414-1.414L20 9.586 18.586 11zM20 11l-1.414-1.414L20 11zm-9.707-8.293L18.586 11 20 9.586l-8.293-8.293-1.414 1.414zm.707.707l.707-.707-1.414-1.414L9.586 2 11 3.414zm8.293 6.88L11 2 9.586 3.414l8.292 8.293 1.415-1.414zM11 20l8.293-8.293-1.415-1.414-8.292 8.293L11 20zm.707-.707L11 18.586 9.586 20l.707.707 1.414-1.414z" fill="#000"/></svg>