<svg width="80" height="80" fill="none" xmlns="http://www.w3.org/2000/svg"><path d="M80 0H0v80h80V0z" fill="#44678D"/><path d="M27.65 30.477c1.229 2.88 2.786 5.596 4.836 8.034.272.324.615.613.976.848.527.344 1.025.223 1.24-.35.226-.601.434-1.82.447-2.451.034-1.65-.005-2.73-.099-4.379-.06-1.055-.455-1.981-2.09-2.261-.505-.087-.552-.481-.227-.875.675-.82 1.615-.95 2.636-1.002 1.653-.084 3.312-.015 4.967 0 .675.006 1.353.058 2.017.195.866.18 1.33.756 1.473 1.56.074.413.111.84.101 1.258-.043 1.8-.134 3.6-.156 5.4a8.95 8.95 0 00.204 2.118c.223.96.91 1.2 1.614.507.892-.88 1.68-1.87 2.418-2.875 1.343-1.83 2.345-3.836 3.208-5.906.447-1.068.788-1.3 1.998-1.302 2.274-.005 4.548-.007 6.822 0 .404.001.826.038 1.206.152.618.188.863.666.719 1.273-.338 1.423-1.148 2.632-2.015 3.794-1.391 1.865-2.85 3.685-4.274 5.529a6.91 6.91 0 00-.49.74c-.533.913-.496 1.426.28 2.187 1.237 1.21 2.561 2.344 3.759 3.588a21.33 21.33 0 012.365 2.921c.872 1.308.334 2.54-1.296 2.759-1.025.137-6.033 0-6.292 0-1.346-.006-2.526-.45-3.476-1.318-1.057-.966-2.018-2.026-3.033-3.035a8.34 8.34 0 00-.984-.85c-.83-.6-1.645-.467-2.033.459-.331.795-.618 2.883-.631 3.061-.07.932-.695 1.527-1.795 1.584-3.176.164-6.254-.172-9.12-1.63-2.43-1.236-4.371-2.983-6.052-5.02-2.67-3.237-4.78-6.794-6.705-10.455-.099-.188-2.049-4.128-2.101-4.314-.175-.623-.012-1.219.543-1.424.345-.127 6.776 0 6.882.006 1.026.052 1.726.463 2.158 1.474z" fill="#fff"/></svg>