<svg width="81" height="18" viewBox="0 0 81 18" fill="none" xmlns="http://www.w3.org/2000/svg">
<path d="M31.0032 3.13281C32.8581 2.54391 34.713 1.95501 36.5679 1.48389C36.5679 2.89725 36.5679 4.42839 36.5679 5.84176C37.3629 5.84176 38.2903 5.84176 39.0853 5.84176C39.0853 6.90178 39.0853 8.07958 39.0853 9.1396C38.2903 9.1396 37.3629 9.1396 36.5679 9.1396C36.5679 10.3174 36.5679 11.3774 36.5679 12.5552C36.5679 13.0264 36.8329 13.6153 37.3629 13.8508C37.8928 13.9686 38.5553 13.8508 39.0853 13.733C39.0853 14.7931 39.0853 15.9709 39.0853 17.0309C37.4953 17.502 35.9054 17.7376 34.183 17.6198C33.1231 17.502 32.1956 17.0309 31.6657 16.2064C31.0032 15.382 30.8707 14.3219 30.8707 13.3797C30.8707 11.9663 30.8707 10.553 30.8707 9.1396C30.2082 9.1396 29.5458 9.1396 28.8833 9.1396C28.8833 8.07958 28.8833 6.90178 28.8833 5.84176C29.5458 5.84176 30.2082 5.84176 30.8707 5.84176C31.0032 4.89951 30.8707 3.95727 31.0032 3.13281Z" fill="#32448C"/>
<path d="M40.5432 2.19095C42.3981 1.60205 44.3855 1.60205 46.2404 1.60205C47.9628 1.71983 49.8177 2.07317 51.1426 3.13319C52.8651 4.54656 52.9975 7.25551 51.1426 8.66887C50.6127 9.02221 50.0827 9.25777 49.5527 9.49333C50.3477 9.72889 51.1426 10.0822 51.8051 10.6711C52.7326 11.6134 52.8651 13.0267 52.6001 14.2045C52.3351 15.2646 51.4076 16.2068 50.2152 16.6779C48.2278 17.6202 45.8429 17.6202 43.5906 17.5024C42.5306 17.3846 41.4707 17.2668 40.5432 17.0313C40.5432 15.8535 40.5432 14.6757 40.5432 13.3801C42.2656 13.8512 44.253 14.2045 45.9754 13.8512C47.1679 13.6156 47.3004 11.8489 46.1079 11.3778C44.9155 10.9067 43.5905 11.0245 42.3981 11.26C42.3981 10.0822 42.3981 9.02221 42.3981 7.84441C43.3256 7.84441 44.253 7.96219 45.313 7.84441C45.8429 7.72663 46.5054 7.49107 46.6379 6.90216C46.7704 6.43104 46.6379 5.95992 46.3729 5.60658C45.9754 5.25324 45.313 5.01768 44.783 5.01768C43.3256 4.8999 42.0006 5.13546 40.6757 5.60658C40.5432 4.54656 40.5432 3.36876 40.5432 2.19095Z" fill="#32448C"/>
<path d="M69.294 1.8374C73.0038 1.8374 76.7136 1.8374 80.2909 1.8374C80.2909 3.01521 80.2909 4.19301 80.2909 5.37081C78.3035 5.37081 76.3161 5.37081 74.3287 5.37081C74.3287 6.19527 74.3287 6.90196 74.3287 7.72642C75.3886 7.72642 76.5811 7.60864 77.641 7.8442C79.2309 8.31532 80.4234 9.49312 80.6884 10.9065C81.0858 12.2021 80.9533 13.7332 80.1584 15.0288C79.3634 16.2066 78.0385 16.9133 76.5811 17.1488C74.0637 17.7377 71.4139 17.3844 68.8965 16.7955C68.8965 15.6177 68.8965 14.4399 68.8965 13.2621C70.4864 13.6154 72.2088 13.9688 73.7987 13.4977C75.1237 13.1443 75.3886 11.3776 74.3287 10.5531C73.6662 10.082 72.8713 9.96424 72.0763 9.96424C71.1489 9.96424 70.3539 10.082 69.4265 10.1998C69.294 10.1998 69.029 10.3176 68.8965 10.4354C68.8965 10.3176 69.029 10.1998 69.029 10.082C69.294 7.49086 69.294 4.66413 69.294 1.8374Z" fill="#32448C"/>
<path d="M21.1992 14.087C20.8018 13.8514 20.8018 13.3803 20.6693 12.9092C23.3191 12.9092 25.8365 12.9092 28.4863 12.9092C28.4863 12.0847 28.4863 11.2603 28.3539 10.4358C28.2214 9.14023 27.6914 7.72687 26.499 6.78462C25.439 5.84238 23.8491 5.48904 22.2592 5.60682C20.2718 5.60682 18.1519 5.96016 16.6945 7.25574C15.3695 8.55133 14.9721 10.318 15.1046 12.0847C15.2371 13.6159 15.767 15.2648 17.2244 16.3248C18.6819 17.5026 20.8018 17.7382 22.6567 17.7382C24.3791 17.7382 26.1015 17.6204 27.6914 17.0315C27.6914 16.0893 27.6914 15.0292 27.6914 14.087C26.3665 14.6759 24.909 14.7937 23.4516 14.7937C22.7892 14.6759 21.8617 14.5581 21.1992 14.087ZM21.1992 8.66911C21.5967 8.08021 22.7892 8.08021 23.1866 8.66911C23.5841 9.25801 23.5841 9.84691 23.5841 10.5536C22.6567 10.5536 21.5967 10.5536 20.6693 10.5536C20.8018 9.84691 20.8018 9.14023 21.1992 8.66911Z" fill="#32448C"/>
<path d="M12.5868 6.78424C11.3944 5.60644 9.407 5.2531 7.81708 5.72422C6.88963 5.95978 6.22717 6.54868 5.5647 7.25536C5.5647 5.01754 5.5647 2.89749 5.5647 0.659668C3.7098 0.659668 1.8549 0.659668 0 0.659668C0 6.19534 0 11.8488 0 17.3845C1.72241 17.3845 3.44482 17.3845 5.29972 17.3845C5.29972 16.6778 5.29972 15.9711 5.29972 15.2644C5.6972 15.9711 6.09468 16.6778 6.75714 17.0311C7.81708 17.62 9.14201 17.7378 10.3344 17.5023C11.5269 17.2667 12.5868 16.56 13.1168 15.5C13.9118 14.0866 14.1767 12.5555 14.1767 11.0243C14.1767 9.49319 13.7793 7.96205 12.5868 6.78424ZM7.81708 13.4977C7.4196 14.0866 6.35966 14.0866 5.96218 13.4977C5.5647 12.9088 5.5647 12.3199 5.5647 11.6132C5.5647 11.0243 5.5647 10.4354 5.82969 9.84653C5.82969 9.49319 6.09468 9.13985 6.62465 9.02207C7.15462 8.90429 7.68459 9.13985 7.94958 9.49319C8.34706 10.0821 8.34706 10.7888 8.34706 11.4955C8.34706 12.2021 8.21456 12.9088 7.81708 13.4977Z" fill="#32448C"/>
<path d="M67.4389 9.72869C66.644 8.31532 64.9216 7.37308 63.1991 7.2553C61.7417 7.13752 60.2843 7.37308 59.0919 8.19754C59.0919 7.60864 59.2244 7.01974 59.6218 6.54862C60.1518 5.72416 61.0793 5.37082 62.0067 5.25304C63.5966 5.13525 65.1865 5.37082 66.644 5.72416C66.644 4.54635 66.644 3.36855 66.644 2.19075C64.7891 1.71963 62.8017 1.71963 60.9468 1.83741C58.8269 1.95519 56.8395 2.77965 55.5145 4.19301C53.9246 5.95972 53.3947 8.19754 53.3947 10.4354C53.3947 12.2021 54.0571 14.0866 55.382 15.4999C56.442 16.7955 58.1644 17.62 60.0193 17.8555C62.1392 18.0911 64.2591 17.7377 65.9815 16.5599C67.1739 15.8533 67.8364 14.6755 68.1014 13.3799C68.1014 11.9665 68.1014 10.7887 67.4389 9.72869ZM62.4042 13.6154C61.8742 14.4399 60.2843 14.5577 59.6218 13.851C58.9594 13.2621 58.9594 12.3199 59.0919 11.6132C59.2243 11.0243 59.6218 10.5531 60.1518 10.3176C60.9468 10.082 62.0067 10.3176 62.4042 10.9065C63.0666 11.731 63.0666 12.791 62.4042 13.6154Z" fill="#32448C"/>
</svg>
