<svg width="129" height="14" viewBox="0 0 129 14" fill="none" xmlns="http://www.w3.org/2000/svg">
<g clip-path="url(#clip0)">
<path d="M12.2256 1.07983H21.2215L21.4547 3.79776H20.9216C20.7217 2.6628 20.6884 2.45373 20.222 2.00572C19.7555 1.55771 18.8559 1.61745 18.1229 1.61745H15.824C15.6574 1.61745 15.5241 1.64731 15.3908 1.76678C15.2909 1.88625 15.2242 2.03559 15.2575 2.18492V5.64953H16.2571C16.7569 5.64953 17.2566 5.47033 17.5565 5.14179C17.923 4.69378 18.1229 4.1263 18.0896 3.52895H18.6227V8.39732H18.0896C18.0563 7.59091 17.8897 7.02343 17.5565 6.66502C17.19 6.30661 16.6902 6.12741 16.1571 6.12741H15.2242V10.04C15.2242 10.1595 15.2909 10.3088 15.3908 10.3984C15.5574 10.488 15.7573 10.5478 15.9572 10.5179H17.7897C19.7555 10.5179 20.8883 9.95043 21.1882 7.68051H21.7546L21.5547 11.0555H12.2256V10.5179H12.7254C12.9586 10.5478 13.1918 10.488 13.3917 10.3686C13.525 10.2491 13.5916 10.0998 13.5916 9.95043V2.15506C13.5916 2.00572 13.5583 1.85638 13.425 1.73691C13.2918 1.64731 13.0919 1.58758 12.892 1.58758H12.2256V1.07983Z" fill="#32448C"/>
<path d="M21.0549 4.39535H25.1198V4.87322C24.8199 4.84336 24.4867 4.90309 24.1868 4.99269C24.0536 5.05243 23.9869 5.1719 23.9869 5.29137C23.9869 5.38097 24.0203 5.50044 24.0536 5.59004L26.0193 9.53252L27.8518 5.70951C27.8852 5.64977 27.8852 5.59004 27.8852 5.50044C27.8852 5.14203 27.5187 4.93296 26.7523 4.84336V4.36548H29.8509V4.84336C29.5844 4.84336 29.3178 4.93296 29.1179 5.08229C28.918 5.20176 28.7848 5.38097 28.6848 5.59004L25.9527 11.2648H25.5196L22.5876 5.4407C22.5209 5.2615 22.3877 5.11216 22.1877 4.99269C21.8212 4.90309 21.4548 4.84336 21.0883 4.87322L21.0549 4.39535Z" fill="#32448C"/>
<path d="M32.7167 4.18605C33.6829 4.15619 34.5825 4.5146 35.2489 5.17168C35.9485 5.85862 36.315 6.78451 36.2817 7.74027C36.315 8.39735 36.1485 9.02456 35.8153 9.62191C35.5154 10.1297 35.0823 10.5478 34.5159 10.8465C33.9494 11.1451 33.3164 11.2945 32.6834 11.2945C31.7504 11.2945 30.8509 10.9361 30.2178 10.3089C28.8851 8.81549 28.8851 6.69491 30.2178 5.20154C30.8509 4.54446 31.7504 4.18605 32.7167 4.18605ZM32.7167 4.6938C32.1169 4.6938 31.5839 4.9626 31.2507 5.41061C30.8842 5.88849 30.6843 6.66504 30.6843 7.68053C30.6843 8.72589 30.8842 9.50244 31.2507 10.0102C31.5505 10.4582 32.1169 10.7569 32.7167 10.7569C33.3164 10.7569 33.8828 10.4881 34.216 10.0102C34.6158 9.53231 34.7824 8.72589 34.7824 7.6208C34.7824 6.57544 34.5825 5.85862 34.216 5.38075C33.8828 4.9626 33.3164 4.6938 32.7167 4.6938Z" fill="#32448C"/>
<path d="M38.7141 0.960449V10.0998C38.7141 10.2193 38.7474 10.3089 38.8474 10.3985C38.9806 10.4881 39.1472 10.5479 39.3471 10.5479H39.8136V11.0855H36.2152V10.5479H36.6484C36.8483 10.5479 37.0482 10.518 37.1815 10.3985C37.3147 10.2791 37.3814 10.1297 37.3481 9.95051V2.33435C37.3814 2.15514 37.2814 1.94607 37.1481 1.8266C36.9482 1.67726 36.6817 1.58766 36.4151 1.58766H35.7488V1.05005L38.7141 0.960449Z" fill="#32448C"/>
<path d="M42.5125 4.27572V8.69608C42.4792 9.14409 42.6458 9.59209 42.979 9.9505C43.2788 10.2492 43.712 10.3985 44.1451 10.3985C44.7448 10.3985 45.2779 10.1596 45.6444 9.74143C46.0776 9.29342 46.2775 8.72594 46.2775 8.1286V5.61975C46.2775 5.41067 46.1775 5.2016 46.0109 5.08213C45.6777 4.9328 45.3112 4.8432 44.9447 4.87306V4.36532L47.5769 4.24585V9.74143C47.5769 9.9505 47.6435 10.1596 47.8101 10.3388C48.01 10.4881 48.2432 10.5478 48.4765 10.5478H48.9429V11.0257L46.4441 11.0855L46.2775 9.7713C45.911 10.1894 45.4445 10.5478 44.9447 10.8465C44.5449 11.0855 44.0451 11.2049 43.5787 11.2049C42.9456 11.2348 42.3459 10.9959 41.8795 10.6076C41.413 10.2193 41.1798 9.53236 41.1798 8.57661V5.67948C41.2131 5.44054 41.0798 5.2016 40.8466 5.08213C40.5467 4.96266 40.2136 4.90293 39.8804 4.9328V4.42505L42.5125 4.27572Z" fill="#32448C"/>
<path d="M50.4413 1.67749H50.9744V4.39542H55.5057V5.0525H50.9744V9.32352C50.9411 9.6222 51.0411 9.92087 51.2743 10.1897C51.4742 10.3987 51.7407 10.4883 52.0073 10.4883C52.3738 10.4883 52.707 10.3091 52.9402 10.0403C53.2401 9.59233 53.4067 9.08458 53.3733 8.54697H53.9064C53.8731 9.44299 53.6399 10.1001 53.2401 10.5182C52.8402 10.9364 52.2405 11.1753 51.6075 11.1753C51.0744 11.2052 50.5746 11.026 50.1748 10.7273C49.8083 10.3987 49.6417 9.9806 49.6417 9.53259V5.0525H48.3423V4.54475C48.8754 4.48502 49.3418 4.24608 49.675 3.88767C50.2081 3.23059 50.4747 2.45404 50.4413 1.67749Z" fill="#32448C"/>
<path d="M53.9071 4.39543L56.8724 4.30582V10.0403C56.8724 10.1598 56.9058 10.2793 57.0057 10.3689C57.139 10.4585 57.3056 10.5182 57.4722 10.5182H58.0053V11.0558H54.3736V10.5182H54.84C55.0399 10.5481 55.2065 10.4884 55.3398 10.3689C55.4731 10.2494 55.5064 10.1001 55.5064 9.92088V5.85893C55.5397 5.64985 55.4397 5.41092 55.2398 5.26158C55.0399 5.11224 54.7401 5.05251 54.4735 5.05251H53.8738V4.39543H53.9071ZM55.9728 1.22949C56.2061 1.22949 56.4393 1.31909 56.6059 1.46843C56.7725 1.61777 56.8724 1.82684 56.8724 2.03591C56.8724 2.24498 56.7725 2.45405 56.6059 2.60339C56.2394 2.90206 55.7063 2.90206 55.3398 2.60339C55.0066 2.27485 55.0066 1.79697 55.3398 1.46843C55.5397 1.31909 55.7396 1.22949 55.9728 1.22949Z" fill="#32448C"/>
<path d="M61.7369 4.18605C62.7032 4.15619 63.6028 4.5146 64.2691 5.17168C64.9688 5.85862 65.3353 6.78451 65.302 7.74027C65.3353 8.39735 65.1687 9.02456 64.8355 9.62191C64.5357 10.1297 64.1025 10.5478 63.5361 10.8465C62.9697 11.1451 62.3367 11.2945 61.7036 11.2945C60.7707 11.2945 59.8711 10.9361 59.2381 10.3089C57.9053 8.81549 57.9053 6.69491 59.2381 5.20154C59.8711 4.54446 60.804 4.18605 61.7369 4.18605ZM61.7369 4.6938C61.1372 4.6938 60.6041 4.9626 60.2709 5.41061C59.9044 5.88849 59.7045 6.66504 59.7045 7.68053C59.7045 8.72589 59.9044 9.50244 60.2709 10.0102C60.5708 10.4582 61.1372 10.7569 61.7369 10.7569C62.3367 10.7569 62.9031 10.4881 63.2363 10.0102C63.6361 9.53231 63.8027 8.72589 63.8027 7.6208C63.8027 6.57544 63.6028 5.85862 63.2363 5.38075C62.9364 4.9626 62.3367 4.6938 61.7369 4.6938Z" fill="#32448C"/>
<path d="M65.1355 4.39519L67.601 4.24585C67.701 4.72373 67.8009 5.23147 67.8343 5.70935C68.1341 5.26134 68.5339 4.90293 69.0004 4.63412C69.4669 4.39519 69.9999 4.27572 70.533 4.27572C70.9662 4.27572 71.3993 4.36532 71.7658 4.54452C72.1323 4.75359 72.3989 5.0224 72.5654 5.38081C72.7654 5.76908 72.8653 6.21709 72.8653 6.63523V9.89077C72.832 10.07 72.8986 10.279 73.0319 10.3985C73.1985 10.518 73.4317 10.5777 73.6316 10.5479H73.8315V11.0855H70.5997V10.5479H70.6663C70.9329 10.5777 71.1661 10.518 71.3993 10.3985C71.5326 10.279 71.6325 10.1297 71.5992 9.95051V7.08324C71.6325 6.60537 71.4993 6.12749 71.266 5.70935C70.9662 5.29121 70.4664 5.05227 69.9 5.08213C69.3003 5.08213 68.7672 5.32107 68.4007 5.73921C67.9675 6.21709 67.7676 6.81444 67.801 7.44165V9.92064C67.7676 10.0998 67.8343 10.3089 68.0009 10.4284C68.1674 10.5479 68.4007 10.6076 68.6339 10.5777H68.8338V11.1153H65.502V10.5777H65.7019C65.9018 10.5777 66.135 10.5479 66.3016 10.4284C66.4349 10.3388 66.5015 10.2193 66.5015 10.07V5.70935C66.5349 5.47041 66.4349 5.23147 66.235 5.05227C66.0351 4.90293 65.7685 4.81333 65.502 4.8432H65.1355V4.39519Z" fill="#32448C"/>
<path d="M83.5268 1.91621L84.1931 0.87085H84.7262L85.0261 5.08214H84.5263C84.1265 3.88745 83.66 2.99143 83.1269 2.45382C82.5605 1.8266 81.6942 1.43833 80.7613 1.40846C80.095 1.40846 79.4286 1.58766 78.8955 1.94607C78.3291 2.33435 77.896 2.87196 77.6627 3.49917C77.3296 4.33546 77.1963 5.26134 77.2296 6.15736C77.1963 7.02351 77.3296 7.91953 77.6627 8.75582C77.896 9.35316 78.2958 9.89077 78.8622 10.279C79.3953 10.6076 79.995 10.7868 80.6614 10.7569C81.461 10.8167 82.2273 10.5479 82.8271 10.07C83.3268 9.5921 83.6267 8.93502 83.5934 8.27794V7.29232C83.5934 7.14298 83.5267 7.02351 83.3935 6.93391C83.1936 6.84431 82.9603 6.78458 82.7271 6.81444H81.7276V6.3067H86.2589V6.81444H85.9257C85.6924 6.78458 85.4925 6.84431 85.2926 6.96378C85.1593 7.05338 85.0927 7.20272 85.0927 7.38192V11.3841H84.5596C84.3597 10.7569 84.1598 10.1596 83.9599 9.5921C83.6267 10.1297 83.1269 10.5777 82.5272 10.9063C81.9608 11.2049 81.3277 11.3543 80.6614 11.3543C79.6951 11.3543 78.7289 11.1153 77.896 10.6673C75.2638 9.17396 74.3975 6.09763 75.8969 3.64851C76.3633 2.84209 77.063 2.15514 77.9293 1.67727C78.6956 1.19939 79.5952 0.960452 80.5281 0.930584C81.0279 0.930584 81.4943 0.990319 81.9608 1.16952C82.5272 1.28899 83.0603 1.5578 83.5268 1.91621Z" fill="#32448C"/>
<path d="M94.1888 10.5477L94.3221 10.7568C94.3221 11.1451 93.8223 11.0853 93.3559 11.0853C92.9894 11.0853 92.2897 11.0555 92.0231 10.9061C91.7566 10.7568 91.69 10.5477 91.4901 10.0997C91.1236 10.488 90.6571 10.8165 90.1573 11.0555C89.7242 11.2347 89.2577 11.2944 88.7913 11.2944C88.1582 11.3243 87.5585 11.1749 87.0587 10.8464C86.6589 10.5776 86.459 10.1595 86.459 9.71145C86.459 9.0245 86.9254 8.42715 87.825 7.97914C88.9579 7.4714 90.1906 7.14286 91.4567 7.05325V6.03776C91.4567 5.67936 91.2901 5.35082 90.957 5.11188C90.6238 4.84307 90.1906 4.7236 89.7242 4.7236C89.3244 4.7236 88.8912 4.8132 88.5247 4.99241C88.2915 5.11188 88.1582 5.26121 88.1582 5.38068C88.1915 5.50015 88.2582 5.61962 88.3581 5.70922C88.4914 5.85856 88.558 6.03776 88.5914 6.21697C88.5914 6.42604 88.5247 6.60524 88.3581 6.75458C88.1915 6.90392 87.9916 6.96365 87.7584 6.96365C87.4919 6.96365 87.2586 6.87405 87.092 6.72471C86.9254 6.54551 86.8255 6.33644 86.8255 6.0975C86.8255 5.61962 87.1253 5.20148 87.7251 4.8132C88.4248 4.39506 89.2244 4.18599 90.0574 4.21586C90.7904 4.18599 91.4901 4.36519 92.0898 4.7236C92.5229 5.02228 92.7895 5.50015 92.7895 5.97803V9.59198C92.7895 9.80105 92.8228 10.04 92.9561 10.2192C93.056 10.3387 93.1893 10.4581 93.3892 10.488C93.6224 10.5179 93.9223 10.5477 94.1888 10.5477ZM91.4234 7.53113C90.0907 7.71033 89.1244 7.97914 88.558 8.33755C88.1249 8.63622 87.8917 9.08423 87.925 9.56211C87.8917 9.89065 88.0249 10.1893 88.2582 10.4283C88.4914 10.6373 88.7913 10.7269 89.0911 10.7269C89.7242 10.7269 90.2906 10.488 90.7237 10.0997C91.1902 9.68158 91.4234 9.08423 91.4234 8.48689V7.53113Z" fill="#32448C"/>
<path d="M93.9221 4.39507L96.0544 4.2756C96.1544 4.75347 96.2544 5.23135 96.2877 5.67936C96.5875 5.23135 97.0207 4.87294 97.4871 4.57427C97.887 4.3652 98.3534 4.24573 98.8199 4.24573C99.2863 4.21586 99.7195 4.3652 100.086 4.60414C100.486 4.93268 100.752 5.32095 100.852 5.79883C101.152 5.35082 101.552 4.93268 102.018 4.63401C102.452 4.39507 102.951 4.24573 103.451 4.24573C104.018 4.21586 104.584 4.39507 104.984 4.78334C105.45 5.32095 105.683 5.94817 105.65 6.63511V9.95039C105.617 10.0997 105.683 10.2491 105.817 10.3685C106.017 10.488 106.25 10.5477 106.483 10.5179H106.816V11.0555H103.085V10.5179H103.451C103.684 10.5477 103.918 10.488 104.117 10.3685C104.251 10.2491 104.317 10.0997 104.317 9.95039V6.63511C104.351 6.21697 104.217 5.79883 103.918 5.47029C103.651 5.20148 103.251 5.05215 102.851 5.05215C102.518 5.05215 102.218 5.14175 101.952 5.29109C101.685 5.47029 101.452 5.70923 101.319 5.97803C101.119 6.30657 101.019 6.66498 100.986 7.05326V9.92052C100.986 10.0699 101.019 10.2491 101.152 10.3685C101.319 10.4581 101.485 10.5179 101.685 10.5179H102.185V11.0555H98.3867V10.5179H98.8199C99.0198 10.5179 99.253 10.488 99.4196 10.3685C99.5529 10.2789 99.6195 10.1595 99.6195 10.0101V6.96366C99.6528 6.45591 99.5196 5.97803 99.2197 5.53002C98.9865 5.23135 98.5866 5.08201 98.1868 5.08201C97.687 5.05215 97.2206 5.26122 96.8874 5.58976C96.4543 6.06764 96.221 6.66498 96.2544 7.2922V9.95039C96.221 10.0997 96.2877 10.2491 96.421 10.3685C96.6209 10.488 96.8541 10.5477 97.0873 10.5179H97.4871V11.0555H93.7222V10.5179H94.2886C94.4552 10.5179 94.6551 10.488 94.7884 10.3685C94.8883 10.2789 94.9549 10.1296 94.9549 10.0101V5.64949C94.9883 5.44042 94.8883 5.26122 94.755 5.11188C94.5218 4.96255 94.2219 4.87294 93.9221 4.87294V4.39507Z" fill="#32448C"/>
<path d="M107.016 4.39543L109.681 4.30582V10.0403C109.681 10.1598 109.715 10.2793 109.815 10.3689C109.948 10.4585 110.115 10.5182 110.281 10.5182H111.114V11.0558H106.55V10.5182H107.649C107.849 10.5481 108.016 10.4884 108.149 10.3689C108.282 10.2494 108.315 10.1001 108.315 9.92088V5.73946C108.349 5.53039 108.249 5.29145 108.049 5.14211C107.849 4.99277 107.549 4.93304 107.283 4.93304H106.983L107.016 4.39543ZM108.782 1.22949C109.015 1.22949 109.248 1.31909 109.415 1.46843C109.582 1.61777 109.681 1.82684 109.681 2.03591C109.681 2.24498 109.582 2.45405 109.415 2.60339C109.048 2.90206 108.515 2.90206 108.149 2.60339C107.816 2.27485 107.816 1.79697 108.149 1.46843C108.349 1.31909 108.549 1.22949 108.782 1.22949Z" fill="#32448C"/>
<path d="M110.881 4.39519L113.347 4.24585C113.447 4.72373 113.547 5.23147 113.58 5.70935C113.88 5.26134 114.28 4.90293 114.746 4.63412C115.213 4.39519 115.746 4.27572 116.279 4.27572C116.712 4.27572 117.145 4.36532 117.512 4.54452C117.878 4.75359 118.145 5.0224 118.311 5.38081C118.511 5.76908 118.611 6.21709 118.611 6.63523V9.89077C118.578 10.07 118.644 10.279 118.778 10.3985C118.944 10.518 119.177 10.5777 119.377 10.5479H119.611V11.0855H116.312V10.5479H116.379C116.645 10.5777 116.878 10.518 117.112 10.3985C117.245 10.279 117.345 10.1297 117.312 9.95051V7.08324C117.345 6.60537 117.212 6.12749 116.978 5.70935C116.679 5.29121 116.179 5.05227 115.612 5.08213C115.013 5.08213 114.48 5.32107 114.113 5.73921C113.68 6.21709 113.48 6.81444 113.513 7.44165V9.92064C113.48 10.0998 113.547 10.3089 113.713 10.4284C113.88 10.5479 114.113 10.6076 114.313 10.5777H114.513V11.1153H110.881V10.5777H111.381C111.581 10.5777 111.814 10.5479 111.981 10.4284C112.114 10.3388 112.181 10.2193 112.181 10.07V5.70935C112.214 5.47041 112.114 5.23147 111.914 5.05227C111.714 4.90293 111.448 4.81333 111.181 4.8432H110.781L110.881 4.39519Z" fill="#32448C"/>
<path d="M125.308 4.75367C125.841 4.2758 127.307 3.55898 127.807 3.55898C128.074 3.52911 128.34 3.58885 128.573 3.73818C128.74 3.88752 128.44 4.24593 128.44 4.455C128.44 4.60434 128.373 4.78354 128.273 4.90301C128.173 5.02248 128.007 5.08221 127.874 5.08221C127.574 5.08221 127.374 4.90301 127.274 4.57447C127.241 4.42513 127.174 4.3654 127.074 4.3654C126.608 4.51473 126.141 4.75367 125.775 5.05235C125.974 5.26142 126.141 5.53022 126.241 5.79903C126.341 6.0081 126.374 6.24704 126.374 6.45611C126.374 6.84439 126.274 7.23266 126.041 7.5612C125.775 7.91961 125.375 8.21828 124.942 8.39749C124.475 8.63643 123.975 8.7559 123.442 8.7559H122.576C122.143 8.72603 121.743 8.78576 121.343 8.9351C121.143 9.05457 121.043 9.23377 121.043 9.44284C121.043 9.62205 121.143 9.77138 121.277 9.86099C121.576 9.98046 121.876 10.0402 122.209 10.0103L124.175 9.98045C125.175 9.98045 125.875 10.1298 126.308 10.4285C126.741 10.6973 127.007 11.1751 126.974 11.653C126.974 12.2205 126.707 12.7282 126.241 13.0867C125.541 13.6243 124.508 13.9229 123.142 13.9229C122.01 13.9229 121.143 13.7437 120.61 13.3555C120.21 13.1464 119.977 12.7581 119.944 12.3698C119.944 12.0712 120.11 11.8024 120.344 11.5933C120.743 11.3245 121.243 11.1453 121.743 11.0855C121.31 10.9959 120.91 10.8466 120.544 10.5778C120.277 10.3687 120.144 10.0701 120.144 9.74152C120.144 9.44284 120.277 9.17404 120.477 8.9351C120.777 8.66629 121.177 8.45722 121.576 8.33775C121.177 8.15855 120.81 7.85988 120.577 7.53133C120.344 7.20279 120.244 6.81452 120.244 6.45611C120.244 5.8289 120.544 5.23155 121.077 4.84328C121.71 4.39527 122.476 4.15633 123.276 4.18619C123.642 4.18619 124.009 4.24593 124.342 4.33553C124.675 4.42513 125.008 4.57447 125.308 4.75367ZM123.675 11.0855C122.709 11.0855 122.01 11.205 121.576 11.444C121.21 11.6232 120.977 11.9517 120.943 12.3101C120.943 12.6088 121.11 12.9075 121.41 13.0568C121.943 13.3256 122.576 13.4749 123.176 13.4152C123.875 13.4451 124.608 13.3256 125.241 12.9971C125.708 12.7282 125.941 12.4296 125.941 12.101C125.941 11.892 125.875 11.7128 125.741 11.5634C125.575 11.3842 125.341 11.2349 125.075 11.1751C124.608 11.1154 124.142 11.0557 123.675 11.0855ZM123.209 4.6342C122.776 4.6342 122.343 4.78354 122.043 5.11208C121.71 5.47049 121.543 5.94837 121.576 6.42624C121.543 6.93399 121.71 7.41187 122.043 7.83001C122.576 8.39749 123.576 8.48709 124.209 7.97934C124.275 7.91961 124.342 7.88974 124.375 7.83001C124.708 7.44173 124.875 6.93399 124.842 6.45611C124.875 5.97823 124.708 5.50036 124.375 5.14195C124.109 4.81341 123.675 4.6342 123.209 4.6342Z" fill="#32448C"/>
<path d="M128.073 3.6189C128.307 3.6189 128.54 3.7085 128.706 3.85784C128.873 4.00717 128.973 4.21624 128.973 4.42531C128.973 4.63439 128.873 4.84346 128.706 4.99279C128.34 5.29147 127.807 5.29147 127.44 4.99279C127.107 4.66425 127.107 4.18638 127.44 3.85784C127.64 3.67863 127.84 3.6189 128.073 3.6189Z" fill="#32448C"/>
<path d="M9.06098 11.1453H8.89439V10.9063H8.96103C9.02767 10.9063 9.06098 10.9063 9.12762 10.9063C9.16094 10.9362 9.19426 10.9661 9.19426 10.9959C9.22758 11.0855 9.16094 11.1154 9.06098 11.1453C9.06098 11.1154 9.06098 11.1154 9.06098 11.1453ZM9.36085 11.0258C9.36085 10.9661 9.32753 10.8765 9.26089 10.8466C9.19426 10.7869 9.0943 10.7869 8.99435 10.7869H8.7278V11.5634H8.89439V11.2648H9.02767L9.19426 11.5634H9.36085L9.16094 11.2648C9.32753 11.205 9.39417 11.1154 9.36085 11.0258ZM9.06098 11.7725C8.69448 11.7725 8.39462 11.5037 8.39462 11.1751C8.39462 10.8466 8.69448 10.5778 9.06098 10.5778C9.42748 10.5778 9.72735 10.8466 9.72735 11.1751C9.72735 11.5037 9.42748 11.7725 9.06098 11.7725ZM9.06098 10.4285C8.59453 10.4285 8.22803 10.757 8.22803 11.1751C8.22803 11.5933 8.59453 11.9218 9.06098 11.9218C9.52744 11.9218 9.89394 11.5933 9.89394 11.1751C9.89394 10.757 9.49412 10.4285 9.06098 10.4285Z" fill="#32448C"/>
<path d="M0.298096 0.751342C4.26297 -1.16016 9.39397 0.840944 9.76047 5.67945C2.43046 6.18719 1.53087 3.23033 0.298096 0.751342Z" fill="#32448C"/>
<path d="M0.298096 11.0855C4.26297 12.997 9.36065 10.9661 9.76047 6.15742C2.43046 5.61981 1.53087 8.60654 0.298096 11.0855Z" fill="#32448C"/>
<path d="M8.39443 2.24502C6.49529 0.0348392 3.03019 -0.622241 0.298096 0.751654C1.3976 2.96183 2.23055 5.59016 7.66143 5.73949C8.32779 4.69414 8.59434 3.46958 8.39443 2.24502ZM1.63083 8.63662C1.79742 8.63662 1.93069 8.66649 2.09728 8.66649C4.22965 8.66649 6.19542 7.71073 7.39488 6.12777C4.12969 6.2771 2.59705 7.32246 1.63083 8.63662Z" fill="#32448C"/>
</g>
<defs>
<clipPath id="clip0">
<rect width="128.675" height="13.8883" fill="white" transform="translate(0.298096 0.034668)"/>
</clipPath>
</defs>
</svg>
