<svg width="77" height="17" viewBox="0 0 77 17" fill="none" xmlns="http://www.w3.org/2000/svg">
<path d="M9.46414 0.045166C4.25071 0.045166 0.0245361 3.83361 0.0245361 8.52259C0.0245361 9.36102 0.163099 10.1839 0.440225 10.9758C0.613429 10.7584 0.786632 10.541 0.942516 10.3237C1.60069 9.45418 2.24154 8.5847 2.8824 7.69969L3.35005 7.03205C3.50593 6.81468 3.66181 6.58179 3.80038 6.36442C4.11214 5.91415 4.40659 5.46389 4.68371 5.01362C4.82228 4.78072 4.96084 4.56335 5.11672 4.33046C5.27261 4.09756 5.39385 3.88019 5.53241 3.6473C5.67098 3.4144 5.80954 3.1815 5.93078 2.96413L6.31183 2.26544L6.34647 2.21886C6.55431 1.84623 7.05661 1.69097 7.48961 1.86176C7.80138 2.01702 7.99191 2.31202 7.97459 2.63808C7.97459 3.04177 7.88798 3.46098 7.85334 3.86467C7.8187 4.26835 7.80138 4.68757 7.76674 5.10678C7.7321 5.92968 7.71478 6.76811 7.71478 7.59101C7.71478 8.41391 7.76674 9.23681 7.85334 10.0287C7.9053 10.4168 7.97459 10.805 8.06119 11.1931C8.13047 11.5347 8.25171 11.8763 8.42491 12.1868C8.47688 12.28 8.54616 12.3731 8.63276 12.4508C8.68472 12.4818 8.65008 12.4663 8.68472 12.4663C8.71936 12.4663 8.70204 12.4663 8.71936 12.4663L8.754 12.4508H8.77132L8.82328 12.4352C8.8406 12.4197 8.87524 12.4042 8.89256 12.3887C9.03113 12.2955 9.15237 12.1868 9.27361 12.0626C9.55074 11.7676 9.81054 11.4726 10.0357 11.1466C10.2782 10.8205 10.5034 10.4634 10.7285 10.1063C11.1789 9.39207 11.5945 8.66233 11.9929 7.91706C12.1834 7.54443 12.3913 7.17179 12.5818 6.79916C12.7723 6.42652 12.9629 6.03836 13.1361 5.66573C13.3093 5.27757 13.8115 5.09125 14.2446 5.24652C14.5217 5.33968 14.7122 5.55704 14.7642 5.82099C14.7642 5.91415 14.7815 6.03836 14.7988 6.16258L14.8335 6.51968C14.8681 6.75258 14.9027 6.98548 14.9547 7.21837C15.0413 7.68416 15.1452 8.14996 15.2838 8.60022C15.4223 9.05049 15.5955 9.50076 15.8034 9.9355C16.0112 10.3702 16.271 10.7739 16.6001 11.1466C16.6694 11.2397 16.6521 11.3639 16.5655 11.426C16.4789 11.4881 16.3576 11.4881 16.2884 11.426C15.8554 11.0845 15.4743 10.6963 15.1452 10.2771C14.8161 9.85786 14.539 9.4076 14.2792 8.95733C14.106 8.6468 13.9674 8.33627 13.8115 8.02575C13.7076 8.21206 13.621 8.39838 13.5171 8.56917C13.1014 9.32997 12.6857 10.0908 12.2008 10.8516C11.9756 11.2242 11.7331 11.5968 11.456 11.9695C11.1789 12.3576 10.8671 12.7303 10.538 13.0718C10.3475 13.2737 10.1223 13.4445 9.89715 13.6153C9.82786 13.6618 9.75858 13.7084 9.67198 13.7395L9.5161 13.8171L9.4295 13.8482H9.41218L9.36021 13.8637H9.32557L9.25629 13.8792C9.20433 13.8947 9.16969 13.9103 9.11773 13.9103C9.01381 13.9258 8.90988 13.9413 8.80596 13.9568C8.5808 13.9724 8.33831 13.9413 8.13047 13.8792C7.92262 13.8171 7.7321 13.7084 7.5589 13.5842C7.29909 13.3824 7.07393 13.1339 6.91804 12.8545C6.67556 12.4197 6.50235 11.9539 6.39843 11.4726C6.29451 11.0379 6.22523 10.5876 6.17327 10.1529C6.06934 9.28339 6.0347 8.42943 6.01738 7.55995C6.01738 7.15627 6.01738 6.73705 6.01738 6.33337C5.84418 6.62837 5.67098 6.92337 5.49777 7.20285C5.35921 7.43574 5.22065 7.66864 5.06476 7.90153L4.63175 8.60022C4.04286 9.53181 3.43665 10.4479 2.79579 11.3639C2.39743 11.9539 1.98174 12.5439 1.56605 13.1184C4.42391 17.0311 10.2782 18.1179 14.6429 15.5561C19.0077 12.9942 20.2201 7.74627 17.3622 3.83361C15.6129 1.48912 12.6511 0.045166 9.46414 0.045166Z" fill="#32448C"/>
<path d="M27.0792 11.5658V5.94523H26.9233L24.9141 11.5658H24.4118L22.4027 5.94523H22.2468V11.5658H21.4154V5.35522H22.8876L24.6716 10.2926L26.421 5.35522H27.9106V11.5813H27.0792V11.5658Z" fill="#32448C"/>
<path d="M29.1228 6.1626V5.35522H30.0235V6.1626H29.1228ZM29.1401 11.5658V6.76813H30.0235V11.5658H29.1401Z" fill="#32448C"/>
<path d="M35.3754 9.99746C35.3754 10.929 34.9771 11.6433 33.245 11.6433C31.0626 11.6433 30.9414 10.5254 30.9414 9.15903C30.9414 7.79271 31.0626 6.6748 33.245 6.6748C34.9771 6.6748 35.3754 7.38902 35.3754 8.32061H34.544C34.544 7.55981 34.2496 7.18718 33.245 7.18718C31.894 7.18718 31.8247 7.83929 31.8247 9.14351C31.8247 10.4477 31.894 11.0998 33.245 11.0998C34.2496 11.0998 34.544 10.7272 34.544 9.96641L35.3754 9.99746Z" fill="#32448C"/>
<path d="M37.0899 7.28053C37.5056 7.04764 38.0426 6.73711 38.5449 6.72158C38.6488 6.70605 38.7527 6.70605 38.8566 6.70605C38.9952 6.70605 39.1164 6.70605 39.2723 6.72158L39.203 7.29606C39.0645 7.28053 38.9432 7.28053 38.822 7.28053C38.7181 7.28053 38.6141 7.28053 38.4929 7.29606C38.0252 7.31158 37.5229 7.62211 37.1592 7.80843V11.5813H36.2759V6.76816H36.9687L37.0899 7.28053Z" fill="#32448C"/>
<path d="M44.2257 9.17465C44.2257 10.541 44.1044 11.6589 41.8874 11.6589C39.6704 11.6589 39.5492 10.541 39.5492 9.17465C39.5492 7.80833 39.6704 6.69043 41.8874 6.69043C44.1044 6.69043 44.2257 7.80833 44.2257 9.17465ZM40.4325 9.17465C40.4325 10.4789 40.5018 11.131 41.8874 11.131C43.2731 11.131 43.3423 10.4944 43.3423 9.17465C43.3423 7.85491 43.2731 7.21833 41.8874 7.21833C40.5018 7.21833 40.4325 7.85491 40.4325 9.17465Z" fill="#32448C"/>
<path d="M45.8369 12.6836C46.166 12.7147 46.599 12.7302 47.0839 12.7302C48.4349 12.7302 48.6081 12.4042 48.6255 11.131C48.2271 11.3328 47.6728 11.5657 47.1013 11.5813C45.1441 11.6123 45.0228 10.6652 45.0228 9.17466C45.0228 7.68412 45.1267 6.69043 47.0147 6.69043C47.6555 6.69043 48.2444 6.95438 48.7121 7.21833L48.7987 6.78359H49.4915V11.0378C49.4915 12.7613 49.0585 13.2892 47.2918 13.2892C46.7722 13.2892 46.2526 13.2426 45.7503 13.1805L45.8369 12.6836ZM48.6255 7.65307C48.2444 7.4357 47.7594 7.21833 47.2918 7.21833C45.9928 7.21833 45.9062 7.87044 45.9062 9.17466C45.9062 10.4478 45.9928 11.0534 47.2918 11.0534C47.7594 11.0534 48.2617 10.8205 48.6255 10.6497V7.65307Z" fill="#32448C"/>
<path d="M54.2896 11.5657L54.203 11.131C53.77 11.3794 53.1984 11.6589 52.5749 11.6589C50.6177 11.6899 50.4965 10.6962 50.4965 9.17466C50.4965 7.65307 50.6004 6.69043 52.5403 6.69043C53.1811 6.69043 53.7527 6.95438 54.1857 7.18728L54.2723 6.76806H54.9651V11.5657H54.2896ZM54.1164 7.62201C53.7527 7.4357 53.2504 7.21833 52.7828 7.21833C51.4837 7.21833 51.3971 7.87044 51.3971 9.17466C51.3971 10.4789 51.4837 11.131 52.7828 11.131C53.2504 11.131 53.7354 10.8981 54.1164 10.6962V7.62201Z" fill="#32448C"/>
<path d="M56.8352 7.18729C57.2336 6.96992 57.7705 6.70597 58.3421 6.69044C59.2427 6.65939 59.7104 6.87676 59.9355 7.21834C60.3512 6.98544 60.9055 6.70597 61.5117 6.69044C63.3476 6.64386 63.4516 7.48229 63.4516 8.64677V11.5657H62.5682V8.69335C62.5682 7.69966 62.4989 7.21834 61.3038 7.21834C60.8708 7.21834 60.4205 7.45124 60.0568 7.65308C60.1434 7.99466 60.178 8.35177 60.1607 8.70888V11.5813H59.3986V8.69335C59.3986 7.69966 59.3293 7.21834 58.1342 7.21834C57.7185 7.21834 57.2682 7.45124 56.9218 7.62203V11.5657H56.0385V6.76807H56.7313L56.8352 7.18729Z" fill="#32448C"/>
<path d="M64.5601 6.1626V5.35522H65.4607V6.1626H64.5601ZM64.5774 11.5658V6.76813H65.4607V11.5658H64.5774Z" fill="#32448C"/>
<path d="M67.3317 7.18742C67.7647 6.97005 68.3362 6.7061 68.9598 6.69057C70.917 6.64399 71.0382 7.48242 71.0382 8.6469V11.5659H70.1549V8.69348C70.1549 7.69979 70.0683 7.21847 68.7692 7.21847C68.3016 7.21847 67.7993 7.45136 67.4356 7.63768V11.5814H66.5522V6.7682H67.2451L67.3317 7.18742Z" fill="#32448C"/>
<path d="M72.7527 12.6836C73.0817 12.7147 73.5148 12.7302 73.9997 12.7302C75.3507 12.7302 75.5239 12.4042 75.5412 11.131C75.1429 11.3328 74.5886 11.5657 74.017 11.5813C72.0598 11.6123 71.9386 10.6652 71.9386 9.17466C71.9386 7.68412 72.0425 6.69043 73.9304 6.69043C74.5713 6.69043 75.1602 6.95438 75.6278 7.21833L75.7144 6.78359H76.4073V11.0378C76.4073 12.7613 75.9742 13.2892 74.2076 13.2892C73.688 13.2892 73.1683 13.2426 72.6661 13.1805L72.7527 12.6836ZM75.5239 7.65307C75.1429 7.4357 74.6579 7.21833 74.1902 7.21833C72.8912 7.21833 72.8046 7.87044 72.8046 9.17466C72.8046 10.4478 72.8912 11.0534 74.1902 11.0534C74.6579 11.0534 75.1602 10.8205 75.5239 10.6497V7.65307Z" fill="#32448C"/>
</svg>
