<svg width="91" height="44" viewBox="0 0 91 44" fill="none" xmlns="http://www.w3.org/2000/svg">
<path fill-rule="evenodd" clip-rule="evenodd" d="M90.6622 13.6112C90.6349 21.0611 84.0301 26.9546 75.894 27.0193C67.5857 27.0843 60.8994 21.1422 60.7454 13.9598C60.5913 6.63963 67.0874 0.340846 75.4772 0.276053C83.9214 0.203026 90.6622 6.17758 90.6622 13.6112ZM76.1657 18.0942C76.1657 19.7884 76.1567 21.4827 76.1749 23.1769C76.184 23.9795 76.7095 24.2794 77.4614 23.8903C80.2128 22.4894 82.9581 21.0788 85.6971 19.6586C86.4673 19.2615 86.8568 18.6616 86.8568 17.8266C86.8387 14.9083 86.8478 11.9818 86.8478 9.06355C86.8478 7.9205 86.3676 7.64486 85.2261 8.14741C82.5986 9.30666 79.9802 10.474 77.3528 11.6252C76.5373 11.9818 76.1567 12.5169 76.1657 13.3276C76.184 14.9164 76.1657 16.5053 76.1657 18.0942ZM75.2145 18.1671C75.2145 16.5377 75.1874 14.9083 75.2236 13.2789C75.2417 12.4683 74.852 11.9737 74.0729 11.6333C71.3729 10.4578 68.6911 9.26616 66.0003 8.08262C64.9673 7.62867 64.5325 7.86367 64.5325 8.8851C64.5235 11.6818 64.5506 14.4705 64.5144 17.2672C64.4963 18.5157 65.067 19.3831 66.2993 19.9911C68.818 21.2394 71.3005 22.5527 73.8011 23.8336C74.6891 24.2875 75.2055 24.0362 75.2145 23.1283C75.2236 21.4746 75.2145 19.8209 75.2145 18.1671ZM75.7672 11.1469C76.0933 11.0415 76.4376 10.9604 76.7547 10.8225C79.5454 9.62342 82.33 8.41287 85.1083 7.19091C85.3347 7.09359 85.4978 6.86668 85.6881 6.70456C85.4888 6.57484 85.3076 6.39639 85.0902 6.3073C82.5532 5.3832 80.0074 4.48325 77.4704 3.54295C76.3107 3.11329 75.1874 3.1052 74.0367 3.53485C71.545 4.44276 69.0445 5.33447 66.5529 6.25871C66.3084 6.3478 66.1453 6.59914 65.9368 6.77745C66.1272 6.93957 66.2901 7.15042 66.5258 7.2557C69.2801 8.47178 72.0434 9.67152 74.8068 10.8632C75.1058 10.9848 75.4319 11.0496 75.7672 11.1469Z" fill="#32448C"/>
<path fill-rule="evenodd" clip-rule="evenodd" d="M41.519 18.6539C42.5246 17.8027 43.4398 17.0164 44.3548 16.2381C49.655 11.731 54.9463 7.21559 60.2555 2.72465C60.7267 2.32739 61.2431 1.90583 61.8319 1.69512C62.6473 1.39505 63.6078 1.80851 64.0246 2.47331C64.4594 3.15417 64.3144 4.02968 63.6349 4.62145C62.0223 6.01585 60.3915 7.4101 58.7697 8.79639L48.9302 17.2352C46.4025 19.3997 43.8836 21.5804 41.3287 23.7204C40.93 24.0528 40.4226 24.4014 39.9153 24.4905C38.5291 24.7338 37.5959 24.0204 37.6049 22.7476C37.6321 17.3892 37.6865 12.0309 37.7318 6.67241C37.7409 5.44837 37.759 4.21623 37.7952 2.99206C37.8225 2.31119 38.2482 1.83281 38.9458 1.6059C39.6255 1.38695 40.305 1.43568 40.8847 1.85724C41.4466 2.26246 41.5823 2.82184 41.5823 3.44601C41.5371 8.35864 41.5099 13.2792 41.4737 18.1919C41.4737 18.3053 41.5009 18.4188 41.519 18.6539ZM7.07206 18.6782C9.86261 16.2949 12.5625 13.9926 15.2625 11.6822C18.8957 8.58555 22.5288 5.49696 26.1529 2.39218C26.7598 1.87344 27.4212 1.48428 28.3002 1.64639C29.0159 1.77611 29.5504 2.14098 29.7679 2.79754C29.9944 3.51094 29.7951 4.13511 29.1971 4.64589C27.8652 5.7888 26.5334 6.92375 25.1925 8.0668C22.1029 10.7176 19.0043 13.3685 15.9149 16.0193C12.8434 18.6539 9.76289 21.2803 6.69143 23.923C5.98477 24.5311 5.1784 24.7095 4.2815 24.3933C3.36636 24.069 3.1218 23.3557 3.13086 22.5288C3.18517 16.4489 3.23043 10.3771 3.28489 4.29722C3.28489 3.85137 3.31204 3.40551 3.3573 2.96776C3.46608 2.06795 4.15463 1.51667 5.15124 1.50048C6.22948 1.47618 6.97234 1.97063 7.08111 2.88677C7.16258 3.55143 7.09016 4.23243 7.09016 4.91329C7.08111 8.61808 7.07206 12.3308 7.07206 16.0355V18.6782Z" fill="#32448C"/>
<path fill-rule="evenodd" clip-rule="evenodd" d="M72.1972 39.2446V32.0136C72.1972 31.1057 72.1972 30.1897 72.2062 29.2818C72.2153 28.4629 72.7045 27.9766 73.5019 27.9847C74.2811 27.9928 74.7613 28.4953 74.7613 29.306C74.7341 33.5458 74.6889 37.7773 74.6616 42.017C74.6616 42.6169 74.5166 43.1115 73.819 43.3384C73.1395 43.5573 72.6321 43.3141 72.17 42.8925C68.3195 39.3662 64.4688 35.8317 60.6183 32.3054C60.5005 32.2001 60.3828 32.1028 60.1381 31.9083C60.1109 32.2325 60.0838 32.4432 60.0838 32.6541L59.975 41.9927C59.9659 42.8277 59.5129 43.306 58.7429 43.3141C57.9093 43.3222 57.4291 42.8439 57.4382 41.9684C57.4744 37.672 57.5106 33.3675 57.5922 29.0709C57.6013 28.7224 57.9093 28.2765 58.2265 28.0495C58.6884 27.7252 59.2774 27.8388 59.7304 28.1711C60.0928 28.4386 60.4099 28.7548 60.7361 29.0628L71.5902 39.0176C71.6989 39.1231 71.8258 39.2041 71.9436 39.3014C72.0341 39.2771 72.1157 39.2609 72.1972 39.2446ZM43.0414 33.8457C45.0437 32.0542 46.9645 30.3275 48.8944 28.6008C49.0575 28.4548 49.2296 28.3008 49.4108 28.163C49.891 27.7983 50.4165 27.7171 50.9964 27.9442C51.5581 28.163 51.703 28.6008 51.703 29.0953C51.7121 29.9464 51.7121 30.7895 51.703 31.6407C51.6668 35.0698 51.6214 38.5069 51.5762 41.936C51.5671 42.8358 51.0598 43.2817 50.1629 43.2168C49.4108 43.1601 49.0303 42.7304 49.0303 41.9441C49.0394 38.8312 49.0575 35.7101 49.0665 32.5972V31.811C48.7313 32.0947 48.523 32.273 48.3145 32.4513C46.9283 33.6917 45.5603 34.9562 44.1559 36.1804C43.4311 36.8127 42.6338 36.7803 41.9179 36.1317C40.5331 34.8845 39.1619 33.6252 37.8046 32.3541C37.5962 32.1595 37.4694 31.9002 37.3063 31.665L36.9529 31.8353V33.643L36.9258 41.7171C36.9258 42.2764 36.7899 42.7871 36.1466 43.0303C35.2316 43.3708 34.3618 42.8439 34.3526 41.9117C34.3436 40.4687 34.3799 39.0338 34.389 37.5909C34.4071 34.8347 34.4071 32.0785 34.4161 29.3222C34.4161 29.1925 34.4161 29.0709 34.4252 28.9412C34.4705 28.39 34.7061 27.9604 35.3221 27.7576C35.9111 27.5712 36.4003 27.7333 36.808 28.1144C38.2848 29.4601 39.7435 30.8138 41.2113 32.1676C41.8002 32.727 42.3981 33.262 43.0414 33.8457ZM30.0672 38.4259C27.8294 38.4259 25.6549 38.4745 23.4804 38.4016C22.5201 38.3692 21.8497 38.6123 21.1973 39.2284C19.9832 40.3552 18.6875 41.4171 17.4102 42.4872C17.1745 42.6818 16.8845 42.8682 16.5766 42.9412C15.9605 43.0872 15.3806 42.9817 15.0453 42.4224C14.7282 41.8873 14.8642 41.3928 15.3353 40.9794C16.3319 40.112 17.3466 39.2446 18.3523 38.3854C22.2483 35.0455 26.1442 31.7136 30.04 28.3738C30.2128 28.2274 30.3943 28.0894 30.5837 27.9604C31.0366 27.6443 31.5259 27.6117 32.0515 27.8226C32.5769 28.0333 32.7491 28.4467 32.7491 28.9088C32.7129 33.2052 32.6765 37.5099 32.6222 41.8063C32.6132 42.6656 32.1692 43.0872 31.3356 43.0789C30.493 43.0789 30.0581 42.6494 30.0491 41.7982C30.0672 40.7282 30.0672 39.6499 30.0672 38.4259ZM30.0764 36.2128V31.665C28.2824 33.2052 26.6062 34.6563 24.8032 36.2128H30.0764ZM90.5714 38.2395C90.5714 38.9772 90.6347 39.7229 90.5442 40.4606C90.4989 40.8497 90.2814 41.3036 89.9643 41.555C87.2734 43.687 84.1658 44.1977 80.8497 43.0789C77.5609 41.9684 75.7126 39.7229 75.3139 36.5856C74.7794 32.3703 78.0773 28.5522 82.8701 28.0009C85.5611 27.6928 87.9801 28.3413 90.0097 30.0113C90.7797 30.6436 90.8885 31.3003 90.3176 31.8272C89.7016 32.4027 88.9767 32.3703 88.1976 31.7379C86.4399 30.3113 84.4014 29.8492 82.1544 30.4977C79.8893 31.1544 78.4578 32.5729 77.9504 34.6725C77.4159 36.8775 78.4668 39.0581 80.6505 40.4038C82.5892 41.5955 85.3255 41.6118 87.3549 40.4606C87.817 40.2012 88.0527 39.9175 88.0346 39.3986C87.9982 38.5718 88.0527 37.7449 88.0889 36.9262C88.116 36.1723 88.56 35.7912 89.3755 35.7912C90.1093 35.7912 90.6076 36.2128 90.6438 36.9019C90.6711 37.3478 90.6528 37.7936 90.6528 38.2395H90.5714ZM15.4803 38.1907C15.4803 38.5313 15.435 38.8717 15.4893 39.2041C15.6705 40.266 15.0906 40.9389 14.1937 41.5469C8.98403 45.0975 1.18325 42.2603 0.259045 36.4641C-0.438556 32.0947 2.58765 28.2684 7.4529 27.5226C10.2887 27.0849 12.8528 27.7659 14.991 29.5493C15.6162 30.068 15.7067 30.8219 15.2265 31.3084C14.7101 31.8272 13.8042 31.811 13.1428 31.2678C11.2672 29.7114 9.09281 29.2818 6.71004 30.1004C4.25471 30.9435 2.85031 32.646 2.71438 34.9805C2.50603 38.7015 6.22984 41.2793 9.83582 40.7363C10.1347 40.6875 10.4428 40.647 10.7327 40.5578C12.7531 39.9661 12.9162 39.7553 12.9252 37.8989C12.9252 37.3883 12.9162 36.8775 12.9433 36.3749C12.9888 35.6858 13.4871 35.2481 14.2028 35.2481C14.9277 35.24 15.4712 35.7184 15.5074 36.4154C15.5256 36.7073 15.4803 37.0072 15.4803 37.3071C15.4803 37.5909 15.4893 37.8908 15.4803 38.1907C15.4803 38.1907 15.4893 38.1907 15.4803 38.1907Z" fill="#32448C"/>
<path fill-rule="evenodd" clip-rule="evenodd" d="M35.4498 12.6869C35.4498 15.1432 35.4589 17.5996 35.4498 20.0557C35.4498 21.0529 35.4046 22.0419 35.3865 23.0389C35.3683 23.9955 34.6344 24.6927 33.5925 24.7413C32.5778 24.7899 31.5993 24.0684 31.5902 23.1362C31.5631 20.8665 31.6174 18.6047 31.6355 16.3349C31.6536 14.7865 31.6807 13.2463 31.6898 11.6979C31.717 8.99037 31.7805 6.27475 31.7533 3.5671C31.7352 2.22953 32.7318 1.65396 33.683 1.63776C34.8246 1.61346 35.5857 2.39165 35.5857 3.59139C35.5767 6.17743 35.5405 8.76346 35.5224 11.3413V12.6788C35.4951 12.6869 35.477 12.6869 35.4498 12.6869Z" fill="#32448C"/>
<path fill-rule="evenodd" clip-rule="evenodd" d="M55.9885 35.6211C55.9885 37.7611 55.9976 39.8932 55.9885 42.0332C55.9885 42.8277 55.5083 43.2898 54.7381 43.2979C53.95 43.306 53.4334 42.8116 53.4425 42.0008C53.4789 37.6801 53.5241 33.3675 53.5694 29.0466C53.5784 28.3251 54.0767 27.8631 54.8197 27.8631C55.6171 27.8631 56.1063 28.3089 56.1154 29.0871C56.1244 31.2678 56.1154 33.4485 56.1154 35.6292C56.079 35.6211 56.0338 35.6211 55.9885 35.6211ZM85.5883 11.561C85.4252 11.9986 85.2892 12.5418 85.0083 13.0119C84.8724 13.239 84.4467 13.4659 84.1658 13.4416C83.9029 13.4254 83.5587 13.1255 83.45 12.8741C83.0877 12.0392 83.2053 11.1961 83.7308 10.4503C83.9029 10.199 84.3198 9.92336 84.6007 9.9478C84.8724 9.97209 85.1714 10.3206 85.3436 10.5882C85.5066 10.8395 85.4976 11.1637 85.5883 11.561ZM80.3786 19.5133C80.2155 19.9187 80.0796 20.4862 79.7715 20.9644C79.3639 21.5968 78.5575 21.4914 78.2585 20.8104C77.878 19.9268 78.032 19.0513 78.5846 18.2731C78.7477 18.0462 79.1646 17.8111 79.4272 17.8354C79.69 17.8596 79.989 18.1758 80.134 18.4352C80.2881 18.6947 80.2881 19.0351 80.3786 19.5133ZM83.3051 15.5088C83.1058 16.0438 82.9698 16.6032 82.6889 17.0977C82.5621 17.3247 82.1273 17.5597 81.8554 17.5435C81.6016 17.5273 81.2664 17.2112 81.1487 16.9679C80.8045 16.206 80.8859 15.4116 81.3299 14.7144C81.5202 14.4063 81.9823 14.0253 82.2903 14.0496C82.5892 14.074 82.8792 14.5442 83.0967 14.8603C83.2144 15.0224 83.1691 15.2737 83.1963 15.4764C83.2325 15.4845 83.2689 15.5007 83.3051 15.5088ZM73.5018 20.1295C73.4385 20.397 73.4385 20.697 73.3025 20.9239C73.1485 21.1753 72.8768 21.5319 72.6321 21.5481C72.3331 21.5643 71.88 21.3536 71.717 21.1103C71.1734 20.3241 71.0375 19.4486 71.409 18.5568C71.6898 17.892 72.4781 17.7787 72.8859 18.3947C73.2211 18.9054 73.3751 19.5133 73.6016 20.0727C73.5744 20.097 73.5382 20.1134 73.5018 20.1295ZM71.0375 14.0577C71.2005 13.1012 71.5177 12.5661 72.0614 12.5418C72.5778 12.5094 73.1666 13.0364 73.2844 13.8389C73.3659 14.4063 73.3478 15.0305 73.1757 15.5737C72.9492 16.279 72.161 16.36 71.7443 15.7358C71.409 15.225 71.2641 14.617 71.0375 14.0577ZM68.4735 12.404C68.3557 13.239 68.0295 13.7903 67.5493 13.8389C67.0057 13.8956 66.5165 13.4659 66.3715 12.631C66.2808 12.1121 66.2991 11.5366 66.4439 11.0259C66.6253 10.3937 67.3953 10.2882 67.7759 10.8476C68.1111 11.3178 68.256 11.8852 68.4735 12.404ZM68.4735 17.8111C68.3557 18.2488 68.3195 18.6135 68.1564 18.9298C67.9026 19.4243 67.3047 19.4567 66.897 19.0432C66.3353 18.484 66.1451 17.0734 66.5346 16.4086C66.8608 15.8493 67.5584 15.8168 67.9207 16.4005C68.2016 16.8382 68.3104 17.3652 68.4735 17.8111ZM75.8848 8.11565C75.2053 7.91304 74.562 7.81571 74.0183 7.55627C73.1847 7.14295 73.1666 6.31604 73.9096 5.77286C74.8427 5.0839 76.9176 5.10009 77.8418 5.79715C78.5122 6.29984 78.5213 7.11042 77.7692 7.49958C77.2076 7.79952 76.528 7.92114 75.8848 8.11565Z" fill="#32448C"/>
</svg>
