<svg width="156" height="41" viewBox="0 0 156 41" fill="none" xmlns="http://www.w3.org/2000/svg">
<path d="M56.7803 20.6631C56.7803 25.056 60.4001 28.673 65.0481 28.673C66.8527 28.673 68.9197 27.8971 70.2207 26.3455C70.483 26.3455 70.483 26.0834 70.483 25.8213L68.6784 24.0076C68.4161 23.7455 68.1643 23.7455 68.1643 24.0076C67.3878 24.5213 66.0973 25.0455 65.0691 25.0455C62.488 25.0455 60.6729 22.9801 60.6729 20.3905C60.6729 18.0631 62.488 15.9977 65.0691 15.9977C66.0973 15.9977 67.136 16.2598 68.1643 17.0252C68.1643 17.2873 68.4266 17.2873 68.6784 17.0252L70.2312 15.2219C70.4935 14.9598 70.4935 14.7082 70.2312 14.7082C68.9407 13.1565 67.136 12.6428 65.0586 12.6428C60.4001 12.6533 56.7803 16.2703 56.7803 20.6631ZM77.7121 22.4664C77.7121 25.8213 80.5555 28.6625 83.913 28.6625C87.5328 28.6625 90.3761 25.8213 90.3761 22.4664V13.167C90.3761 12.9049 90.1138 12.9049 89.862 12.9049H87.2705C87.0187 12.9049 86.7564 12.9049 86.7564 13.167V22.2043C86.7564 23.7559 85.7176 25.0455 83.913 25.0455C82.3601 25.0455 81.3319 23.7559 81.3319 22.2043V13.167C81.3319 12.9049 81.0696 12.9049 80.8178 12.9049H78.2367C77.9744 12.9049 77.7226 12.9049 77.7226 13.167L77.7121 22.4664ZM98.9168 27.8867C98.9168 28.1488 99.1791 28.4004 99.4309 28.4004H104.866C107.457 28.4004 109.776 26.5866 109.776 24.0076C109.776 21.9422 107.971 20.9043 106.67 20.3905C107.699 19.8768 109.262 18.5873 109.262 17.0356C109.262 14.4566 107.195 12.9049 104.604 12.9049H99.4309C99.1686 12.9049 98.9168 12.9049 98.9168 13.167V27.8867ZM102.274 19.1115V16.0187H104.089C104.866 16.0187 105.642 16.5324 105.642 17.5703C105.642 18.3462 104.866 19.122 104.089 19.122H102.274V19.1115ZM102.274 25.3181V21.9527H104.089C105.118 21.9527 106.156 22.7285 106.156 23.5043C106.156 24.5422 105.38 25.3181 104.341 25.3181C104.331 25.3181 102.274 25.3181 102.274 25.3181ZM117.53 27.8867C117.53 28.1488 117.792 28.4004 117.792 28.4004H120.636C120.887 28.4004 120.887 28.1383 120.887 27.8867V13.167C120.887 12.9049 120.887 12.9049 120.636 12.9049H117.792C117.792 12.9049 117.53 12.9049 117.53 13.167V27.8867ZM131.736 27.8867C131.736 28.1488 131.999 28.4004 132.261 28.4004H134.842C135.104 28.4004 135.356 28.1383 135.356 27.8867V16.0082H138.462C138.724 16.0082 138.976 15.7461 138.976 15.7461V13.167C138.976 12.9049 138.713 12.9049 138.462 12.9049H128.641C128.379 12.9049 128.127 12.9049 128.127 13.167V15.7461C128.127 15.7461 128.389 16.0082 128.641 16.0082H131.736V27.8867ZM145.187 26.8592C145.701 27.3729 147.254 28.673 150.36 28.673C153.455 28.673 155.532 26.3455 155.532 24.018C155.532 20.9148 152.689 19.6252 151.136 18.8494C149.332 18.0736 148.545 17.5599 148.545 16.784C148.545 16.2703 149.321 15.4945 150.097 15.4945C151.388 15.4945 152.941 16.784 153.203 17.0461C153.465 17.0461 153.717 16.784 153.98 16.784L155.018 14.9808C155.281 14.7187 155.281 14.4671 155.018 14.2049C154.242 13.6912 152.427 12.6533 150.097 12.6533C146.729 12.6533 144.935 14.7187 144.935 17.0461C144.935 19.6252 147.527 21.1769 149.332 21.9527C150.884 22.4664 151.661 23.2422 151.661 24.2801C151.661 25.056 151.147 25.5697 150.108 25.5697C148.555 25.5697 147.002 24.2801 147.002 24.2801C146.74 24.2801 146.488 24.018 146.226 24.2801L145.198 26.3455C144.925 26.5971 144.925 26.5971 145.187 26.8592Z" fill="#524DA3"/>
<path d="M32.9944 37.7111L26.2794 25.8221H21.6209L20.3303 25.0568L18.0011 21.1777V19.6261L20.3303 15.7574L21.6209 14.9816H26.2794L32.9944 2.84106H14.6436L13.3426 3.61689L4.29834 19.6261V21.1777L13.3426 36.9352L14.6436 37.7111H32.9944Z" fill="#F7CE39"/>
<path d="M35.5857 0L41.5347 10.0752L47.4838 20.4125L41.5347 30.4877L35.5857 40.825H23.9499H12.0623L6.37556 30.4877L0.426514 20.402L6.37556 10.0647L12.0623 0H23.9499H35.5857ZM26.2792 14.9817L33.0046 2.84118H23.9604H14.6539L21.6206 14.9817H23.9499H26.2792ZM34.2847 3.617L27.0451 16.2713H22.3971L24.464 19.6262H43.5912L38.9432 11.6163L34.2847 3.617ZM27.0556 24.2811L34.2952 36.9354L38.9537 28.9255L43.6017 21.1778H24.464L22.3971 24.2811H27.0556ZM32.9941 37.7112L26.2687 25.8327H23.9394H21.6206L14.6434 37.7112H23.9499H32.9941ZM4.29812 19.6262H18.0009L19.2914 17.5608L20.3196 15.7576L13.3423 3.617L8.94614 11.6268L4.29812 19.6262ZM18.0009 21.1778H4.29812L8.94614 28.9255L13.3423 36.9354L20.3301 25.0569L18.0009 21.1778ZM21.1065 23.5053L23.1735 20.402L21.1065 17.0471L19.3019 20.402L21.1065 23.5053Z" fill="#524DA3"/>
</svg>
