<svg width="53" height="42" viewBox="0 0 53 42" fill="none" xmlns="http://www.w3.org/2000/svg">
<path d="M9.80831 41.0768V38.3836C9.92975 37.5267 9.2011 36.7922 8.35101 36.6698C8.22957 36.6698 8.22957 36.6698 8.10812 36.6698C7.50091 36.6698 6.89371 36.9146 6.65082 37.4043C6.40794 36.9146 5.80073 36.6698 5.19352 36.6698C4.70775 36.6698 4.22199 36.9146 3.9791 37.2819V36.7922H3.00757V41.0768H3.9791V38.6285C3.85766 38.0164 4.34343 37.5267 4.8292 37.5267H4.95064C5.55785 37.5267 5.92217 37.894 5.92217 38.6285V41.0768H6.89371V38.6285C6.77226 38.0164 7.25803 37.5267 7.7438 37.5267H7.86524C8.47245 37.5267 8.83677 37.894 8.83677 38.6285V41.0768H9.80831ZM23.7741 36.7922H22.1954V35.4456H21.2238V36.7922H20.3737V37.6491H21.2238V39.6078C21.2238 40.5871 21.5882 41.1992 22.6811 41.1992C23.1669 41.1992 23.5312 41.0768 23.8956 40.832L23.6527 39.975C23.4098 40.0974 23.1669 40.2199 22.8026 40.2199C22.3168 40.2199 22.1954 39.975 22.1954 39.4854V37.5267H23.7741V36.7922ZM31.6678 36.6698C31.1821 36.6698 30.8177 36.9146 30.5749 37.2819V36.7922H29.6033V41.0768H30.5749V38.6285C30.5749 37.894 30.8177 37.5267 31.5464 37.5267C31.7893 37.5267 31.9107 37.5267 32.1536 37.6491L32.3965 36.7922C32.1536 36.6698 31.9107 36.6698 31.6678 36.6698ZM19.6451 37.1595C19.1593 36.7922 18.5521 36.6698 17.9449 36.6698C16.8519 36.6698 16.1233 37.1595 16.1233 38.0164C16.1233 38.8733 16.609 39.1181 17.5806 39.2406H18.0663C18.5521 39.363 18.795 39.4854 18.795 39.7302C18.795 39.975 18.4307 40.2199 17.8235 40.2199C17.3377 40.2199 16.8519 40.0975 16.3662 39.7302L15.8804 40.4647C16.3662 40.832 17.0948 41.0768 17.702 41.0768C18.9164 41.0768 19.6451 40.4647 19.6451 39.7302C19.6451 38.9957 19.0379 38.6285 18.1878 38.5061H17.702C17.3377 38.5061 16.9734 38.3836 16.9734 38.0164C16.9734 37.6491 17.2163 37.5267 17.8235 37.5267C18.3092 37.5267 18.795 37.6491 19.1593 37.894L19.6451 37.1595ZM44.6621 36.6698C44.1763 36.6698 43.812 36.9146 43.5691 37.2819V36.7922H42.5976V41.0768H43.5691V38.6285C43.5691 37.894 43.812 37.5267 44.5407 37.5267C44.7835 37.5267 44.905 37.5267 45.1479 37.6491L45.3908 36.7922C45.1479 36.6698 44.905 36.6698 44.6621 36.6698ZM32.6394 38.9957C32.6394 40.2199 33.4895 41.1992 34.7039 41.3216C34.8253 41.3216 34.8253 41.3216 34.9468 41.3216C35.554 41.3216 36.0397 41.1992 36.5255 40.832L36.0397 40.0975C35.6754 40.3423 35.3111 40.4647 34.9468 40.4647C34.2181 40.4647 33.6109 39.8526 33.6109 39.1181C33.6109 38.3836 34.2181 37.7715 34.9468 37.7715C35.3111 37.7715 35.7969 37.8939 36.0397 38.1388L36.5255 37.4043C36.0397 37.0371 35.554 36.9146 34.9468 36.9146C33.7323 36.7922 32.7608 37.7715 32.6394 38.9957C32.6394 38.8733 32.6394 38.8733 32.6394 38.9957ZM41.3832 38.9957V36.7922H40.4116V37.2819C40.0473 36.9146 39.5616 36.6698 39.0758 36.6698C37.8614 36.6698 36.7684 37.6491 36.7684 38.9957C36.7684 40.3423 37.7399 41.3216 39.0758 41.3216C39.5616 41.3216 40.0473 41.0768 40.4116 40.7095V41.1992H41.3832V38.9957ZM37.8614 38.9957C37.8614 38.2612 38.4686 37.7715 39.1972 37.7715C39.9259 37.7715 40.4116 38.3836 40.4116 39.1181C40.4116 39.8526 39.8044 40.3423 39.0758 40.3423C38.4686 40.3423 37.8614 39.8526 37.8614 38.9957ZM26.6887 36.6698C25.4743 36.6698 24.5028 37.7715 24.5028 38.9957C24.5028 40.2199 25.5957 41.1992 26.8102 41.1992C27.4174 41.1992 28.0246 40.9544 28.5103 40.5871L28.0246 39.8526C27.6603 40.0975 27.2959 40.3423 26.8102 40.3423C26.203 40.3423 25.7172 39.8526 25.5957 39.2406H28.7532C28.7532 39.1181 28.7532 38.9957 28.7532 38.8733C28.8747 37.7715 28.0246 36.7922 26.9316 36.6698C26.9316 36.7922 26.8102 36.7922 26.6887 36.6698ZM26.6887 37.5267C27.2959 37.5267 27.7817 38.0164 27.7817 38.6285H25.5957C25.5957 38.0164 26.0815 37.5267 26.6887 37.5267ZM50.0055 38.9957V35.0784H49.034V37.4043C48.6697 37.0371 48.1839 36.7922 47.6982 36.7922C46.4837 36.7922 45.3908 37.7716 45.3908 39.1181C45.3908 40.4647 46.3623 41.444 47.6982 41.444C48.1839 41.444 48.6697 41.1992 49.034 40.832V41.3216H50.0055V38.9957ZM46.4837 38.9957C46.4837 38.2612 47.0909 37.7715 47.8196 37.7715C48.5482 37.7715 49.034 38.3836 49.034 39.1181C49.034 39.8526 48.4268 40.3423 47.6982 40.3423C47.0909 40.3423 46.6052 39.8526 46.4837 38.9957ZM15.0303 38.9957V36.7922H14.0588V37.2819C13.6944 36.9146 13.2087 36.6698 12.7229 36.6698C11.5085 36.6698 10.4155 37.6491 10.4155 38.9957C10.4155 40.3423 11.3871 41.3216 12.7229 41.3216C13.2087 41.3216 13.6944 41.0768 14.0588 40.7095V41.1992H15.0303V38.9957ZM11.6299 38.9957C11.6299 38.2612 12.2371 37.7715 12.9658 37.7715C13.6944 37.7715 14.1802 38.3836 14.1802 39.1181C14.1802 39.8526 13.573 40.3423 12.8444 40.3423C12.2371 40.3423 11.6299 39.8526 11.6299 38.9957Z" fill="white"/>
<path d="M33.8448 3.45068H19.7576V29.0357H33.8448V3.45068Z" fill="#FF5F00"/>
<path d="M20.6077 16.3043C20.6077 11.2852 22.9151 6.63342 26.8012 3.45059C19.7576 -2.05815 9.6779 -0.833971 4.09158 6.14376C-1.3733 13.2439 -0.158883 23.4045 6.7633 29.0357C12.5925 33.6875 20.8505 33.6875 26.6798 29.0357C22.9151 25.9752 20.6077 21.3234 20.6077 16.3043Z" fill="#EB001B"/>
<path d="M52.9005 16.0846C52.9005 25.021 45.7354 32.366 36.7488 32.366C33.1055 32.366 29.5837 31.1418 26.7905 28.9383C33.8342 23.4296 35.0486 13.1466 29.4622 6.16891C28.6122 5.18958 27.7621 4.21023 26.7905 3.47574C33.8342 -2.033 43.9138 -0.808824 49.3787 6.16891C51.6861 8.86207 52.9005 12.4121 52.9005 16.0846Z" fill="#F79E1B"/>
</svg>
