<svg width="164" height="29" viewBox="0 0 164 29" fill="none" xmlns="http://www.w3.org/2000/svg">
<path d="M160.274 2.16009C158.194 0.734792 155.045 0.0159678 150.918 0.0159678H140.109L136.091 21.831H121.931L122.841 16.8816H131.37L132.381 11.3227L123.856 11.335L124.769 6.4077H133.555L134.724 0.0172413H116.882L113.067 20.7102H106.519L110.36 0.0161529H101.033L97.2179 20.7091H90.8394L94.6836 0.0161529H85.3616L81.3383 21.8312H67.0767L67.9782 16.8818H76.5422L77.5542 11.3545L68.9984 11.3459L69.9061 6.4088H78.7906L79.9522 0.015625H24.352L21.1873 17.3025L14.885 0.015625H5.2082L0 28.2277H9.24148L12.3939 10.4641L18.5095 28.2277H51.6302L55.6572 6.40608H60.8371L56.8102 28.2277H143.957L146.484 14.4531L150.571 28.2277H159.817L155.582 16.9721L156.551 16.7636C158.685 16.3061 160.35 15.3236 161.509 13.8504C162.667 12.3638 163.257 10.4552 163.257 8.16253C163.257 5.49343 162.281 3.52965 160.271 2.15845L160.274 2.16009ZM43.5882 21.831H29.4419L30.3557 16.8816H39.2287L40.2346 11.3069H31.4469L32.2933 6.40909H46.4189L43.5855 21.831L43.5882 21.831ZM152.655 12.3283C151.726 12.9784 150.377 13.2949 148.534 13.2949H146.706L148.108 5.72406H149.453C150.983 5.72406 152.1 5.96938 152.87 6.46982C153.471 6.86234 154.186 7.6388 154.186 9.10704C154.184 10.8832 153.352 11.8375 152.653 12.3281L152.655 12.3283Z" fill="#83BA3B"/>
</svg>
