<svg width="81" height="37" viewBox="0 0 81 37" fill="none" xmlns="http://www.w3.org/2000/svg">
<path d="M40.0044 21.3862H41.2645V24.2236H42.1749L43.8086 21.3862H45.1862L43.2253 24.7163V24.7396L45.303 28.3735H43.8789L42.1981 25.3248H41.2884V28.3735H40.0276V21.3855H40.0044V21.3862ZM48.1271 23.2389C49.6432 23.2389 50.8808 24.3409 50.8808 25.8649C50.8808 27.4129 49.6672 28.4916 48.1503 28.4916C46.6327 28.4916 45.419 27.4129 45.419 25.8649C45.3958 24.3176 46.6095 23.2389 48.1271 23.2389ZM51.8609 23.3555H53.0513V27.2956H54.6154V23.3563H55.8051V27.2956H57.3691V23.3563H58.5596V28.3735H51.9073V23.3555H51.8609ZM62.0844 23.2389C63.5078 23.2389 64.3014 24.2943 64.3014 25.6076C64.2975 25.7725 64.2819 25.9369 64.2549 26.0996H60.8236C60.894 26.9669 61.5708 27.4363 62.318 27.4363C62.8309 27.4363 63.3445 27.2016 63.7413 26.8969L64.2317 27.7883C63.7181 28.2329 62.9477 28.5149 62.2245 28.5149C60.5668 28.5149 59.5403 27.3189 59.5403 25.8882C59.5403 24.3176 60.5901 23.2389 62.0844 23.2389ZM64.8846 27.3189C65.4918 27.2249 65.9351 26.7096 65.9351 24.9269V23.3563H69.5767V28.3735H68.3391V24.3635H67.1255V24.9262C67.1255 27.1068 66.5422 28.3735 64.8846 28.4202V27.3182V27.3189ZM73.1241 23.2389C74.5474 23.2389 75.341 24.2943 75.341 25.6076C75.3371 25.7725 75.3216 25.9369 75.2946 26.0996H71.8633C71.9337 26.9669 72.6105 27.4363 73.3577 27.4363C73.8706 27.4363 74.3842 27.2016 74.781 26.8969L75.2714 27.7883C74.7578 28.2329 73.9874 28.5149 73.2641 28.5149C71.6072 28.5149 70.58 27.3189 70.58 25.8882C70.58 24.3176 71.6304 23.2389 73.1241 23.2389ZM76.3683 23.3555H77.6051V25.2789H78.2123L79.426 23.3563H80.8028L79.2156 25.7476V25.7716L80.9893 28.3735H79.5428L78.2355 26.3343H77.5826V28.3735H76.3443V23.3555H76.3675H76.3683ZM48.1271 27.4129C48.9439 27.4129 49.6208 26.7796 49.6208 25.8416C49.6208 24.9269 48.9439 24.2702 48.1264 24.2702C47.3102 24.2702 46.6566 24.9043 46.6566 25.8416C46.6566 26.7796 47.3095 27.4129 48.1271 27.4129ZM63.0413 25.2323C63.0413 24.5756 62.5973 24.1769 62.0373 24.1769C61.4076 24.1769 60.9404 24.5989 60.8236 25.2323H63.0413ZM74.081 25.2323C74.081 24.5756 73.6377 24.1769 73.0777 24.1769C72.4466 24.1769 71.9801 24.5989 71.8633 25.2323H74.081Z" fill="#535353"/>
<path d="M57.0583 5.68436V17.5264C57.0593 17.5698 57.0515 17.6129 57.0355 17.6531C57.0194 17.6934 56.9954 17.7299 56.9649 17.7606C56.9344 17.7912 56.898 17.8153 56.8579 17.8315C56.8179 17.8476 56.775 17.8554 56.7319 17.8544H54.3278C54.2846 17.8554 54.2417 17.8476 54.2017 17.8315C54.1616 17.8153 54.1252 17.7912 54.0947 17.7606C54.0642 17.7299 54.0402 17.6934 54.0241 17.6531C54.0081 17.6129 54.0003 17.5698 54.0013 17.5264V5.68436C54.0003 5.64102 54.0081 5.59793 54.0241 5.55768C54.0402 5.51744 54.0642 5.48089 54.0947 5.45023C54.1252 5.41958 54.1616 5.39545 54.2017 5.37932C54.2417 5.3632 54.2846 5.35539 54.3278 5.35639H56.7319C56.775 5.35539 56.8179 5.3632 56.8579 5.37932C56.898 5.39545 56.9344 5.41958 56.9649 5.45023C56.9954 5.48089 57.0194 5.51744 57.0355 5.55768C57.0515 5.59793 57.0593 5.64102 57.0583 5.68436ZM75.8238 5.35639C75.9174 5.35639 76.0342 5.40304 76.1503 5.49705C76.2207 5.56702 76.2207 5.68436 76.1974 5.77838L72.2293 17.6438C72.2052 17.7052 72.1636 17.758 72.1096 17.7956C72.0556 17.8333 71.9918 17.854 71.9261 17.8551H69.7788C69.6388 17.8551 69.522 17.7844 69.4756 17.6438L67.1636 10.7264L64.8531 17.643C64.829 17.7044 64.7873 17.7573 64.7334 17.7949C64.6794 17.8325 64.6155 17.8532 64.5499 17.8544H62.4026C62.2626 17.8544 62.1458 17.7844 62.0993 17.643L58.1312 5.77766C58.108 5.68436 58.108 5.59035 58.1776 5.49705C58.2248 5.40304 58.3416 5.35639 58.4344 5.35639H61.1186C61.2586 5.35639 61.3754 5.44968 61.4225 5.59035L63.5459 12.6017L65.8803 5.59035C65.9044 5.52894 65.9461 5.47609 66 5.43847C66.054 5.40085 66.1179 5.38015 66.1835 5.37898H68.074C68.214 5.37898 68.3308 5.44968 68.3773 5.59035L70.7117 12.6017L72.8358 5.59035C72.8548 5.52392 72.8945 5.46538 72.9491 5.42328C73.0037 5.38118 73.0702 5.35774 73.139 5.35639H75.8231H75.8238ZM79.8848 5.35639C80.048 5.35639 80.1881 5.49705 80.2113 5.68436V17.5264C80.2123 17.5698 80.2045 17.6129 80.1884 17.6531C80.1724 17.6934 80.1484 17.7299 80.1179 17.7606C80.0874 17.7912 80.051 17.8153 80.0109 17.8315C79.9709 17.8476 79.928 17.8554 79.8848 17.8544H77.4807C77.4376 17.8554 77.3947 17.8476 77.3546 17.8315C77.3146 17.8153 77.2782 17.7912 77.2477 17.7606C77.2172 17.7299 77.1932 17.6934 77.1771 17.6531C77.1611 17.6129 77.1533 17.5698 77.1543 17.5264V5.68436C77.1533 5.64102 77.1611 5.59793 77.1771 5.55768C77.1932 5.51744 77.2172 5.48089 77.2477 5.45023C77.2782 5.41958 77.3146 5.39545 77.3546 5.37932C77.3947 5.3632 77.4376 5.35539 77.4807 5.35639H79.8848ZM52.6005 17.4331C52.7405 17.5971 52.6237 17.8311 52.4133 17.8311H49.4724C49.4145 17.8327 49.357 17.8208 49.3044 17.7964C49.2518 17.772 49.2056 17.7357 49.1692 17.6904L48.6795 17.0811C47.6523 17.7371 46.4379 18.1365 45.1546 18.1365C41.5608 18.1365 38.6431 15.2051 38.6431 11.5937C38.6431 7.98237 41.5608 5.05101 45.1546 5.05101C48.7492 5.05101 51.6669 7.98237 51.6669 11.5937C51.6669 12.8838 51.2933 14.1031 50.6397 15.1344L52.6005 17.4324V17.4331ZM28.0228 23.1778C28.63 23.4125 28.8636 24.3264 28.91 24.7251C29.0036 25.4525 28.7939 25.7338 28.5603 25.7338C28.3267 25.7338 27.9996 25.4525 27.6499 24.8898C27.2995 24.3264 27.1595 23.6938 27.3467 23.3651C27.4627 23.1537 27.7195 23.0605 28.0235 23.1778H28.0228ZM24.4754 25.8278C24.849 25.8278 25.269 25.9918 25.6426 26.3198C26.3659 26.9298 26.5763 27.6332 26.2027 28.1492C25.9923 28.4072 25.6426 28.5712 25.2458 28.5712C24.849 28.5712 24.429 28.4305 24.149 28.1725C23.4953 27.6098 23.3089 26.6711 23.7282 26.1558C23.8921 25.9444 24.149 25.8278 24.4754 25.8278ZM16.307 32.6045C7.43711 32.6045 0.248779 25.3818 0.248779 16.4711C0.248779 7.56038 7.43784 0.338379 16.3063 0.338379C25.1754 0.338379 32.3645 7.56111 32.3645 16.4711C32.3645 19.4957 31.5244 22.3338 30.1011 24.7492C30.054 24.8191 29.9372 24.7958 29.914 24.7018C29.3539 20.7391 26.9499 18.5577 23.4489 17.9018C23.1449 17.8544 23.0985 17.6671 23.4953 17.6205C24.569 17.5264 26.0859 17.5498 26.8795 17.6904C26.9259 17.2918 26.9499 16.8698 26.9499 16.4478C26.9499 10.5617 22.1881 5.77766 16.3295 5.77766C10.4716 5.77766 5.70985 10.5617 5.70985 16.4478C5.70985 22.3338 10.4716 27.1179 16.3302 27.1179H16.8199C16.6535 26.1658 16.583 25.1994 16.6095 24.2331C16.6334 23.5765 16.7735 23.4825 17.0535 23.9985C18.5239 26.5545 20.6248 28.8525 24.7322 29.7672C28.0931 30.5179 31.4541 31.3852 35.0718 36.0045C35.3983 36.4032 34.9086 36.8252 34.535 36.4972C30.8476 33.2138 27.4867 32.1351 24.429 32.1351C20.9977 32.1592 18.6639 32.6045 16.3063 32.6045H16.307ZM46.7651 14.8064L45.4811 13.2351C45.3418 13.0711 45.4586 12.8131 45.6682 12.8131H48.3756C48.5156 12.4377 48.5859 12.0157 48.5859 11.5937C48.5859 9.64776 47.1387 7.95905 45.1546 7.95905C43.1713 7.95905 41.7233 9.64776 41.7233 11.5937C41.7233 13.5397 43.1713 15.2051 45.1546 15.2051C45.7147 15.2284 46.2754 15.0644 46.7651 14.8064Z" fill="#FF8C00"/>
</svg>
