<svg width="85" height="30" viewBox="0 0 85 30" fill="none" xmlns="http://www.w3.org/2000/svg">
<path fill-rule="evenodd" clip-rule="evenodd" d="M61.0666 7.81288C62.9912 7.81288 64.5511 6.25367 64.5511 4.33097C64.5511 2.40714 62.9912 0.846436 61.0666 0.846436C59.1443 0.846436 57.585 2.40714 57.585 4.33097C57.585 6.25367 59.1443 7.81288 61.0666 7.81288ZM34.3797 9.69328C34.2224 10.0882 33.0908 13.2849 30.3538 16.598V2.43184L23.0613 3.87313V29.5508H30.3538V21.6136C32.466 24.7814 33.5089 29.5508 33.5089 29.5508H42.2438C41.3798 25.9588 37.6003 19.3356 37.6003 19.3356C40.9923 15.035 42.4823 10.4525 42.7193 9.69328H34.3797ZM53.5513 9.42524C47.0195 9.63488 43.7038 12.5654 43.7038 18.3908V29.5508H50.8297V20.4501C50.8297 16.9618 51.2865 15.4666 55.4257 15.324V9.52744C54.7291 9.37957 53.5513 9.42524 53.5513 9.42524ZM10.831 12.5208C9.93779 12.462 7.86983 12.3284 7.86983 10.4667C7.86983 8.22018 10.8471 8.22018 11.9638 8.22018C13.9273 8.22018 16.4704 8.80044 18.2864 9.34363C18.2864 9.34363 19.2994 9.70077 20.1615 10.0665L20.2416 10.0882V3.93564L20.1316 3.90307C17.9884 3.15323 15.4963 2.43184 10.8759 2.43184C2.90958 2.43184 0.0869141 7.07277 0.0869141 11.0485C0.0869141 13.3403 1.06923 18.734 10.1927 19.3562C10.9662 19.4038 13.0188 19.5221 13.0188 21.4459C13.0188 23.0343 11.3383 23.971 8.51186 23.971C5.41441 23.971 2.40981 23.1811 0.584811 22.432V28.7687C3.31688 29.4849 6.39673 29.8428 10.0063 29.8428C17.7956 29.8428 21.2842 25.4519 21.2842 21.1C21.2842 16.1656 17.3804 12.9596 10.831 12.5208ZM57.5341 29.5508H64.6024V9.71574H57.5341V29.5508ZM77.9116 3.69643V29.5508H84.981V2.43184L77.9116 3.69643ZM67.5965 3.69643L74.6592 2.43184V29.5508H67.5965V3.69643Z" fill="url(#paint0_linear)"/>
<defs>
<linearGradient id="paint0_linear" x1="23.0456" y1="0.846436" x2="29.4247" y2="36.6118" gradientUnits="userSpaceOnUse">
<stop stop-color="#8C257D"/>
<stop offset="1" stop-color="#76348F"/>
</linearGradient>
</defs>
</svg>
