<svg width="103" height="34" viewBox="0 0 103 34" fill="none" xmlns="http://www.w3.org/2000/svg">
<path d="M45.0235 33.3949H36.7358L41.9196 1.2605H50.2068L45.0235 33.3949Z" fill="#00579F"/>
<path d="M75.0686 2.04729C73.4339 1.39709 70.8411 0.679199 67.6352 0.679199C59.4508 0.679199 53.6874 5.05472 53.6521 11.3104C53.5841 15.9258 57.7785 18.4893 60.9155 20.0283C64.1219 21.6008 65.2119 22.6272 65.2119 24.0289C65.1793 26.1817 62.6209 27.174 60.2348 27.174C56.926 27.174 55.1531 26.6624 52.4588 25.4647L51.3675 24.9513L50.2078 32.1648C52.1515 33.0526 55.7327 33.8404 59.4508 33.875C68.1468 33.875 73.8082 29.5672 73.8753 22.9007C73.9084 19.2427 71.6936 16.4397 66.9186 14.1493C64.02 12.6789 62.2448 11.6875 62.2448 10.1831C62.2788 8.81548 63.7462 7.41468 67.0183 7.41468C69.7126 7.34607 71.6922 7.99536 73.1919 8.64509L73.9414 8.98632L75.0686 2.04729Z" fill="#00579F"/>
<path d="M86.0824 22.0108C86.7649 20.1647 89.3912 13.0199 89.3912 13.0199C89.3568 13.0885 90.0724 11.1397 90.4816 9.94338L91.0608 12.7123C91.0608 12.7123 92.6303 20.4042 92.9711 22.0108C91.6758 22.0108 87.7194 22.0108 86.0824 22.0108ZM96.3125 1.2605H89.902C87.9251 1.2605 86.4232 1.84117 85.5703 3.9267L73.26 33.3944H81.956C81.956 33.3944 83.3877 29.4283 83.6954 28.5741C84.6494 28.5741 93.1088 28.5741 94.3361 28.5741C94.574 29.7023 95.325 33.3944 95.325 33.3944H102.999L96.3125 1.2605Z" fill="#00579F"/>
<path d="M29.8141 1.2605L21.6977 23.1731L20.8108 18.7289C19.3103 13.601 14.6042 8.0296 9.35254 5.25935L16.7868 33.3608H25.5509L38.5777 1.2605H29.8141Z" fill="#00579F"/>
<path d="M14.1619 1.26294H0.827819L0.691406 1.91222C11.0928 4.57888 17.9815 11.0068 20.8117 18.7328L17.913 3.96413C17.4358 1.91177 15.9693 1.33064 14.1619 1.26294Z" fill="#FAA61A"/>
</svg>
