<svg width="134" height="31" viewBox="0 0 134 31" fill="none" xmlns="http://www.w3.org/2000/svg">
<path d="M5.43181 25.7308V17.6495L0.0390625 3.18049H2.75119L6.72618 14.3441L11.2998 0.846436H13.7914L7.91552 17.7519V25.7308H5.43181Z" fill="#FF0000"/>
<path d="M21.4256 25.7305H19.3435C19.2342 25.3175 19.1604 24.8958 19.123 24.4702H18.9655C18.6302 24.9407 18.1846 25.3217 17.6678 25.5799C17.151 25.8381 16.5788 25.9655 16.0013 25.951C13.7302 25.951 12.1838 24.2471 12.1838 21.1254C12.1838 17.7122 13.9193 15.5751 18.3669 15.5751H18.7134V14.6299C18.7134 12.5479 18.0177 11.6631 16.6314 11.6631C15.3686 11.6631 14.2974 12.3274 13.4808 13.052L13.003 10.8755C14.0965 10.0589 15.4242 9.61694 16.7889 9.61524C19.5956 9.61524 21.142 10.8125 21.142 14.6614V22.1362C21.1418 23.3399 21.2367 24.5417 21.4256 25.7305ZM18.7134 17.4366H18.4299C15.3686 17.4366 14.7069 18.7913 14.7069 20.8497C14.7069 22.6875 15.3055 23.8769 16.5684 23.8769C17.0005 23.8528 17.4205 23.7259 17.7936 23.5067C18.1667 23.2875 18.4821 22.9823 18.7134 22.6167V17.4366ZM26.6608 25.7305H24.1928V9.80428H26.6529V11.1905H26.8104C27.186 10.718 27.6596 10.3325 28.1985 10.0605C28.7374 9.78858 29.3289 9.63667 29.9321 9.61524C32.0141 9.61524 33.1168 10.781 33.1168 13.2095V25.7305H30.6279V13.4301C30.6279 12.2329 30.0897 11.8207 29.1445 11.8207C28.0943 11.8207 27.22 12.6083 26.6529 13.3959L26.6608 25.7305ZM35.5533 18.3791C35.5533 12.4823 37.7613 9.61262 40.9487 9.61262C41.6651 9.60916 42.3666 9.81742 42.965 10.2112V3.18018H45.4251V25.7305H43.5873L43.3982 24.4702H43.2407C42.545 25.3524 41.6654 25.951 40.3684 25.951C37.2572 25.951 35.5533 23.3019 35.5533 18.3817V18.3791ZM42.965 12.3983C42.7287 12.1446 42.4401 11.9454 42.1191 11.8144C41.7981 11.6834 41.4525 11.6237 41.1062 11.6395C39.1187 11.6395 38.1709 14.6378 38.1709 17.8855C38.1709 21.6058 38.8667 23.8769 40.6651 23.8769C41.1246 23.8967 41.5808 23.792 41.9857 23.5739C42.3905 23.3558 42.7289 23.0323 42.965 22.6377V12.3983ZM53.1861 25.9589C49.9042 25.9589 47.8852 23.3334 47.8852 18.4526C47.8852 13.3434 49.3056 9.62312 52.6793 9.62312C55.3285 9.62312 57.0639 11.608 57.0639 17.0007V18.3581H50.4477C50.4477 21.9524 51.4585 23.8454 53.4145 23.8454C54.5115 23.8176 55.5714 23.4426 56.4417 22.7742L57.0114 24.6593C55.9244 25.5199 54.5723 25.9764 53.1861 25.951V25.9589ZM50.4739 16.3365H54.5408C54.5408 13.6244 54.0997 11.6369 52.6793 11.6369C51.1671 11.6316 50.6288 13.4931 50.4739 16.3365ZM67.7549 9.84104L64.7907 17.279L68.1014 25.7305H65.5495L63.0868 19.1668L60.6897 25.7305H58.2638L61.5745 17.4996L58.5867 9.83579H61.1413L63.1918 15.6119L65.3657 9.83579L67.7549 9.84104Z" fill="white"/>
<path d="M76.5464 10.1519L75.8848 25.574H74.593L75.5697 3.02368H77.3025L80.6789 16.9388C80.9327 17.9645 81.1082 19.0081 81.204 20.0605H81.267C81.3777 19.0072 81.5673 17.9637 81.8341 16.9388L85.3129 3.03418H87.0772L88.0565 25.5845H86.5416L85.88 10.0364C85.7855 8.2694 85.817 6.91203 85.817 5.52577H85.7225C85.555 6.89664 85.3025 8.25577 84.9663 9.59527L81.8157 22.0532H80.587L77.4627 9.59527C77.1153 8.27031 76.8721 6.92019 76.7354 5.55728H76.6488C76.6488 6.786 76.6094 8.61597 76.5464 10.1519Z" fill="white"/>
<path d="M90.5771 17.8771C90.5771 12.5789 92.6907 9.51758 95.4343 9.51758C98.1779 9.51758 100.291 12.2323 100.291 17.6881C100.291 22.9548 98.1911 26.045 95.4343 26.045C92.6775 26.045 90.5771 23.3014 90.5771 17.8771ZM98.8107 17.7826C98.8107 12.7942 97.2958 10.7489 95.4343 10.7489C93.5728 10.7489 92.0605 12.957 92.0605 17.7826C92.0605 22.7343 93.5728 24.8478 95.4343 24.8478C97.2958 24.8478 98.8107 22.5767 98.8107 17.7826Z" fill="white"/>
<path d="M104.489 14.1225V25.7298H103.005V9.83508H104.363L104.426 12.4606H104.489C104.93 11.2844 106.19 9.50952 108.335 9.50952C110.48 9.50952 111.68 10.8223 111.68 13.3585V25.7298H110.197V13.5554C110.197 11.6624 109.503 10.7803 108.052 10.7803C106.474 10.7803 105.276 12.1061 104.489 14.1225Z" fill="white"/>
<path d="M119.22 24.7531C121.321 24.7531 122.437 23.0492 122.437 23.0492L122.909 24.2464C122.474 24.8173 121.91 25.2779 121.264 25.5912C120.618 25.9045 119.907 26.0617 119.189 26.0501C115.823 26.0501 114.269 22.9861 114.269 17.7824C114.269 12.5787 116.222 9.50952 118.905 9.50952C121.649 9.50952 123.413 12.3976 122.912 18.0345H115.718C115.781 22.3875 116.918 24.7531 119.22 24.7531ZM115.75 16.8609H121.526C121.788 12.6365 120.515 10.7435 118.9 10.7435C117.233 10.7488 115.876 12.8938 115.75 16.8609Z" fill="white"/>
<path d="M125.246 30.7128L125.088 29.3239C125.406 29.4115 125.733 29.4583 126.062 29.4631C127.136 29.4631 127.9 28.4129 128.365 26.6564L128.491 26.1839L124.552 9.84809H126.033L128.556 20.224C128.838 21.4053 129.057 22.6007 129.213 23.8052H129.307C129.525 22.5449 129.78 21.3766 130.063 20.2109L132.523 9.83496H133.849L129.788 26.5488C129.249 28.6938 128.304 30.7758 126.065 30.7758C125.791 30.7756 125.517 30.7545 125.246 30.7128Z" fill="white"/>
</svg>
